<?xml version="1.0" standalone="no"?>
<!DOCTYPE svg PUBLIC "-//W3C//DTD SVG 1.1//EN" "http://www.w3.org/Graphics/SVG/1.1/DTD/svg11.dtd" >
<svg>
<metadata>
Created by FontForge 20120731 at Fri Jun 29 20:34:57 2018
 By www-data
Copyright (c) 1990 Adobe Systems Incorporated. All rights reserved. Digitized data (c) 2002 The Monotype Corporation. All rights reserved.
</metadata>
<defs>
<font id="TwCenMTStd-LightItalic" horiz-adv-x="490" >
  <font-face 
    font-family="Tw Cen MT Std"
    font-weight="300"
    font-style="italic"
    font-stretch="normal"
    units-per-em="1000"
    panose-1="2 11 3 2 2 1 4 9 6 3"
    ascent="800"
    descent="-200"
    x-height="383"
    cap-height="628"
    bbox="-249 -230 1007 878"
    underline-thickness="50"
    underline-position="-75"
    slope="-12"
    stemh="51"
    stemv="51"
    unicode-range="U+0020-FB02"
  />
<missing-glyph horiz-adv-x="500" 
d="M12 0v665h475v-665h-475zM88 618l162 -243l161 243h-323zM60 575v-484c0 -1 161 242 161 242zM440 575l-162 -242l162 -243v485zM411 48l-161 242l-162 -242h323z" />
    <glyph glyph-name="fi" unicode="fi" horiz-adv-x="375" 
d="M343 470h-47c3 23 4 35 4 45c0 56 -28 89 -74 89c-48 0 -69 -25 -78 -95l-16 -125h89l-6 -45h-89l-45 -339h-46l44 339h-63l5 45h64l19 147c10 71 56 118 116 118c77 0 126 -52 126 -134c0 -10 -1 -26 -3 -45zM284 384h47l-51 -384h-46z" />
    <glyph glyph-name="fl" unicode="fl" horiz-adv-x="374" 
d="M279 0h-45l64 491c1 8 2 17 2 25c0 55 -29 88 -76 88c-44 0 -68 -29 -76 -92l-16 -128h88l-5 -45h-89l-46 -339h-45l45 339h-64l5 45h64l21 157c8 62 57 108 113 108c79 0 126 -51 126 -136c0 -14 -1 -28 -3 -43z" />
    <glyph glyph-name=".notdef" horiz-adv-x="500" 
d="M12 0v665h475v-665h-475zM88 618l162 -243l161 243h-323zM60 575v-484c0 -1 161 242 161 242zM440 575l-162 -242l162 -243v485zM411 48l-161 242l-162 -242h323z" />
    <glyph glyph-name=".notdef" horiz-adv-x="500" 
d="M12 0v665h475v-665h-475zM88 618l162 -243l161 243h-323zM60 575v-484c0 -1 161 242 161 242zM440 575l-162 -242l162 -243v485zM411 48l-161 242l-162 -242h323z" />
    <glyph glyph-name="space" unicode=" " horiz-adv-x="245" 
 />
    <glyph glyph-name="exclam" unicode="!" horiz-adv-x="323" 
d="M177 623h46l-67 -500h-47zM126 62c18 0 32 -15 32 -33s-15 -33 -32 -33c-18 0 -33 15 -33 33s15 33 33 33z" />
    <glyph glyph-name="quotedbl" unicode="&#x22;" horiz-adv-x="278" 
d="M151 716h73l-25 -116l-43 -133h-43l13 133zM280 716h75l-25 -116l-44 -133h-43l13 133z" />
    <glyph glyph-name="numbersign" unicode="#" horiz-adv-x="668" 
d="M45 469h162l42 200h50l-42 -200h215l42 200h50l-42 -200h100v-51h-110l-40 -190h150v-51h-160l-41 -200h-52l43 200h-216l-41 -200h-51l41 200h-100v51h111l40 190h-151v51zM246 418l-40 -189h216l40 189h-216z" />
    <glyph glyph-name="dollar" unicode="$" horiz-adv-x="427" 
d="M213 389l27 203c-60 -6 -95 -41 -95 -95c0 -41 25 -80 68 -108zM247 290l-33 -249c65 12 109 65 109 130c0 49 -21 83 -76 119zM255 707h47l-8 -64c61 -22 86 -50 107 -119l-52 -23c-14 47 -27 64 -63 82l-30 -226c8 -6 9 -8 22 -17c49 -37 73 -62 86 -90
c11 -24 17 -49 17 -76c0 -106 -70 -183 -174 -192l-12 -82h-46l11 87c-62 18 -92 39 -117 82c-12 23 -17 40 -23 80l57 13c7 -68 29 -97 91 -118l36 278c-41 29 -56 43 -76 68c-27 33 -40 67 -40 100c0 94 60 154 161 160z" />
    <glyph glyph-name="percent" unicode="%" horiz-adv-x="740" 
d="M183 609c-63 0 -101 -57 -101 -151c0 -66 28 -104 77 -104c59 0 99 60 99 147c0 69 -28 108 -75 108zM183 648c71 0 115 -53 115 -138c0 -121 -53 -195 -141 -195c-70 0 -116 55 -116 137c0 122 54 196 142 196zM589 257c-61 0 -101 -60 -101 -149c0 -69 28 -107 78 -107
c57 0 98 60 98 145c0 72 -26 111 -75 111zM591 296c67 0 112 -54 112 -137c0 -118 -55 -196 -138 -196c-71 0 -117 53 -117 134c0 124 54 199 143 199zM580 646h43l-452 -683h-46z" />
    <glyph glyph-name="ampersand" unicode="&#x26;" horiz-adv-x="542" 
d="M252 397c51 36 86 83 86 114c0 26 -25 50 -53 50c-37 0 -65 -30 -65 -71c0 -30 12 -63 32 -93zM344 122l-111 185c-67 -57 -84 -73 -110 -106c-16 -20 -24 -42 -24 -65c0 -51 45 -99 93 -99c18 0 41 7 62 19c30 18 42 26 90 66zM425 1l-52 76c-7 -5 -8 -6 -21 -16
c-74 -57 -120 -78 -169 -78c-75 0 -138 68 -138 150c0 49 33 109 88 162c9 8 15 13 36 28c20 15 25 19 41 32c-30 59 -42 98 -42 135c0 72 50 123 119 123c56 0 104 -47 104 -102c0 -26 -12 -56 -34 -86c-21 -29 -38 -46 -83 -84c17 -34 29 -55 59 -106
c21 -36 28 -47 49 -77c25 21 41 35 75 67l15 14l34 -41l-96 -87l73 -110h-58z" />
    <glyph glyph-name="quoteright" unicode="&#x2019;" horiz-adv-x="219" 
d="M124 625h69l-14 -110c-3 -25 -22 -70 -50 -119l-32 12c28 51 38 74 43 101h-31z" />
    <glyph glyph-name="parenleft" unicode="(" horiz-adv-x="323" 
d="M175 -177l-45 -13c-13 68 -17 90 -21 126c-3 30 -4 64 -4 102c0 165 26 330 77 491c20 62 32 91 64 162l44 -18c-39 -92 -54 -130 -75 -200c-43 -142 -64 -285 -64 -436c0 -44 2 -78 8 -117c3 -27 6 -46 16 -97z" />
    <glyph glyph-name="parenright" unicode=")" horiz-adv-x="323" 
d="M62 -191l-44 18c40 95 54 131 72 190c13 43 24 86 34 133c20 101 30 204 30 301c0 49 -2 92 -8 135c-3 26 -6 43 -15 91l43 13c13 -59 17 -83 21 -123c4 -36 6 -73 6 -120c0 -80 -10 -185 -27 -279c-9 -51 -19 -93 -33 -143c-17 -61 -38 -120 -61 -174
c-4 -9 -10 -23 -18 -42z" />
    <glyph glyph-name="asterisk" unicode="*" horiz-adv-x="427" 
d="M197 493l12 8c-1 18 -2 23 -10 48s-10 39 -10 53c0 21 11 36 27 36c17 0 27 -14 27 -36c0 -8 -3 -23 -9 -48c-8 -28 -11 -41 -12 -53l11 -9c18 13 23 18 41 36c28 28 43 38 58 38s27 -11 27 -25c0 -21 -18 -34 -61 -44c-27 -6 -36 -9 -61 -19l1 -9c21 -8 27 -10 54 -18
c37 -10 45 -13 59 -25c5 -6 8 -13 8 -19c0 -16 -10 -27 -24 -27c-18 0 -32 9 -61 39c-19 19 -24 24 -43 38l-11 -5c1 -18 2 -23 9 -50c7 -24 10 -40 10 -51c0 -25 -9 -37 -29 -37c-17 0 -26 12 -26 36c0 10 3 24 12 54c8 24 11 39 11 48l-10 6c-16 -12 -21 -16 -40 -35
c-31 -31 -48 -43 -63 -43c-13 0 -26 13 -26 26c0 23 19 36 70 47c27 6 33 8 52 15v14c-20 8 -25 10 -52 16c-51 13 -69 24 -69 46c0 15 10 25 27 25c16 0 28 -8 55 -36c20 -19 26 -25 46 -40z" />
    <glyph glyph-name="plus" unicode="+" horiz-adv-x="667" 
d="M69 347h237v238h53v-238h238v-52h-238v-236h-53v236h-237v52z" />
    <glyph glyph-name="comma" unicode="," horiz-adv-x="271" 
d="M148 103l54 -30l-102 -172l-33 16z" />
    <glyph glyph-name="hyphen" unicode="-" horiz-adv-x="271" 
d="M52 213h179l-7 -44h-178z" />
    <glyph glyph-name="hyphen" unicode="&#xad;" horiz-adv-x="271" 
d="M52 213h179l-7 -44h-178z" />
    <glyph glyph-name="period" unicode="." horiz-adv-x="271" 
d="M132 77c24 0 43 -19 43 -43s-19 -44 -43 -44s-44 20 -44 44s20 43 44 43z" />
    <glyph glyph-name="slash" unicode="/" horiz-adv-x="323" 
d="M277 652h29l-246 -832h-29z" />
    <glyph glyph-name="zero" unicode="0" 
d="M259 593c-103 -4 -177 -136 -177 -318c0 -142 59 -235 150 -235c100 0 177 140 177 319c0 137 -61 234 -148 234h-2zM260 647c54 -1 93 -17 128 -53c50 -50 79 -132 79 -224c0 -232 -97 -387 -242 -387c-117 0 -202 119 -202 286c0 221 98 378 234 378h3z" />
    <glyph glyph-name="one" unicode="1" 
d="M196 624h116l-81 -624h-49l74 574h-67z" />
    <glyph glyph-name="two" unicode="2" 
d="M121 52h282l-8 -52h-382l230 256c86 96 123 162 123 219c0 65 -48 115 -109 115c-50 0 -86 -24 -106 -71c-11 -25 -14 -43 -15 -86h-56c2 82 17 126 54 165c32 32 74 49 124 49c91 0 163 -72 163 -162c0 -72 -53 -166 -154 -276z" />
    <glyph glyph-name="three" unicode="3" 
d="M161 507l-52 6c17 67 39 99 84 121c19 10 43 15 67 15c88 0 149 -66 149 -163c0 -50 -19 -95 -53 -125c-14 -13 -26 -19 -54 -29c41 -17 62 -38 80 -79c11 -25 18 -54 18 -81c0 -106 -75 -191 -169 -191c-70 0 -123 35 -147 98c-11 25 -13 44 -14 87l52 -8
c2 -78 37 -121 99 -121c70 0 125 62 125 141s-39 122 -121 135l6 57h19c57 0 107 48 107 104c0 70 -43 122 -103 122c-48 0 -74 -25 -93 -89z" />
    <glyph glyph-name="four" unicode="4" 
d="M320 464l-202 -278h168l36 276zM400 654l-62 -468h92l-6 -51h-92l-17 -135h-54l18 135h-260z" />
    <glyph glyph-name="five" unicode="5" 
d="M198 629h266l-7 -51h-223l-47 -155c17 1 31 2 43 2c105 0 188 -92 188 -210c0 -128 -88 -232 -197 -232c-45 0 -93 21 -132 58c-22 22 -32 37 -52 76l46 24c18 -34 28 -47 47 -65c27 -24 58 -38 87 -38c78 0 144 80 144 175c0 100 -55 163 -141 163
c-34 0 -60 -10 -111 -41z" />
    <glyph glyph-name="six" unicode="6" 
d="M238 380c-87 0 -156 -77 -156 -174c0 -93 70 -166 160 -166c89 0 162 78 162 174c0 90 -76 166 -166 166zM281 649l39 -25l-136 -202c27 6 39 7 57 7c125 0 218 -94 218 -222c0 -123 -98 -225 -216 -225c-120 0 -211 94 -211 219c0 52 19 108 53 160z" />
    <glyph glyph-name="seven" unicode="7" 
d="M41 627h431l-385 -650l-43 25l341 573h-351z" />
    <glyph glyph-name="eight" unicode="8" 
d="M278 590c-60 0 -107 -52 -107 -119c0 -57 43 -105 96 -105c60 0 108 53 108 118c0 59 -43 106 -97 106zM237 310c-66 0 -125 -71 -125 -149c0 -64 53 -120 112 -120c69 0 126 59 126 130c0 77 -51 139 -113 139zM332 329c54 -48 77 -94 77 -156
c0 -101 -85 -190 -181 -190c-97 0 -173 79 -173 180c0 55 16 99 48 134c20 21 35 32 75 52c-43 39 -63 80 -63 135c0 88 75 163 162 163c85 0 156 -74 156 -164c0 -42 -15 -80 -44 -113c-17 -18 -28 -26 -57 -41z" />
    <glyph glyph-name="nine" unicode="9" 
d="M252 587c-91 0 -164 -75 -164 -168c0 -96 70 -171 161 -171c88 0 158 78 158 175c0 92 -67 164 -155 164zM202 -22l-38 26l141 203c-30 -7 -46 -9 -63 -9c-116 0 -210 99 -210 220c0 126 96 226 218 226c116 0 207 -96 207 -218c0 -51 -22 -112 -58 -165z" />
    <glyph glyph-name="colon" unicode=":" horiz-adv-x="271" 
d="M146 289c24 0 44 -19 44 -43s-20 -44 -44 -44s-43 20 -43 44s19 43 43 43zM119 82c23 0 43 -20 43 -43c0 -24 -20 -43 -43 -43c-24 0 -43 19 -43 43c0 23 19 43 43 43z" />
    <glyph glyph-name="semicolon" unicode=";" horiz-adv-x="271" 
d="M122 87l57 -23l-90 -175l-37 15zM154 291c24 0 44 -20 44 -44s-20 -43 -44 -43s-43 19 -43 43s19 44 43 44z" />
    <glyph glyph-name="semicolon" unicode="&#x37e;" horiz-adv-x="271" 
d="M122 87l57 -23l-90 -175l-37 15zM154 291c24 0 44 -20 44 -44s-20 -43 -44 -43s-43 19 -43 43s19 44 43 44z" />
    <glyph glyph-name="less" unicode="&#x3c;" horiz-adv-x="667" 
d="M597 76l-527 223v47l527 222v-57l-456 -189l456 -189v-57z" />
    <glyph glyph-name="equal" unicode="=" horiz-adv-x="667" 
d="M70 464h527v-53h-527v53zM70 236h527v-53h-527v53z" />
    <glyph glyph-name="greater" unicode="&#x3e;" horiz-adv-x="667" 
d="M70 568l527 -223v-47l-527 -222v57l457 188l-457 189v58z" />
    <glyph glyph-name="question" unicode="?" horiz-adv-x="374" 
d="M104 441h-52v17c0 99 58 166 145 166c76 0 138 -66 138 -149c0 -36 -17 -76 -43 -102c-20 -20 -43 -32 -89 -46c-44 -13 -51 -16 -76 -37c-17 -19 -24 -36 -24 -59c0 -42 25 -71 61 -71c43 0 72 29 82 82h51c-7 -51 -19 -77 -45 -101c-23 -20 -52 -31 -87 -31
c-68 0 -113 49 -113 122c0 38 12 67 36 91c22 23 46 36 96 51c72 23 100 52 100 103c0 53 -40 96 -89 96c-57 0 -91 -43 -91 -116v-16zM152 61c18 0 32 -15 32 -33s-14 -32 -32 -32s-33 14 -33 32s15 33 33 33z" />
    <glyph glyph-name="at" unicode="@" horiz-adv-x="800" 
d="M558 495h61l-83 -392l-4 -22c-1 -8 -2 -14 -2 -17c0 -12 9 -20 24 -20c27 0 64 19 95 48c60 56 96 142 96 226c0 108 -41 204 -111 259c-53 42 -129 64 -220 64c-217 0 -375 -165 -375 -391s155 -380 381 -380c94 0 174 21 238 63c39 25 56 42 94 90h50
c-40 -61 -61 -82 -111 -116c-75 -51 -167 -76 -278 -76c-245 0 -415 173 -415 423c0 121 44 233 122 311c79 79 177 116 308 116c216 0 358 -144 358 -363c0 -162 -125 -318 -254 -318c-38 0 -57 18 -57 54c0 8 1 20 4 34l-2 2c-29 -37 -44 -49 -79 -67
c-32 -17 -56 -23 -90 -23c-94 0 -165 90 -165 210c0 157 117 297 247 297c38 0 71 -10 100 -31c23 -17 33 -29 50 -63h2zM518 325c0 80 -52 139 -123 139c-52 0 -98 -25 -131 -74c-36 -53 -59 -125 -59 -185c0 -92 52 -159 123 -159c70 0 136 66 170 168c8 25 13 49 17 75
c2 18 3 30 3 36z" />
    <glyph glyph-name="A" unicode="A" horiz-adv-x="594" 
d="M356 520l-141 -262h217zM369 658l193 -658h-54l-62 207h-258l-111 -207h-59z" />
    <glyph glyph-name="B" unicode="B" 
d="M200 578l-28 -224l18 -1c15 0 25 -1 30 -1c56 0 89 12 118 41c28 30 42 60 42 93c0 61 -42 92 -122 92h-58zM165 303l-33 -252h76c82 0 121 10 151 39c22 21 38 58 38 88c0 47 -29 91 -72 109c-29 13 -56 15 -160 16zM154 629h95c118 0 182 -51 182 -143
c0 -42 -14 -81 -40 -112c-12 -15 -22 -23 -47 -39c30 -14 41 -22 57 -38c32 -32 48 -73 48 -119s-20 -94 -54 -127c-39 -38 -85 -51 -182 -51h-140z" />
    <glyph glyph-name="C" unicode="C" horiz-adv-x="594" 
d="M571 573l-20 -62c-62 54 -115 77 -180 77c-160 0 -269 -120 -269 -296c0 -66 33 -142 80 -188c42 -42 102 -64 170 -64c30 0 58 5 80 15c39 16 59 30 108 76l13 -66c-45 -38 -65 -50 -106 -65c-32 -12 -65 -18 -100 -18c-173 0 -303 137 -303 321c0 191 139 343 315 343
c53 0 100 -10 145 -32c24 -11 37 -19 67 -41z" />
    <glyph glyph-name="D" unicode="D" horiz-adv-x="594" 
d="M199 571l-67 -513h17c41 -1 62 -2 77 -2c45 0 69 2 97 8c38 7 74 27 101 55c54 56 84 140 84 237c0 63 -22 126 -57 161c-24 24 -63 43 -100 49c-26 4 -60 6 -101 6h-18c-14 -1 -18 -1 -33 -1zM155 629h153c68 0 141 -28 184 -71c47 -46 72 -118 72 -205
c0 -215 -118 -353 -302 -353h-190z" />
    <glyph glyph-name="E" unicode="E" 
d="M157 628h318l-7 -51h-264l-29 -221h264l-7 -52h-263l-33 -253h262l-6 -51h-317z" />
    <glyph glyph-name="F" unicode="F" horiz-adv-x="427" 
d="M150 628h293l-6 -51h-241l-29 -223h241l-7 -51h-241l-41 -303h-53z" />
    <glyph glyph-name="G" unicode="G" horiz-adv-x="646" 
d="M609 473l-53 -25c-16 38 -25 52 -44 72c-42 43 -101 69 -159 69c-147 0 -270 -129 -270 -283c0 -165 89 -267 234 -267c55 0 109 20 153 57c47 39 65 71 88 153h-199v51h262v-29c0 -67 -41 -151 -99 -206c-56 -53 -130 -83 -206 -83c-80 0 -152 28 -205 81
c-58 59 -84 133 -84 238c0 193 143 345 325 345c73 0 140 -27 193 -79c28 -26 40 -45 64 -94z" />
    <glyph glyph-name="H" unicode="H" horiz-adv-x="646" 
d="M159 628h53l-36 -261h332l35 261h53l-85 -628h-51l40 316h-331l-42 -316h-53z" />
    <glyph glyph-name="I" unicode="I" horiz-adv-x="271" 
d="M163 628h52l-81 -628h-53z" />
    <glyph glyph-name="J" unicode="J" horiz-adv-x="323" 
d="M247 628h52l-69 -534c-9 -70 -51 -112 -111 -112c-43 0 -77 21 -112 68l37 39c24 -37 50 -56 77 -56c35 0 51 24 59 84z" />
    <glyph glyph-name="K" unicode="K" horiz-adv-x="542" 
d="M139 628h52l-35 -265l2 -2l288 267h71l-318 -294l285 -334h-65l-269 316l-41 -316h-53z" />
    <glyph glyph-name="L" unicode="L" horiz-adv-x="375" 
d="M147 628h52l-76 -577h232l-8 -51h-284z" />
    <glyph glyph-name="M" unicode="M" horiz-adv-x="760" 
d="M185 655l191 -561l333 561l-32 -655h-47l20 460l-2 2l-284 -483l-171 509h-2l-122 -488h-48z" />
    <glyph glyph-name="N" unicode="N" horiz-adv-x="760" 
d="M151 656l453 -557l70 529h51l-85 -651l-453 559l-71 -536h-51z" />
    <glyph glyph-name="O" unicode="O" horiz-adv-x="646" 
d="M340 590c-64 0 -122 -24 -167 -70c-56 -55 -94 -145 -94 -220c0 -153 95 -262 228 -262c143 0 258 130 258 291c0 157 -90 261 -225 261zM339 646c82 -3 144 -27 195 -78c58 -58 90 -139 90 -227c0 -204 -135 -359 -313 -359c-172 0 -289 130 -289 321
c0 111 67 236 159 298c43 28 99 45 153 45h5z" />
    <glyph glyph-name="P" unicode="P" horiz-adv-x="427" 
d="M171 577l-31 -227c93 2 148 17 180 48c19 19 34 52 34 77c0 62 -41 102 -103 102h-80zM125 629h135c85 0 145 -62 145 -148c0 -72 -38 -129 -103 -156c-46 -19 -87 -26 -168 -29l-41 -296h-53z" />
    <glyph glyph-name="Q" unicode="Q" horiz-adv-x="646" 
d="M449 86l-100 105h73l65 -68c30 34 39 49 53 85c16 42 24 85 24 130c0 149 -92 252 -227 252c-62 0 -120 -24 -165 -70c-56 -57 -93 -143 -93 -218c0 -157 93 -263 230 -263c48 0 86 13 140 47zM527 78l100 -107h-72l-66 71c-41 -27 -59 -36 -91 -47
c-29 -9 -57 -13 -88 -13c-171 0 -289 130 -289 321c0 111 66 235 157 297c45 31 100 46 164 46c164 0 282 -131 282 -313c0 -49 -10 -99 -29 -146c-17 -44 -30 -64 -68 -109z" />
    <glyph glyph-name="R" unicode="R" horiz-adv-x="427" 
d="M170 578l-30 -228c108 6 147 16 181 48c23 22 34 48 34 79c0 26 -11 55 -28 72c-21 23 -46 29 -117 29h-40zM125 629h127c93 0 154 -60 154 -152c0 -67 -32 -118 -93 -147c-32 -15 -53 -20 -107 -26l165 -304h-55l-163 299h-19l-40 -299h-53z" />
    <glyph glyph-name="S" unicode="S" horiz-adv-x="427" 
d="M407 522l-58 -13c-23 53 -58 80 -105 80c-61 0 -109 -44 -109 -99c0 -27 14 -58 37 -81c13 -14 36 -31 73 -55c42 -26 48 -31 71 -52c44 -47 63 -91 63 -150c0 -96 -83 -170 -191 -170c-50 0 -100 23 -135 64c-19 22 -28 39 -44 82l54 21c16 -36 25 -50 44 -70
c25 -26 54 -40 84 -40c71 0 129 53 129 118c0 39 -15 74 -43 101c-11 11 -25 21 -59 43c-45 29 -61 41 -85 63c-40 42 -57 79 -57 126c0 89 73 156 171 156c72 0 125 -41 160 -124z" />
    <glyph glyph-name="T" unicode="T" 
d="M119 628h391l-8 -51h-179l-79 -577h-52l76 577h-158z" />
    <glyph glyph-name="U" unicode="U" horiz-adv-x="542" 
d="M125 628h51l-57 -429c-1 -10 -2 -21 -2 -31c0 -88 46 -134 133 -134c100 0 162 66 178 191l53 403h52l-52 -396c-12 -84 -34 -144 -70 -183c-41 -45 -96 -67 -164 -67c-110 0 -183 71 -183 176c0 17 2 39 10 94z" />
    <glyph glyph-name="V" unicode="V" horiz-adv-x="542" 
d="M88 628h51l119 -512l266 512h58l-342 -654z" />
    <glyph glyph-name="W" unicode="W" horiz-adv-x="969" 
d="M574 652l110 -516h2l252 492h62l-336 -655l-111 516h-2l-264 -512l-138 651h55l104 -490h2z" />
    <glyph glyph-name="X" unicode="X" 
d="M138 628h55l87 -241l157 241h59l-194 -299l120 -329h-51l-103 276l-179 -276h-59l217 334z" />
    <glyph glyph-name="Y" unicode="Y" horiz-adv-x="542" 
d="M511 628h60l-268 -353l-36 -275h-50l36 275l-159 354h50l138 -303z" />
    <glyph glyph-name="Z" unicode="Z" horiz-adv-x="542" 
d="M116 628h422l-416 -577h333l-7 -51h-425l416 577h-330z" />
    <glyph glyph-name="bracketleft" unicode="[" horiz-adv-x="323" 
d="M184 680h117l-6 -45h-75l-104 -771h74l-5 -44h-119z" />
    <glyph glyph-name="backslash" unicode="\" horiz-adv-x="323" 
d="M17 651h29l246 -831h-29z" />
    <glyph glyph-name="bracketright" unicode="]" horiz-adv-x="323" 
d="M149 681h119l-117 -861h-118l5 45h76l104 772h-74z" />
    <glyph glyph-name="asciicircum" unicode="^" horiz-adv-x="660" 
d="M330 728l219 -262l-32 -27l-187 226l-188 -226l-31 27z" />
    <glyph glyph-name="underscore" unicode="_" horiz-adv-x="500" 
d="M-7 -124v50h514v-50h-514z" />
    <glyph glyph-name="quoteleft" unicode="&#x2018;" horiz-adv-x="219" 
d="M163 631l33 -12c-22 -33 -33 -58 -46 -102h31l-15 -117h-68l14 106c3 27 26 81 51 125z" />
    <glyph glyph-name="a" unicode="a" 
d="M235 345c-78 0 -137 -71 -137 -163c0 -79 56 -140 128 -140c80 0 143 72 143 161c0 75 -63 142 -134 142zM375 297l11 86h47l-50 -383h-47l7 53l-2 2c-39 -42 -81 -61 -132 -61c-92 0 -163 83 -163 191c0 115 78 205 177 205c36 0 73 -14 105 -40c19 -14 28 -25 47 -53z
" />
    <glyph glyph-name="b" unicode="b" 
d="M264 341c-82 0 -145 -71 -145 -162c0 -77 62 -140 137 -140c76 0 136 74 136 170c0 71 -59 132 -128 132zM139 646h47l-42 -315l2 -2c43 45 77 61 131 61c93 0 166 -85 166 -195c0 -112 -80 -201 -179 -201c-37 0 -74 14 -107 40c-18 14 -27 24 -45 51l-11 -85h-46z" />
    <glyph glyph-name="c" unicode="c" horiz-adv-x="375" 
d="M318 77l-7 -60c-43 -18 -65 -23 -95 -23c-97 0 -174 85 -174 192c0 113 86 204 194 204c37 0 77 -11 118 -32l-7 -54c-51 25 -78 33 -114 33c-78 0 -140 -67 -140 -152c0 -77 56 -139 127 -139c32 0 55 7 98 31z" />
    <glyph glyph-name="d" unicode="d" 
d="M252 345c-81 0 -140 -70 -140 -164c0 -80 57 -139 133 -139c78 0 140 74 140 165c0 72 -64 138 -133 138zM437 646h44l-84 -646h-46l8 54l-2 2c-36 -42 -78 -62 -128 -62c-94 0 -168 83 -168 190c0 118 77 206 182 206c37 0 72 -13 102 -38c17 -14 26 -25 44 -53z" />
    <glyph glyph-name="e" unicode="e" horiz-adv-x="427" 
d="M89 225h244c-14 76 -58 120 -119 120c-57 0 -105 -46 -125 -120zM381 180h-295c3 -55 14 -84 39 -108c22 -22 52 -33 87 -33c45 0 83 22 118 69l38 -24c-18 -26 -27 -35 -44 -49c-34 -27 -74 -41 -114 -41c-103 0 -170 75 -170 193c0 110 81 203 177 203
c90 0 165 -86 165 -189c0 -5 0 -12 -1 -21z" />
    <glyph glyph-name="f" unicode="f" horiz-adv-x="271" 
d="M285 629l-8 -53c-15 14 -25 19 -36 19c-23 0 -42 -27 -47 -64l-21 -148h68l-6 -45h-68l-45 -338h-47l46 338h-50l6 45h50l22 158c9 64 43 105 87 105c18 0 31 -4 49 -17z" />
    <glyph glyph-name="g" unicode="g" 
d="M239 346c-80 0 -140 -65 -140 -152c0 -84 54 -143 129 -143c79 0 143 69 143 155c0 75 -61 140 -132 140zM372 310l9 73h47l-48 -373c-11 -81 -23 -115 -55 -146c-33 -31 -81 -49 -135 -49c-63 0 -112 28 -141 81c-12 22 -17 39 -24 78h52c19 -78 51 -108 117 -108
c56 0 101 26 122 72c12 28 18 54 24 115l-2 2c-35 -37 -75 -55 -118 -55c-96 0 -172 85 -172 194s77 196 174 196c61 0 105 -24 150 -80z" />
    <glyph glyph-name="h" unicode="h" horiz-adv-x="425" 
d="M137 646h46l-41 -308l2 -2c38 38 70 54 110 54c65 0 103 -42 103 -111c0 -9 -1 -17 -2 -25l-34 -254h-45l34 264c1 5 1 10 1 15c0 44 -24 70 -66 70c-57 0 -107 -41 -114 -92l-34 -257h-46z" />
    <glyph glyph-name="i" unicode="i" horiz-adv-x="219" 
d="M108 383h47l-50 -383h-46zM151 579c21 0 37 -17 37 -37c0 -21 -16 -38 -36 -38c-21 0 -38 17 -38 38s17 37 37 37z" />
    <glyph glyph-name="j" unicode="j" horiz-adv-x="219" 
d="M113 383h47l-75 -568h-45zM158 578c20 0 37 -17 37 -37s-17 -37 -37 -37c-21 0 -37 17 -37 37s16 37 37 37z" />
    <glyph glyph-name="k" unicode="k" horiz-adv-x="375" 
d="M138 646h46l-53 -413l2 -2l157 152h61l-179 -173l181 -210h-56l-170 198l-27 -198h-47z" />
    <glyph glyph-name="l" unicode="l" horiz-adv-x="219" 
d="M143 646h48l-87 -646h-45z" />
    <glyph glyph-name="m" unicode="m" horiz-adv-x="592" 
d="M149 383l-5 -42c42 38 65 49 106 49c39 0 64 -20 81 -64c38 44 74 64 113 64c54 0 88 -41 88 -106c0 -8 0 -16 -1 -24l-35 -260h-47l37 281v8c0 35 -25 62 -58 62c-45 0 -87 -37 -93 -84l-38 -267h-46l37 272c0 5 1 10 1 15c0 40 -23 65 -60 65c-52 0 -89 -40 -98 -107
l-33 -245h-45l50 383h46z" />
    <glyph glyph-name="n" unicode="n" horiz-adv-x="426" 
d="M149 383l-6 -46c44 40 73 53 117 53c56 0 97 -45 97 -106c0 -6 0 -12 -1 -18l-35 -266h-45l35 274c1 4 1 7 1 11c0 40 -27 65 -69 65c-59 0 -104 -43 -112 -106l-33 -244h-46l50 383h47z" />
    <glyph glyph-name="o" unicode="o" horiz-adv-x="427" 
d="M223 344c-89 0 -159 -70 -159 -159c0 -83 63 -146 147 -146c82 0 152 71 152 153c0 87 -60 152 -140 152zM217 390c107 0 192 -83 192 -187c0 -118 -87 -209 -198 -209c-110 0 -193 84 -193 194c0 109 91 202 199 202z" />
    <glyph glyph-name="p" unicode="p" 
d="M264 343c-83 0 -145 -68 -145 -158c0 -79 60 -146 128 -146c80 0 143 71 143 161c0 81 -55 143 -126 143zM112 85l-35 -270h-46l75 568h46l-7 -46l2 -2c42 40 76 55 129 55c92 0 165 -84 165 -189c0 -118 -77 -207 -179 -207c-38 0 -76 15 -108 42c-17 14 -25 23 -40 49
h-2z" />
    <glyph glyph-name="q" unicode="q" 
d="M255 343c-80 0 -145 -69 -145 -155c0 -88 52 -148 128 -148c82 0 143 72 143 167c0 72 -60 136 -126 136zM384 303l11 81h46l-75 -568h-45l30 233c-43 -38 -82 -54 -127 -54c-93 0 -165 83 -165 192c0 110 83 203 182 203c53 0 103 -30 143 -87z" />
    <glyph glyph-name="r" unicode="r" horiz-adv-x="271" 
d="M140 383l-6 -46l2 -2c32 39 61 55 98 55c13 0 29 -4 52 -14l-16 -48c-25 10 -37 13 -53 13c-52 0 -88 -43 -98 -115l-31 -226h-46l52 383h46z" />
    <glyph glyph-name="s" unicode="s" horiz-adv-x="323" 
d="M290 350l-23 -38c-26 21 -55 33 -78 33c-39 0 -64 -22 -64 -58c0 -26 15 -41 61 -63c69 -34 94 -64 94 -115c0 -61 -52 -115 -113 -115c-48 0 -90 24 -136 78l29 34c43 -48 72 -67 105 -67c38 0 70 32 70 72c0 29 -22 50 -74 75c-57 27 -81 58 -81 102
c0 58 46 102 107 102c36 0 72 -14 103 -40z" />
    <glyph glyph-name="t" unicode="t" horiz-adv-x="219" 
d="M113 521h47l-18 -138h59l-7 -45h-58l-45 -338h-46l44 338h-50l5 45h51z" />
    <glyph glyph-name="u" unicode="u" horiz-adv-x="425" 
d="M93 383h47l-29 -218c-1 -10 -1 -19 -1 -29c0 -65 26 -97 79 -97c62 0 90 39 104 144l26 200h46l-27 -211c-16 -123 -63 -178 -153 -178c-76 0 -122 53 -122 141c0 11 1 21 2 31z" />
    <glyph glyph-name="v" unicode="v" horiz-adv-x="375" 
d="M42 383h46l83 -275l132 275h49l-191 -394z" />
    <glyph glyph-name="w" unicode="w" horiz-adv-x="646" 
d="M338 396l108 -297l138 284h48l-192 -394l-108 296l-144 -297l-144 395h45l104 -285z" />
    <glyph glyph-name="x" unicode="x" horiz-adv-x="375" 
d="M63 383h52l84 -143l115 143h56l-146 -182l121 -201h-52l-98 165l-132 -165h-57l165 204z" />
    <glyph glyph-name="y" unicode="y" horiz-adv-x="375" 
d="M37 383h47l115 -278l129 278h49l-265 -568h-49l111 236z" />
    <glyph glyph-name="z" unicode="z" horiz-adv-x="427" 
d="M70 383h336l-292 -338h251l-5 -45h-345l293 338h-245z" />
    <glyph glyph-name="braceleft" unicode="{" horiz-adv-x="333" 
d="M286 720v-56c-50 -1 -68 -9 -77 -34c-8 -24 -11 -55 -11 -133v-11c0 -111 -4 -134 -29 -177c-17 -29 -30 -41 -68 -59c39 -18 54 -30 69 -58c24 -44 28 -67 28 -166v-23v-20c0 -132 6 -143 88 -147v-55h-14c-32 0 -49 4 -69 16c-45 26 -60 67 -60 156v97
c0 81 -8 118 -33 145c-16 17 -30 23 -61 23v64c29 1 41 6 57 23c29 30 37 61 37 146v52c0 87 1 101 11 135c7 25 24 47 47 62c22 15 40 20 68 20h17z" />
    <glyph glyph-name="bar" unicode="|" horiz-adv-x="510" 
d="M228 696h54v-831h-54v831z" />
    <glyph glyph-name="braceright" unicode="}" horiz-adv-x="333" 
d="M47 -219v56c51 1 68 9 77 35c9 23 11 54 11 132v11c0 112 4 134 29 177c17 29 30 41 68 59c-39 18 -54 30 -69 58c-24 44 -28 67 -28 166v23v20c0 132 -6 143 -88 147v55h14c32 0 49 -4 69 -16c45 -26 60 -67 60 -156v-97c0 -81 8 -118 33 -145c16 -17 30 -22 61 -23v-64
c-29 -1 -41 -6 -57 -23c-29 -30 -37 -61 -37 -146v-52c0 -87 -1 -101 -11 -134c-7 -25 -24 -48 -47 -63c-22 -15 -40 -20 -68 -20h-17z" />
    <glyph glyph-name="asciitilde" unicode="~" horiz-adv-x="656" 
d="M590 406v-60c-54 -42 -96 -61 -135 -61c-42 0 -65 8 -158 52c-41 19 -68 28 -90 28c-42 0 -83 -20 -141 -66v59c48 38 99 59 143 59c33 0 63 -9 140 -46c51 -24 78 -33 101 -33c45 0 82 19 140 68z" />
    <glyph glyph-name="exclamdown" unicode="&#xa1;" horiz-adv-x="323" 
d="M189 546c18 0 33 -14 33 -33c0 -18 -15 -33 -33 -33s-33 15 -33 33c0 19 15 33 33 33zM160 419h45l-67 -501h-46z" />
    <glyph glyph-name="cent" unicode="&#xa2;" horiz-adv-x="375" 
d="M154 67l81 271c-43 -3 -68 -13 -95 -40c-28 -29 -46 -70 -46 -109c0 -52 19 -91 60 -122zM308 581h38l-58 -198c22 -6 35 -11 68 -25l-7 -53c-36 18 -53 24 -75 30l-85 -286c17 -3 25 -4 36 -4c27 0 50 7 95 30l-7 -58c-44 -17 -65 -22 -94 -22c-13 0 -23 1 -45 4
l-52 -174h-39l56 190c-29 21 -40 31 -54 49c-27 35 -39 74 -39 124c0 56 22 108 62 147c39 38 69 49 143 53z" />
    <glyph glyph-name="sterling" unicode="&#xa3;" 
d="M161 83c-28 18 -40 23 -54 23c-25 0 -40 -13 -40 -36c0 -21 13 -34 36 -34c19 0 39 16 58 47zM454 481l-59 14c1 8 1 15 1 21c0 48 -29 81 -70 81c-45 0 -75 -49 -75 -122c0 -41 3 -80 10 -118h137l-9 -49h-122v-27c0 -65 -11 -120 -36 -179c76 -50 95 -61 114 -61
c34 0 49 24 66 104l60 10c-11 -74 -28 -120 -55 -146c-15 -15 -44 -26 -65 -26c-28 0 -48 9 -108 48c-6 3 -11 7 -17 10l-19 12c-36 -51 -65 -70 -107 -70c-50 0 -83 37 -83 93c0 46 41 83 92 83c22 0 40 -7 75 -27c18 45 25 82 25 137c0 12 0 20 -1 39h-142l9 49h126
c0 10 -1 18 -2 23c-5 52 -7 89 -7 109c0 94 58 162 138 162c72 0 125 -59 125 -140c0 -9 -1 -19 -1 -30z" />
    <glyph glyph-name="fraction" unicode="&#x2044;" horiz-adv-x="156" 
d="M291 651h39l-537 -669h-42z" />
    <glyph glyph-name="fraction" unicode="&#x2215;" horiz-adv-x="156" 
d="M291 651h39l-537 -669h-42z" />
    <glyph glyph-name="yen" unicode="&#xa5;" horiz-adv-x="542" 
d="M219 481h189l112 149h60l-112 -149h75l-6 -39h-99l-98 -128h173l-6 -39h-196l-36 -275h-50l35 275h-196l6 39h173l-58 128h-91l6 39h68l-66 147h50zM378 442h-141l53 -117z" />
    <glyph glyph-name="florin" unicode="&#x192;" horiz-adv-x="556" 
d="M359 518h109l-11 -44h-107l-121 -557c-9 -40 -20 -68 -34 -87c-20 -25 -56 -40 -99 -40c-29 0 -50 3 -89 15l11 49c31 -8 50 -11 70 -11c41 0 67 17 74 49l126 582h-82l9 44h82l13 52c2 11 4 20 6 28c17 73 35 101 77 119c17 7 37 11 56 11c24 0 38 -2 90 -16l-10 -48
c-28 7 -51 10 -74 10c-45 0 -60 -15 -77 -79l-7 -23z" />
    <glyph glyph-name="section" unicode="&#xa7;" horiz-adv-x="406" 
d="M248 356c-83 -28 -119 -61 -119 -112c0 -41 18 -71 83 -138c78 23 119 62 119 116c0 38 -27 81 -83 134zM397 502h-38c1 11 2 21 2 30c0 48 -34 78 -88 78c-48 0 -89 -38 -89 -83c0 -38 17 -64 79 -124c4 -4 8 -8 13 -12l13 -13c46 -48 61 -69 76 -103
c7 -17 10 -33 10 -52c0 -40 -18 -77 -51 -104c-22 -19 -40 -27 -84 -40c7 -8 9 -10 16 -18c50 -55 62 -76 64 -119c-4 -81 -54 -127 -139 -127c-78 0 -119 40 -119 117c0 5 1 13 2 25h38c-1 -9 -1 -17 -1 -23c0 -53 30 -83 84 -83c53 0 92 36 92 85c0 36 -13 56 -78 120
l-19 18c-36 37 -48 52 -66 80s-29 58 -29 83c0 43 17 79 49 105c24 19 41 26 88 39c-65 66 -82 96 -82 143c0 72 55 121 135 121c77 0 124 -39 124 -104c0 -12 0 -25 -2 -39z" />
    <glyph glyph-name="currency" unicode="&#xa4;" horiz-adv-x="667" 
d="M100 518l36 37l63 -62c50 39 74 47 140 47c54 0 80 -9 130 -47l61 62l36 -37l-61 -61c38 -53 47 -78 47 -139c0 -59 -9 -84 -47 -131l61 -62l-36 -36l-61 62c-51 -39 -77 -48 -136 -48c-62 0 -86 9 -134 48l-63 -62l-36 36l62 62c-38 57 -46 82 -46 138s9 81 46 132z
M168 322c0 -93 73 -167 164 -167c93 0 168 74 168 166c0 93 -74 167 -165 167c-92 0 -167 -74 -167 -166z" />
    <glyph glyph-name="quotesingle" unicode="'" horiz-adv-x="222" 
d="M189 716h72l-25 -117l-40 -131h-45l13 131z" />
    <glyph glyph-name="quotedblleft" unicode="&#x201c;" horiz-adv-x="375" 
d="M163 628l27 -14l-6 -12c-23 -45 -28 -56 -35 -87h30l-16 -118h-67l12 86c8 57 25 102 55 145zM326 628l29 -15c-28 -47 -36 -65 -42 -99h29l-16 -117h-66l13 95c6 51 22 91 53 136z" />
    <glyph glyph-name="guillemotleft" unicode="&#xab;" horiz-adv-x="375" 
d="M311 492h51l-122 -227l59 -216h-45l-61 221zM133 491h48l-120 -226l59 -216h-45l-61 220z" />
    <glyph glyph-name="guilsinglleft" unicode="&#x2039;" horiz-adv-x="198" 
d="M134 492h50l-122 -228l60 -215h-45l-61 221z" />
    <glyph glyph-name="guilsinglright" unicode="&#x203a;" horiz-adv-x="198" 
d="M75 492h46l60 -220l-119 -222h-49l120 226z" />
    <glyph glyph-name="endash" unicode="&#x2013;" horiz-adv-x="500" 
d="M-8 276h516v-46h-516v46z" />
    <glyph glyph-name="dagger" unicode="&#x2020;" horiz-adv-x="385" 
d="M174 91l4 97c3 71 10 106 31 169c10 30 11 33 15 53c-16 -1 -20 -1 -45 -6c-21 -5 -34 -7 -44 -7c-24 0 -40 9 -40 23c0 17 13 26 38 26c7 0 19 -2 40 -7c28 -6 39 -7 56 -8c3 10 3 13 3 39c0 20 0 43 -2 69c0 11 -1 23 -1 27c0 45 13 71 34 71c17 0 26 -12 26 -33
c0 -16 -5 -34 -17 -70c-16 -45 -20 -59 -28 -103c21 1 25 2 50 8c21 6 34 8 44 8c23 0 38 -10 38 -24c0 -16 -16 -26 -40 -26c-11 0 -25 2 -46 7c-26 5 -30 6 -47 6c-1 -6 -1 -11 -1 -14c0 -12 1 -29 4 -56c1 -18 2 -27 2 -33c0 -18 -7 -54 -21 -112
c-26 -108 -37 -167 -57 -315h-21c13 85 23 166 25 211z" />
    <glyph glyph-name="daggerdbl" unicode="&#x2021;" horiz-adv-x="385" 
d="M243 483c13 0 28 2 56 8c20 4 33 6 39 6c21 0 38 -11 38 -25s-15 -24 -37 -24c-11 0 -23 1 -48 7c-23 4 -35 6 -43 6h-7v-6c0 -8 1 -19 4 -38c2 -14 4 -23 4 -28c0 -16 -4 -27 -16 -57c-18 -41 -23 -63 -23 -97c0 -10 1 -25 3 -49c2 -16 3 -26 3 -30
c0 -19 -8 -42 -23 -67c-9 -15 -9 -17 -10 -26c14 1 16 1 47 7c23 4 40 6 48 6c21 0 33 -8 33 -24s-13 -25 -38 -25c-11 0 -24 2 -44 7c-27 6 -31 7 -49 7c-1 -11 -1 -16 -1 -22c0 -11 1 -26 3 -48c3 -20 4 -29 4 -36c0 -30 -15 -52 -35 -52c-15 0 -23 12 -23 34
c0 14 4 28 16 59c14 34 17 46 18 64h-8c-8 0 -22 -2 -46 -7c-23 -4 -35 -6 -43 -6c-20 0 -35 11 -35 25c0 15 15 25 36 25c7 0 20 -2 39 -6c30 -6 40 -7 58 -8v11c0 9 0 17 -3 34c-2 14 -3 21 -3 27c0 18 4 31 17 62c16 38 21 57 21 84c0 16 -1 29 -4 54c-1 12 -2 20 -2 24
c0 23 8 50 23 77c7 15 8 17 9 25c-19 -1 -28 -2 -55 -8c-20 -4 -29 -5 -36 -5c-25 0 -39 8 -39 24s15 27 36 27c12 0 26 -2 50 -9c26 -7 30 -8 48 -8c1 12 1 17 1 24c0 11 -1 26 -4 50c-2 15 -3 24 -3 30c0 32 15 55 34 55c15 0 26 -13 26 -33c0 -15 -3 -28 -15 -57
c-13 -31 -16 -39 -21 -68z" />
    <glyph glyph-name="periodcentered" unicode="&#xb7;" horiz-adv-x="219" 
d="M112 354c22 0 41 -18 41 -40c0 -23 -19 -41 -41 -41c-23 0 -41 18 -41 41c0 22 18 40 41 40z" />
    <glyph glyph-name="periodcentered" unicode="&#x2219;" horiz-adv-x="219" 
d="M112 354c22 0 41 -18 41 -40c0 -23 -19 -41 -41 -41c-23 0 -41 18 -41 41c0 22 18 40 41 40z" />
    <glyph glyph-name="paragraph" unicode="&#xb6;" horiz-adv-x="650" 
d="M621 716v-68h-96v-848h-62v848h-130v-848h-64v505h-5c-130 0 -215 81 -215 207c0 124 92 204 234 204h338z" />
    <glyph glyph-name="bullet" unicode="&#x2022;" horiz-adv-x="500" 
d="M372 349c0 -67 -55 -122 -122 -122s-122 56 -122 124c0 67 55 121 122 121s122 -55 122 -123z" />
    <glyph glyph-name="quotesinglbase" unicode="&#x201a;" horiz-adv-x="219" 
d="M148 103l54 -30l-102 -172l-33 16z" />
    <glyph glyph-name="quotedblbase" unicode="&#x201e;" horiz-adv-x="375" 
d="M220 119h68l-13 -103c-6 -42 -24 -87 -53 -129l-27 16c1 3 1 3 4 8c22 36 30 58 37 90h-31zM57 119h67l-13 -104c-5 -42 -24 -87 -52 -128l-30 16c24 37 33 59 42 98h-29z" />
    <glyph glyph-name="quotedblright" unicode="&#x201d;" horiz-adv-x="375" 
d="M290 628h67l-13 -94c-6 -47 -26 -98 -54 -137l-28 14c29 49 36 68 42 99h-30zM127 627h66l-15 -110c-5 -39 -23 -81 -51 -120l-29 15c26 42 36 67 42 98h-29z" />
    <glyph glyph-name="guillemotright" unicode="&#xbb;" horiz-adv-x="375" 
d="M252 492h45l62 -220l-120 -222h-49l121 226zM73 492h45l60 -220l-117 -223h-50l121 227z" />
    <glyph glyph-name="ellipsis" unicode="&#x2026;" horiz-adv-x="1000" 
d="M167 68c23 0 41 -19 41 -41c0 -23 -18 -41 -41 -41c-22 0 -40 18 -40 41c0 22 18 41 40 41zM500 70c22 0 41 -18 41 -41c0 -22 -19 -41 -41 -41c-23 0 -41 19 -41 41c0 23 18 41 41 41zM833 71c22 0 41 -18 41 -40c0 -23 -19 -41 -41 -41c-23 0 -41 18 -41 41
c0 22 18 40 41 40z" />
    <glyph glyph-name="perthousand" unicode="&#x2030;" horiz-adv-x="906" 
d="M756 254c-60 0 -100 -59 -100 -150c0 -67 29 -105 78 -105c59 0 98 59 98 147c0 71 -26 108 -76 108zM756 293c71 0 117 -54 117 -137c0 -121 -55 -196 -141 -196c-70 0 -117 55 -117 137c0 121 54 196 141 196zM460 254c-61 0 -100 -59 -100 -150c0 -67 28 -105 78 -105
c58 0 98 59 98 147c0 71 -27 108 -76 108zM460 293c71 0 116 -54 116 -137c0 -121 -54 -197 -140 -197c-70 0 -117 56 -117 138c0 121 54 196 141 196zM180 609c-60 0 -99 -60 -99 -151c0 -66 28 -104 78 -104c58 0 98 59 98 146c0 71 -27 109 -77 109zM181 648
c71 0 116 -54 116 -137c0 -121 -54 -197 -140 -197c-70 0 -117 56 -117 138c0 120 54 196 141 196zM513 645h43l-451 -683h-48z" />
    <glyph glyph-name="questiondown" unicode="&#xbf;" horiz-adv-x="364" 
d="M108 300h-51c7 49 19 76 45 100c23 21 53 32 87 32c68 0 113 -49 113 -123c0 -37 -13 -68 -37 -92c-20 -20 -45 -33 -92 -48c-45 -14 -52 -18 -76 -38c-17 -19 -26 -42 -26 -65c0 -55 39 -97 89 -97c58 0 91 43 91 120v13h51v-14c0 -107 -55 -171 -146 -171
c-74 0 -136 67 -136 148c0 40 16 78 44 106c19 19 41 30 85 43c46 14 53 18 79 40c17 18 24 34 24 58c0 38 -29 70 -63 70c-40 0 -69 -29 -81 -82zM202 546c18 0 32 -14 32 -32s-14 -32 -32 -32c-17 0 -32 14 -32 32s14 32 32 32z" />
    <glyph glyph-name="grave" unicode="`" horiz-adv-x="333" 
d="M92 654h85l95 -148h-30z" />
    <glyph glyph-name="acute" unicode="&#xb4;" horiz-adv-x="333" 
d="M245 654h86l-153 -150h-31z" />
    <glyph glyph-name="circumflex" unicode="&#x2c6;" horiz-adv-x="333" 
d="M250 676h53l8 -189h-32l-20 126l-143 -126h-36z" />
    <glyph glyph-name="tilde" unicode="&#x2dc;" horiz-adv-x="333" 
d="M90 488h-31c2 61 28 93 75 93c19 0 46 -7 88 -25c33 -13 53 -19 65 -19c27 0 42 15 44 44h29v-8c0 -50 -29 -84 -73 -84c-23 0 -48 7 -92 25c-35 14 -53 20 -68 20c-22 0 -35 -15 -37 -46z" />
    <glyph glyph-name="macron" unicode="&#xaf;" horiz-adv-x="333" 
d="M11 562h293l-12 -55h-293z" />
    <glyph glyph-name="macron" unicode="&#x2c9;" horiz-adv-x="333" 
d="M11 562h293l-12 -55h-293z" />
    <glyph glyph-name="breve" unicode="&#x2d8;" horiz-adv-x="333" 
d="M96 601h38c5 -54 26 -80 63 -80c36 0 64 23 101 80h34c-24 -63 -48 -93 -88 -111c-14 -6 -28 -9 -43 -9c-62 0 -97 41 -105 120z" />
    <glyph glyph-name="dotaccent" unicode="&#x2d9;" horiz-adv-x="333" 
d="M261 578c26 0 47 -23 47 -51c0 -24 -21 -43 -47 -43s-47 20 -47 46c0 27 21 48 47 48z" />
    <glyph glyph-name="dieresis" unicode="&#xa8;" horiz-adv-x="333" 
d="M112 563c22 0 40 -18 40 -40c0 -21 -17 -38 -38 -38c-22 0 -40 17 -40 39c0 21 17 39 38 39zM291 563c22 0 39 -18 39 -40c0 -21 -17 -38 -37 -38c-23 0 -41 17 -41 39s18 39 39 39z" />
    <glyph glyph-name="ring" unicode="&#x2da;" horiz-adv-x="333" 
d="M208 655c49 0 89 -39 89 -88c0 -50 -40 -89 -89 -89s-89 40 -89 89s40 88 89 88zM208 625c-32 0 -58 -26 -58 -58s26 -58 58 -58s58 26 58 58s-26 58 -58 58z" />
    <glyph glyph-name="cedilla" unicode="&#xb8;" horiz-adv-x="333" 
d="M-4 -187l14 30c21 -4 29 -5 51 -5c70 0 106 18 106 51c0 25 -20 39 -54 39c-7 0 -11 -1 -21 -2l31 84h33l-20 -57c7 1 12 1 16 1c40 0 64 -23 64 -60c0 -55 -54 -88 -142 -88c-29 0 -42 1 -78 7z" />
    <glyph glyph-name="hungarumlaut" unicode="&#x2dd;" horiz-adv-x="333" 
d="M245 654h86l-153 -150h-31zM390 654h86l-153 -150h-31z" />
    <glyph glyph-name="ogonek" unicode="&#x2db;" horiz-adv-x="333" 
d="M32 9h46c-16 -38 -24 -69 -24 -100c0 -37 22 -58 58 -58c26 0 55 7 88 22l-11 -48c-39 -15 -72 -22 -101 -22c-53 0 -86 33 -86 84c0 37 6 62 30 122z" />
    <glyph glyph-name="caron" unicode="&#x2c7;" horiz-adv-x="333" 
d="M163 677h29l30 -128l97 127h31l-119 -190h-48z" />
    <glyph glyph-name="emdash" unicode="&#x2014;" horiz-adv-x="1000" 
d="M-8 276h1015v-46h-1015v46z" />
    <glyph glyph-name="AE" unicode="&#xc6;" horiz-adv-x="760" 
d="M434 575l-200 -318h157l45 316zM405 628h338l-8 -53h-247l-32 -222h248l-7 -52h-247l-36 -251h248l-7 -50h-301l29 205h-182l-130 -205h-63z" />
    <glyph glyph-name="ordfeminine" unicode="&#xaa;" horiz-adv-x="313" 
d="M166 617c-51 0 -90 -44 -90 -103c0 -55 35 -95 85 -95c51 0 91 47 91 106c0 49 -40 92 -86 92zM258 589l7 53h29l-32 -249h-31l5 32c-39 -28 -58 -36 -88 -36c-60 0 -105 55 -105 127c0 73 50 130 114 130c37 0 68 -17 101 -57z" />
    <glyph glyph-name="Lslash" unicode="&#x141;" horiz-adv-x="375" 
d="M154 628h53l-32 -241l107 90l-8 -65l-108 -91l-36 -269h232l-8 -52h-284l37 272l-68 -58l8 66l68 57z" />
    <glyph glyph-name="Oslash" unicode="&#xd8;" horiz-adv-x="646" 
d="M137 116l356 410c-48 44 -94 62 -159 62c-101 0 -186 -64 -231 -172c-17 -43 -25 -81 -25 -121c0 -32 6 -68 16 -98c10 -31 18 -46 43 -81zM525 485l-351 -403c42 -30 87 -44 137 -44c141 0 254 132 254 297c0 56 -12 100 -40 150zM530 569l57 64l39 -32l-63 -72
c25 -40 34 -58 44 -90c9 -32 14 -66 14 -107c0 -195 -139 -351 -313 -351c-62 0 -113 17 -172 57l-63 -72l-38 33l65 74c-29 36 -39 52 -53 90c-17 44 -25 90 -25 138c0 91 43 192 109 257c57 57 127 87 205 87c39 0 75 -7 108 -20c34 -14 51 -24 86 -56z" />
    <glyph glyph-name="OE" unicode="&#x152;" horiz-adv-x="760" 
d="M356 49l70 528h-47c-93 0 -168 -26 -213 -72c-52 -54 -85 -143 -85 -230c0 -146 80 -226 227 -226h48zM745 627l-6 -49h-263l-29 -224h262l-6 -51h-263l-34 -253h263l-6 -50h-387c-151 0 -250 111 -250 281c0 207 136 346 339 346h380z" />
    <glyph glyph-name="ordmasculine" unicode="&#xba;" horiz-adv-x="281" 
d="M148 646c68 0 124 -56 124 -123c0 -76 -57 -134 -130 -134c-70 0 -125 54 -125 122c0 76 58 135 131 135zM150 616c-56 0 -103 -45 -103 -99c0 -58 40 -99 95 -99s100 45 100 99c0 58 -39 99 -92 99z" />
    <glyph glyph-name="ae" unicode="&#xe6;" horiz-adv-x="760" 
d="M418 223h247c-11 49 -25 75 -52 98c-20 16 -43 25 -67 25c-60 0 -113 -52 -128 -123zM241 346c-78 0 -141 -72 -141 -161c0 -84 55 -144 132 -144c78 0 143 72 143 158c0 81 -60 147 -134 147zM711 179h-298c5 -56 16 -84 41 -108c21 -21 51 -32 87 -32
c47 0 81 20 118 67l38 -24c-30 -38 -45 -51 -78 -68c-25 -13 -52 -20 -80 -20c-62 0 -112 27 -140 76h-2l-10 -70h-43l5 52c-50 -42 -86 -59 -135 -59c-93 0 -164 85 -164 195c0 113 79 200 180 200c35 0 67 -10 96 -32c20 -14 31 -25 57 -56l9 84h46l-5 -42
c44 37 72 49 113 49c64 0 124 -46 150 -113c11 -29 14 -50 15 -99z" />
    <glyph glyph-name="dotlessi" unicode="&#x131;" horiz-adv-x="219" 
d="M108 383h47l-50 -383h-46z" />
    <glyph glyph-name="lslash" unicode="&#x142;" horiz-adv-x="219" 
d="M151 648h47l-34 -259l61 52l-8 -64l-62 -53l-43 -324h-46l37 280l-60 -51l7 64l62 53z" />
    <glyph glyph-name="oslash" unicode="&#xf8;" horiz-adv-x="427" 
d="M97 93l201 230c-34 16 -52 21 -80 21c-85 0 -154 -70 -154 -155c0 -41 5 -58 33 -96zM330 292l-201 -231c33 -16 50 -21 78 -21c87 0 156 69 156 157c0 32 -7 52 -33 95zM376 412l33 -30l-49 -55c34 -47 47 -82 47 -133c0 -110 -90 -198 -202 -198c-38 0 -62 7 -106 32
l-47 -54l-34 28l49 56c-35 45 -48 80 -48 136c0 105 93 195 200 195c38 0 63 -7 108 -32z" />
    <glyph glyph-name="oe" unicode="&#x153;" horiz-adv-x="760" 
d="M421 225h246c-9 46 -22 70 -48 93c-20 17 -45 26 -70 26c-35 0 -67 -16 -93 -47c-18 -21 -25 -35 -35 -72zM230 344c-85 0 -156 -73 -156 -159c0 -88 61 -149 149 -149c82 0 154 74 154 158c0 85 -63 150 -147 150zM662 107l38 -25c-40 -57 -94 -87 -154 -87
c-48 0 -88 14 -118 42c-15 15 -23 25 -37 51c-29 -40 -45 -54 -78 -72c-29 -15 -61 -23 -93 -23c-110 0 -191 82 -191 192c0 111 92 203 205 203c71 0 123 -32 164 -98c24 37 36 50 56 67c28 22 58 32 95 32c65 0 119 -39 147 -107c12 -30 16 -51 19 -101h-297
c2 -90 47 -143 123 -143c50 0 89 22 121 69z" />
    <glyph glyph-name="germandbls" unicode="&#xdf;" 
d="M68 1l60 461c15 116 80 184 177 184c93 0 153 -56 153 -140c0 -44 -14 -85 -40 -116c-24 -28 -45 -40 -100 -52v-2c42 -9 57 -15 78 -31c30 -23 46 -60 46 -110c0 -119 -75 -200 -185 -200c-31 0 -50 5 -87 23l5 40c34 -15 52 -19 81 -19c84 0 138 63 138 160
c0 73 -48 116 -128 116c-8 0 -18 0 -28 -1l6 41h7c58 0 89 10 117 36c27 26 41 64 41 111c0 59 -42 102 -101 102c-73 0 -124 -50 -135 -133l-60 -470h-45z" />
    <glyph glyph-name="onesuperior" unicode="&#xb9;" horiz-adv-x="323" 
d="M127 642h81l-51 -399h-36l46 363h-66z" />
    <glyph glyph-name="logicalnot" unicode="&#xac;" horiz-adv-x="667" 
d="M69 468h528v-291h-52v238h-476v53z" />
    <glyph glyph-name="mu" unicode="&#xb5;" horiz-adv-x="556" 
d="M152 518h60l-72 -335c-4 -17 -6 -33 -6 -47c0 -54 37 -91 90 -91c104 0 187 92 221 244l50 229h61l-111 -518h-61l20 94l-2 2c-44 -58 -69 -77 -123 -96c-21 -8 -44 -12 -67 -12c-42 0 -71 17 -102 57l-53 -243h-59z" />
    <glyph glyph-name="mu" unicode="&#x3bc;" horiz-adv-x="556" 
d="M152 518h60l-72 -335c-4 -17 -6 -33 -6 -47c0 -54 37 -91 90 -91c104 0 187 92 221 244l50 229h61l-111 -518h-61l20 94l-2 2c-44 -58 -69 -77 -123 -96c-21 -8 -44 -12 -67 -12c-42 0 -71 17 -102 57l-53 -243h-59z" />
    <glyph glyph-name="trademark" unicode="&#x2122;" horiz-adv-x="940" 
d="M100 716h310v-43h-131v-356h-49v356h-130v43zM456 716h75l99 -319h2l103 319h75v-399h-44v356h-2l-117 -356h-34l-110 356h-2v-356h-45v399z" />
    <glyph glyph-name="Eth" unicode="&#xd0;" horiz-adv-x="594" 
d="M207 572l-29 -234h151l-6 -50h-152l-32 -231h113c79 0 136 19 176 59c55 55 86 139 86 234c0 146 -73 222 -213 222h-94zM162 628h161c62 0 137 -29 178 -70c44 -44 70 -120 70 -205c0 -215 -118 -353 -302 -353h-190l38 288h-75l7 50h75z" />
    <glyph glyph-name="onehalf" unicode="&#xbd;" horiz-adv-x="802" 
d="M115 642h80l-53 -399h-37l49 363h-66zM519 30h183l-4 -37h-267l186 177c46 44 71 87 71 122c0 42 -30 70 -77 70c-57 0 -91 -32 -101 -97h-39c9 52 21 79 49 103c25 22 58 33 98 33c65 0 111 -42 111 -100c0 -44 -27 -97 -73 -141zM614 651h39l-538 -669h-41z" />
    <glyph glyph-name="plusminus" unicode="&#xb1;" horiz-adv-x="667" 
d="M69 427h237v238h53v-238h238v-52h-238v-237h-53v237h-237v52zM69 33h528v-53h-528v53z" />
    <glyph glyph-name="Thorn" unicode="&#xde;" horiz-adv-x="427" 
d="M160 428l-31 -226h90c78 0 124 46 124 125c0 62 -41 101 -105 101h-78zM189 628l-23 -148h80c86 0 147 -62 147 -149c0 -120 -71 -184 -204 -184h-68l-21 -147h-51l84 628h56z" />
    <glyph glyph-name="onequarter" unicode="&#xbc;" horiz-adv-x="802" 
d="M651 290l-136 -163h117l21 161zM705 403l-37 -276h53l-4 -36h-55l-12 -100h-36l12 100h-187zM116 642h80l-54 -399h-36l49 363h-67zM621 651h40l-537 -669h-41z" />
    <glyph glyph-name="divide" unicode="&#xf7;" horiz-adv-x="667" 
d="M297 527c1 18 17 32 36 32s35 -15 35 -34c0 -20 -16 -36 -35 -36c-20 0 -36 17 -36 38zM297 122c0 20 16 35 36 35s35 -15 35 -35c0 -19 -15 -35 -35 -35s-36 16 -36 35zM70 347h528v-51h-528v51z" />
    <glyph glyph-name="brokenbar" unicode="&#xa6;" horiz-adv-x="510" 
d="M228 217h54v-352h-54v352zM228 696h54v-353h-54v353z" />
    <glyph glyph-name="degree" unicode="&#xb0;" horiz-adv-x="400" 
d="M414 587c0 -76 -63 -138 -140 -138c-78 0 -141 62 -141 138c0 78 63 141 141 141c77 0 140 -63 140 -141zM373 588c0 55 -44 100 -99 100s-100 -45 -100 -100s45 -99 100 -99s99 44 99 99z" />
    <glyph glyph-name="thorn" unicode="&#xfe;" 
d="M256 39c78 0 142 72 142 160c0 80 -56 145 -125 145c-85 0 -146 -66 -146 -159c0 -79 59 -146 129 -146zM195 649l-42 -312c44 37 85 54 131 54c90 0 165 -85 165 -188c0 -119 -78 -208 -180 -208c-54 0 -101 27 -149 85l-35 -265h-47l109 834h48z" />
    <glyph glyph-name="threequarters" unicode="&#xbe;" horiz-adv-x="802" 
d="M692 290l-135 -163h116l21 161zM747 403l-38 -276h53l-3 -36h-55l-13 -100h-36l13 100h-187zM114 547h-37c16 51 34 74 70 91c18 8 39 13 62 13c63 0 104 -33 104 -82c0 -50 -26 -87 -76 -104v-2c49 -13 71 -41 71 -88c0 -78 -68 -142 -151 -142c-72 0 -115 33 -115 86
c0 5 0 11 1 19h35c5 -45 33 -66 87 -66c57 0 101 43 101 98c0 45 -34 72 -90 72h-9l5 42c7 0 13 -1 17 -1c47 0 83 33 83 74c0 34 -26 55 -68 55c-47 0 -73 -19 -90 -65zM690 651h39l-538 -669h-41z" />
    <glyph glyph-name="twosuperior" unicode="&#xb2;" horiz-adv-x="323" 
d="M92 280h184l-4 -37h-267l184 177c45 43 70 86 70 122c0 42 -30 69 -77 69c-57 0 -90 -31 -101 -96h-38c8 52 21 79 48 103c25 22 58 33 98 33c66 0 111 -42 111 -103c0 -42 -24 -91 -65 -130z" />
    <glyph glyph-name="registered" unicode="&#xae;" horiz-adv-x="800" 
d="M773 355c0 -206 -167 -373 -373 -373s-373 167 -373 373s167 373 373 373s373 -167 373 -373zM728 355c0 181 -147 328 -328 328s-327 -147 -327 -328s146 -327 327 -327s328 146 328 327zM249 547h163c83 0 133 -39 133 -105c0 -62 -37 -98 -116 -109v-2
c30 -10 43 -19 56 -34c20 -24 37 -55 75 -142h-59c-5 10 -9 18 -11 23c-57 126 -80 147 -169 147h-23v-170h-49v392zM298 366h65c91 0 125 20 125 73c0 52 -29 68 -117 68h-73v-141z" />
    <glyph glyph-name="minus" unicode="&#x2212;" horiz-adv-x="667" 
d="M69 348h528v-52h-528v52z" />
    <glyph glyph-name="eth" unicode="&#xf0;" horiz-adv-x="479" 
d="M253 345c-86 -3 -154 -73 -154 -158s63 -148 147 -148c79 0 151 71 151 149c0 92 -58 157 -141 157h-3zM229 618l23 28c33 -23 43 -31 64 -51l55 50l26 -28l-53 -50c45 -59 60 -85 81 -143c18 -53 28 -107 28 -159c0 -166 -81 -270 -208 -270c-108 0 -190 84 -190 196
c0 106 92 199 199 199c60 0 110 -25 148 -74l2 2c-6 52 -11 73 -26 112c-16 41 -29 62 -64 109l-90 -84l-26 29l89 84c-19 19 -35 32 -58 50z" />
    <glyph glyph-name="multiply" unicode="&#xd7;" horiz-adv-x="667" 
d="M94 525l36 38l204 -205l204 205l37 -38l-204 -204l202 -202l-37 -37l-201 202l-204 -202l-37 37l203 202z" />
    <glyph glyph-name="threesuperior" unicode="&#xb3;" horiz-adv-x="323" 
d="M85 547h-37c15 50 32 73 68 90c19 9 41 14 64 14c63 0 104 -33 104 -83s-27 -86 -76 -103v-2c49 -13 72 -41 72 -88c0 -81 -65 -141 -151 -141c-78 0 -115 31 -115 97v7h36c5 -45 33 -66 86 -66c60 0 102 42 102 101c0 42 -35 69 -91 69h-9l6 42c7 0 12 -1 17 -1
c45 0 81 33 81 72c0 35 -26 57 -67 57c-46 0 -79 -24 -90 -65z" />
    <glyph glyph-name="copyright" unicode="&#xa9;" horiz-adv-x="800" 
d="M562 451l-47 -14c-23 54 -60 81 -109 81c-84 0 -138 -63 -138 -161c0 -101 54 -171 133 -171c58 0 92 28 121 100l44 -16c-17 -49 -28 -67 -56 -90c-28 -24 -69 -38 -108 -38c-105 0 -187 92 -187 211c0 121 78 206 190 206c39 0 67 -9 96 -31s40 -36 61 -77zM773 355
c0 -206 -167 -373 -373 -373s-373 167 -373 373s167 373 373 373s373 -167 373 -373zM728 355c0 181 -147 328 -328 328s-327 -147 -327 -328s146 -327 327 -327s328 146 328 327z" />
    <glyph glyph-name="Aacute" unicode="&#xc1;" horiz-adv-x="594" 
d="M356 520l-141 -262h217zM369 658l193 -658h-54l-62 207h-258l-111 -207h-59zM429 855h86l-153 -150h-31z" />
    <glyph glyph-name="Acircumflex" unicode="&#xc2;" horiz-adv-x="594" 
d="M356 520l-141 -262h217zM369 658l193 -658h-54l-62 207h-258l-111 -207h-59zM434 877h53l8 -189h-32l-20 126l-143 -126h-36z" />
    <glyph glyph-name="Adieresis" unicode="&#xc4;" horiz-adv-x="594" 
d="M356 520l-141 -262h217zM369 658l193 -658h-54l-62 207h-258l-111 -207h-59zM296 764c22 0 40 -18 40 -40c0 -21 -17 -38 -38 -38c-22 0 -40 17 -40 39c0 21 17 39 38 39zM475 764c22 0 39 -18 39 -40c0 -21 -17 -38 -37 -38c-23 0 -41 17 -41 39s18 39 39 39z" />
    <glyph glyph-name="Agrave" unicode="&#xc0;" horiz-adv-x="594" 
d="M356 520l-141 -262h217zM369 658l193 -658h-54l-62 207h-258l-111 -207h-59zM276 855h85l95 -148h-30z" />
    <glyph glyph-name="Aring" unicode="&#xc5;" horiz-adv-x="594" 
d="M356 520l-141 -262h217zM369 658l193 -658h-54l-62 207h-258l-111 -207h-59zM392 856c49 0 89 -39 89 -88c0 -50 -40 -89 -89 -89s-89 40 -89 89s40 88 89 88zM392 826c-32 0 -58 -26 -58 -58s26 -58 58 -58s58 26 58 58s-26 58 -58 58z" />
    <glyph glyph-name="Atilde" unicode="&#xc3;" horiz-adv-x="594" 
d="M356 520l-141 -262h217zM369 658l193 -658h-54l-62 207h-258l-111 -207h-59zM274 689h-31c2 61 28 93 75 93c19 0 46 -7 88 -25c33 -13 53 -19 65 -19c27 0 42 15 44 44h29v-8c0 -50 -29 -84 -73 -84c-23 0 -48 7 -92 25c-35 14 -53 20 -68 20c-22 0 -35 -15 -37 -46z
" />
    <glyph glyph-name="Ccedilla" unicode="&#xc7;" horiz-adv-x="594" 
d="M571 573l-20 -62c-62 54 -115 77 -180 77c-160 0 -269 -120 -269 -296c0 -66 33 -142 80 -188c42 -42 102 -64 170 -64c30 0 58 5 80 15c39 16 59 30 108 76l13 -66c-45 -38 -65 -50 -106 -65c-32 -12 -65 -18 -100 -18c-173 0 -303 137 -303 321c0 191 139 343 315 343
c53 0 100 -10 145 -32c24 -11 37 -19 67 -41zM127 -187l14 30c21 -4 29 -5 51 -5c70 0 106 18 106 51c0 25 -20 39 -54 39c-7 0 -11 -1 -21 -2l31 84h33l-20 -57c7 1 12 1 16 1c40 0 64 -23 64 -60c0 -55 -54 -88 -142 -88c-29 0 -42 1 -78 7z" />
    <glyph glyph-name="Eacute" unicode="&#xc9;" 
d="M157 628h318l-7 -51h-264l-29 -221h264l-7 -52h-263l-33 -253h262l-6 -51h-317zM365 855h86l-153 -150h-31z" />
    <glyph glyph-name="Ecircumflex" unicode="&#xca;" 
d="M157 628h318l-7 -51h-264l-29 -221h264l-7 -52h-263l-33 -253h262l-6 -51h-317zM370 877h53l8 -189h-32l-20 126l-143 -126h-36z" />
    <glyph glyph-name="Edieresis" unicode="&#xcb;" 
d="M157 628h318l-7 -51h-264l-29 -221h264l-7 -52h-263l-33 -253h262l-6 -51h-317zM232 764c22 0 40 -18 40 -40c0 -21 -17 -38 -38 -38c-22 0 -40 17 -40 39c0 21 17 39 38 39zM411 764c22 0 39 -18 39 -40c0 -21 -17 -38 -37 -38c-23 0 -41 17 -41 39s18 39 39 39z" />
    <glyph glyph-name="Egrave" unicode="&#xc8;" 
d="M157 628h318l-7 -51h-264l-29 -221h264l-7 -52h-263l-33 -253h262l-6 -51h-317zM212 855h85l95 -148h-30z" />
    <glyph glyph-name="Iacute" unicode="&#xcd;" horiz-adv-x="271" 
d="M163 628h52l-81 -628h-53zM255 855h86l-153 -150h-31z" />
    <glyph glyph-name="Icircumflex" unicode="&#xce;" horiz-adv-x="271" 
d="M163 628h52l-81 -628h-53zM260 877h53l8 -189h-32l-20 126l-143 -126h-36z" />
    <glyph glyph-name="Idieresis" unicode="&#xcf;" horiz-adv-x="271" 
d="M163 628h52l-81 -628h-53zM122 764c22 0 40 -18 40 -40c0 -21 -17 -38 -38 -38c-22 0 -40 17 -40 39c0 21 17 39 38 39zM301 764c22 0 39 -18 39 -40c0 -21 -17 -38 -37 -38c-23 0 -41 17 -41 39s18 39 39 39z" />
    <glyph glyph-name="Igrave" unicode="&#xcc;" horiz-adv-x="271" 
d="M163 628h52l-81 -628h-53zM102 855h85l95 -148h-30z" />
    <glyph glyph-name="Ntilde" unicode="&#xd1;" horiz-adv-x="760" 
d="M151 656l453 -557l70 529h51l-85 -651l-453 559l-71 -536h-51zM345 689h-31c2 61 28 93 75 93c19 0 46 -7 88 -25c33 -13 53 -19 65 -19c27 0 42 15 44 44h29v-8c0 -50 -29 -84 -73 -84c-23 0 -48 7 -92 25c-35 14 -53 20 -68 20c-22 0 -35 -15 -37 -46z" />
    <glyph glyph-name="Oacute" unicode="&#xd3;" horiz-adv-x="646" 
d="M340 590c-64 0 -122 -24 -167 -70c-56 -55 -94 -145 -94 -220c0 -153 95 -262 228 -262c143 0 258 130 258 291c0 157 -90 261 -225 261zM339 646c82 -3 144 -27 195 -78c58 -58 90 -139 90 -227c0 -204 -135 -359 -313 -359c-172 0 -289 130 -289 321
c0 111 67 236 159 298c43 28 99 45 153 45h5zM443 855h86l-153 -150h-31z" />
    <glyph glyph-name="Ocircumflex" unicode="&#xd4;" horiz-adv-x="646" 
d="M340 590c-64 0 -122 -24 -167 -70c-56 -55 -94 -145 -94 -220c0 -153 95 -262 228 -262c143 0 258 130 258 291c0 157 -90 261 -225 261zM339 646c82 -3 144 -27 195 -78c58 -58 90 -139 90 -227c0 -204 -135 -359 -313 -359c-172 0 -289 130 -289 321
c0 111 67 236 159 298c43 28 99 45 153 45h5zM448 877h53l8 -189h-32l-20 126l-143 -126h-36z" />
    <glyph glyph-name="Odieresis" unicode="&#xd6;" horiz-adv-x="646" 
d="M340 590c-64 0 -122 -24 -167 -70c-56 -55 -94 -145 -94 -220c0 -153 95 -262 228 -262c143 0 258 130 258 291c0 157 -90 261 -225 261zM339 646c82 -3 144 -27 195 -78c58 -58 90 -139 90 -227c0 -204 -135 -359 -313 -359c-172 0 -289 130 -289 321
c0 111 67 236 159 298c43 28 99 45 153 45h5zM310 764c22 0 40 -18 40 -40c0 -21 -17 -38 -38 -38c-22 0 -40 17 -40 39c0 21 17 39 38 39zM489 764c22 0 39 -18 39 -40c0 -21 -17 -38 -37 -38c-23 0 -41 17 -41 39s18 39 39 39z" />
    <glyph glyph-name="Ograve" unicode="&#xd2;" horiz-adv-x="646" 
d="M340 590c-64 0 -122 -24 -167 -70c-56 -55 -94 -145 -94 -220c0 -153 95 -262 228 -262c143 0 258 130 258 291c0 157 -90 261 -225 261zM339 646c82 -3 144 -27 195 -78c58 -58 90 -139 90 -227c0 -204 -135 -359 -313 -359c-172 0 -289 130 -289 321
c0 111 67 236 159 298c43 28 99 45 153 45h5zM290 855h85l95 -148h-30z" />
    <glyph glyph-name="Otilde" unicode="&#xd5;" horiz-adv-x="646" 
d="M340 590c-64 0 -122 -24 -167 -70c-56 -55 -94 -145 -94 -220c0 -153 95 -262 228 -262c143 0 258 130 258 291c0 157 -90 261 -225 261zM339 646c82 -3 144 -27 195 -78c58 -58 90 -139 90 -227c0 -204 -135 -359 -313 -359c-172 0 -289 130 -289 321
c0 111 67 236 159 298c43 28 99 45 153 45h5zM288 689h-31c2 61 28 93 75 93c19 0 46 -7 88 -25c33 -13 53 -19 65 -19c27 0 42 15 44 44h29v-8c0 -50 -29 -84 -73 -84c-23 0 -48 7 -92 25c-35 14 -53 20 -68 20c-22 0 -35 -15 -37 -46z" />
    <glyph glyph-name="Scaron" unicode="&#x160;" horiz-adv-x="427" 
d="M407 522l-58 -13c-23 53 -58 80 -105 80c-61 0 -109 -44 -109 -99c0 -27 14 -58 37 -81c13 -14 36 -31 73 -55c42 -26 48 -31 71 -52c44 -47 63 -91 63 -150c0 -96 -83 -170 -191 -170c-50 0 -100 23 -135 64c-19 22 -28 39 -44 82l54 21c16 -36 25 -50 44 -70
c25 -26 54 -40 84 -40c71 0 129 53 129 118c0 39 -15 74 -43 101c-11 11 -25 21 -59 43c-45 29 -61 41 -85 63c-40 42 -57 79 -57 126c0 89 73 156 171 156c72 0 125 -41 160 -124zM251 878h29l30 -128l97 127h31l-119 -190h-48z" />
    <glyph glyph-name="Uacute" unicode="&#xda;" horiz-adv-x="542" 
d="M125 628h51l-57 -429c-1 -10 -2 -21 -2 -31c0 -88 46 -134 133 -134c100 0 162 66 178 191l53 403h52l-52 -396c-12 -84 -34 -144 -70 -183c-41 -45 -96 -67 -164 -67c-110 0 -183 71 -183 176c0 17 2 39 10 94zM391 855h86l-153 -150h-31z" />
    <glyph glyph-name="Ucircumflex" unicode="&#xdb;" horiz-adv-x="542" 
d="M125 628h51l-57 -429c-1 -10 -2 -21 -2 -31c0 -88 46 -134 133 -134c100 0 162 66 178 191l53 403h52l-52 -396c-12 -84 -34 -144 -70 -183c-41 -45 -96 -67 -164 -67c-110 0 -183 71 -183 176c0 17 2 39 10 94zM396 877h53l8 -189h-32l-20 126l-143 -126h-36z" />
    <glyph glyph-name="Udieresis" unicode="&#xdc;" horiz-adv-x="542" 
d="M125 628h51l-57 -429c-1 -10 -2 -21 -2 -31c0 -88 46 -134 133 -134c100 0 162 66 178 191l53 403h52l-52 -396c-12 -84 -34 -144 -70 -183c-41 -45 -96 -67 -164 -67c-110 0 -183 71 -183 176c0 17 2 39 10 94zM258 764c22 0 40 -18 40 -40c0 -21 -17 -38 -38 -38
c-22 0 -40 17 -40 39c0 21 17 39 38 39zM437 764c22 0 39 -18 39 -40c0 -21 -17 -38 -37 -38c-23 0 -41 17 -41 39s18 39 39 39z" />
    <glyph glyph-name="Ugrave" unicode="&#xd9;" horiz-adv-x="542" 
d="M125 628h51l-57 -429c-1 -10 -2 -21 -2 -31c0 -88 46 -134 133 -134c100 0 162 66 178 191l53 403h52l-52 -396c-12 -84 -34 -144 -70 -183c-41 -45 -96 -67 -164 -67c-110 0 -183 71 -183 176c0 17 2 39 10 94zM238 855h85l95 -148h-30z" />
    <glyph glyph-name="Yacute" unicode="&#xdd;" horiz-adv-x="542" 
d="M511 628h60l-268 -353l-36 -275h-50l36 275l-159 354h50l138 -303zM391 855h86l-153 -150h-31z" />
    <glyph glyph-name="Ydieresis" unicode="&#x178;" horiz-adv-x="542" 
d="M511 628h60l-268 -353l-36 -275h-50l36 275l-159 354h50l138 -303zM258 764c22 0 40 -18 40 -40c0 -21 -17 -38 -38 -38c-22 0 -40 17 -40 39c0 21 17 39 38 39zM437 764c22 0 39 -18 39 -40c0 -21 -17 -38 -37 -38c-23 0 -41 17 -41 39s18 39 39 39z" />
    <glyph glyph-name="Zcaron" unicode="&#x17d;" horiz-adv-x="542" 
d="M116 628h422l-416 -577h333l-7 -51h-425l416 577h-330zM309 878h29l30 -128l97 127h31l-119 -190h-48z" />
    <glyph glyph-name="aacute" unicode="&#xe1;" 
d="M235 345c-78 0 -137 -71 -137 -163c0 -79 56 -140 128 -140c80 0 143 72 143 161c0 75 -63 142 -134 142zM375 297l11 86h47l-50 -383h-47l7 53l-2 2c-39 -42 -81 -61 -132 -61c-92 0 -163 83 -163 191c0 115 78 205 177 205c36 0 73 -14 105 -40c19 -14 28 -25 47 -53z
M324 654h86l-153 -150h-31z" />
    <glyph glyph-name="acircumflex" unicode="&#xe2;" 
d="M235 345c-78 0 -137 -71 -137 -163c0 -79 56 -140 128 -140c80 0 143 72 143 161c0 75 -63 142 -134 142zM375 297l11 86h47l-50 -383h-47l7 53l-2 2c-39 -42 -81 -61 -132 -61c-92 0 -163 83 -163 191c0 115 78 205 177 205c36 0 73 -14 105 -40c19 -14 28 -25 47 -53z
M329 676h53l8 -189h-32l-20 126l-143 -126h-36z" />
    <glyph glyph-name="adieresis" unicode="&#xe4;" 
d="M235 345c-78 0 -137 -71 -137 -163c0 -79 56 -140 128 -140c80 0 143 72 143 161c0 75 -63 142 -134 142zM375 297l11 86h47l-50 -383h-47l7 53l-2 2c-39 -42 -81 -61 -132 -61c-92 0 -163 83 -163 191c0 115 78 205 177 205c36 0 73 -14 105 -40c19 -14 28 -25 47 -53z
M191 563c22 0 40 -18 40 -40c0 -21 -17 -38 -38 -38c-22 0 -40 17 -40 39c0 21 17 39 38 39zM370 563c22 0 39 -18 39 -40c0 -21 -17 -38 -37 -38c-23 0 -41 17 -41 39s18 39 39 39z" />
    <glyph glyph-name="agrave" unicode="&#xe0;" 
d="M235 345c-78 0 -137 -71 -137 -163c0 -79 56 -140 128 -140c80 0 143 72 143 161c0 75 -63 142 -134 142zM375 297l11 86h47l-50 -383h-47l7 53l-2 2c-39 -42 -81 -61 -132 -61c-92 0 -163 83 -163 191c0 115 78 205 177 205c36 0 73 -14 105 -40c19 -14 28 -25 47 -53z
M171 654h85l95 -148h-30z" />
    <glyph glyph-name="aring" unicode="&#xe5;" 
d="M235 345c-78 0 -137 -71 -137 -163c0 -79 56 -140 128 -140c80 0 143 72 143 161c0 75 -63 142 -134 142zM375 297l11 86h47l-50 -383h-47l7 53l-2 2c-39 -42 -81 -61 -132 -61c-92 0 -163 83 -163 191c0 115 78 205 177 205c36 0 73 -14 105 -40c19 -14 28 -25 47 -53z
M287 655c49 0 89 -39 89 -88c0 -50 -40 -89 -89 -89s-89 40 -89 89s40 88 89 88zM287 625c-32 0 -58 -26 -58 -58s26 -58 58 -58s58 26 58 58s-26 58 -58 58z" />
    <glyph glyph-name="atilde" unicode="&#xe3;" 
d="M235 345c-78 0 -137 -71 -137 -163c0 -79 56 -140 128 -140c80 0 143 72 143 161c0 75 -63 142 -134 142zM375 297l11 86h47l-50 -383h-47l7 53l-2 2c-39 -42 -81 -61 -132 -61c-92 0 -163 83 -163 191c0 115 78 205 177 205c36 0 73 -14 105 -40c19 -14 28 -25 47 -53z
M169 488h-31c2 61 28 93 75 93c19 0 46 -7 88 -25c33 -13 53 -19 65 -19c27 0 42 15 44 44h29v-8c0 -50 -29 -84 -73 -84c-23 0 -48 7 -92 25c-35 14 -53 20 -68 20c-22 0 -35 -15 -37 -46z" />
    <glyph glyph-name="ccedilla" unicode="&#xe7;" horiz-adv-x="375" 
d="M318 77l-7 -60c-43 -18 -65 -23 -95 -23c-97 0 -174 85 -174 192c0 113 86 204 194 204c37 0 77 -11 118 -32l-7 -54c-51 25 -78 33 -114 33c-78 0 -140 -67 -140 -152c0 -77 56 -139 127 -139c32 0 55 7 98 31zM17 -187l14 30c21 -4 29 -5 51 -5c70 0 106 18 106 51
c0 25 -20 39 -54 39c-7 0 -11 -1 -21 -2l31 84h33l-20 -57c7 1 12 1 16 1c40 0 64 -23 64 -60c0 -55 -54 -88 -142 -88c-29 0 -42 1 -78 7z" />
    <glyph glyph-name="eacute" unicode="&#xe9;" horiz-adv-x="427" 
d="M89 225h244c-14 76 -58 120 -119 120c-57 0 -105 -46 -125 -120zM381 180h-295c3 -55 14 -84 39 -108c22 -22 52 -33 87 -33c45 0 83 22 118 69l38 -24c-18 -26 -27 -35 -44 -49c-34 -27 -74 -41 -114 -41c-103 0 -170 75 -170 193c0 110 81 203 177 203
c90 0 165 -86 165 -189c0 -5 0 -12 -1 -21zM292 654h86l-153 -150h-31z" />
    <glyph glyph-name="ecircumflex" unicode="&#xea;" horiz-adv-x="427" 
d="M89 225h244c-14 76 -58 120 -119 120c-57 0 -105 -46 -125 -120zM381 180h-295c3 -55 14 -84 39 -108c22 -22 52 -33 87 -33c45 0 83 22 118 69l38 -24c-18 -26 -27 -35 -44 -49c-34 -27 -74 -41 -114 -41c-103 0 -170 75 -170 193c0 110 81 203 177 203
c90 0 165 -86 165 -189c0 -5 0 -12 -1 -21zM297 676h53l8 -189h-32l-20 126l-143 -126h-36z" />
    <glyph glyph-name="edieresis" unicode="&#xeb;" horiz-adv-x="427" 
d="M89 225h244c-14 76 -58 120 -119 120c-57 0 -105 -46 -125 -120zM381 180h-295c3 -55 14 -84 39 -108c22 -22 52 -33 87 -33c45 0 83 22 118 69l38 -24c-18 -26 -27 -35 -44 -49c-34 -27 -74 -41 -114 -41c-103 0 -170 75 -170 193c0 110 81 203 177 203
c90 0 165 -86 165 -189c0 -5 0 -12 -1 -21zM159 563c22 0 40 -18 40 -40c0 -21 -17 -38 -38 -38c-22 0 -40 17 -40 39c0 21 17 39 38 39zM338 563c22 0 39 -18 39 -40c0 -21 -17 -38 -37 -38c-23 0 -41 17 -41 39s18 39 39 39z" />
    <glyph glyph-name="egrave" unicode="&#xe8;" horiz-adv-x="427" 
d="M89 225h244c-14 76 -58 120 -119 120c-57 0 -105 -46 -125 -120zM381 180h-295c3 -55 14 -84 39 -108c22 -22 52 -33 87 -33c45 0 83 22 118 69l38 -24c-18 -26 -27 -35 -44 -49c-34 -27 -74 -41 -114 -41c-103 0 -170 75 -170 193c0 110 81 203 177 203
c90 0 165 -86 165 -189c0 -5 0 -12 -1 -21zM139 654h85l95 -148h-30z" />
    <glyph glyph-name="iacute" unicode="&#xed;" horiz-adv-x="219" 
d="M108 383h47l-50 -383h-46zM188 654h86l-153 -150h-31z" />
    <glyph glyph-name="icircumflex" unicode="&#xee;" horiz-adv-x="219" 
d="M108 383h47l-50 -383h-46zM193 676h53l8 -189h-32l-20 126l-143 -126h-36z" />
    <glyph glyph-name="idieresis" unicode="&#xef;" horiz-adv-x="219" 
d="M108 383h47l-50 -383h-46zM55 563c22 0 40 -18 40 -40c0 -21 -17 -38 -38 -38c-22 0 -40 17 -40 39c0 21 17 39 38 39zM234 563c22 0 39 -18 39 -40c0 -21 -17 -38 -37 -38c-23 0 -41 17 -41 39s18 39 39 39z" />
    <glyph glyph-name="igrave" unicode="&#xec;" horiz-adv-x="219" 
d="M108 383h47l-50 -383h-46zM35 654h85l95 -148h-30z" />
    <glyph glyph-name="ntilde" unicode="&#xf1;" horiz-adv-x="426" 
d="M149 383l-6 -46c44 40 73 53 117 53c56 0 97 -45 97 -106c0 -6 0 -12 -1 -18l-35 -266h-45l35 274c1 4 1 7 1 11c0 40 -27 65 -69 65c-59 0 -104 -43 -112 -106l-33 -244h-46l50 383h47zM137 488h-31c2 61 28 93 75 93c19 0 46 -7 88 -25c33 -13 53 -19 65 -19
c27 0 42 15 44 44h29v-8c0 -50 -29 -84 -73 -84c-23 0 -48 7 -92 25c-35 14 -53 20 -68 20c-22 0 -35 -15 -37 -46z" />
    <glyph glyph-name="oacute" unicode="&#xf3;" horiz-adv-x="427" 
d="M223 344c-89 0 -159 -70 -159 -159c0 -83 63 -146 147 -146c82 0 152 71 152 153c0 87 -60 152 -140 152zM217 390c107 0 192 -83 192 -187c0 -118 -87 -209 -198 -209c-110 0 -193 84 -193 194c0 109 91 202 199 202zM292 654h86l-153 -150h-31z" />
    <glyph glyph-name="ocircumflex" unicode="&#xf4;" horiz-adv-x="427" 
d="M223 344c-89 0 -159 -70 -159 -159c0 -83 63 -146 147 -146c82 0 152 71 152 153c0 87 -60 152 -140 152zM217 390c107 0 192 -83 192 -187c0 -118 -87 -209 -198 -209c-110 0 -193 84 -193 194c0 109 91 202 199 202zM297 676h53l8 -189h-32l-20 126l-143 -126h-36z" />
    <glyph glyph-name="odieresis" unicode="&#xf6;" horiz-adv-x="427" 
d="M223 344c-89 0 -159 -70 -159 -159c0 -83 63 -146 147 -146c82 0 152 71 152 153c0 87 -60 152 -140 152zM217 390c107 0 192 -83 192 -187c0 -118 -87 -209 -198 -209c-110 0 -193 84 -193 194c0 109 91 202 199 202zM159 563c22 0 40 -18 40 -40c0 -21 -17 -38 -38 -38
c-22 0 -40 17 -40 39c0 21 17 39 38 39zM338 563c22 0 39 -18 39 -40c0 -21 -17 -38 -37 -38c-23 0 -41 17 -41 39s18 39 39 39z" />
    <glyph glyph-name="ograve" unicode="&#xf2;" horiz-adv-x="427" 
d="M223 344c-89 0 -159 -70 -159 -159c0 -83 63 -146 147 -146c82 0 152 71 152 153c0 87 -60 152 -140 152zM217 390c107 0 192 -83 192 -187c0 -118 -87 -209 -198 -209c-110 0 -193 84 -193 194c0 109 91 202 199 202zM139 654h85l95 -148h-30z" />
    <glyph glyph-name="otilde" unicode="&#xf5;" horiz-adv-x="427" 
d="M223 344c-89 0 -159 -70 -159 -159c0 -83 63 -146 147 -146c82 0 152 71 152 153c0 87 -60 152 -140 152zM217 390c107 0 192 -83 192 -187c0 -118 -87 -209 -198 -209c-110 0 -193 84 -193 194c0 109 91 202 199 202zM137 488h-31c2 61 28 93 75 93c19 0 46 -7 88 -25
c33 -13 53 -19 65 -19c27 0 42 15 44 44h29v-8c0 -50 -29 -84 -73 -84c-23 0 -48 7 -92 25c-35 14 -53 20 -68 20c-22 0 -35 -15 -37 -46z" />
    <glyph glyph-name="scaron" unicode="&#x161;" horiz-adv-x="323" 
d="M290 350l-23 -38c-26 21 -55 33 -78 33c-39 0 -64 -22 -64 -58c0 -26 15 -41 61 -63c69 -34 94 -64 94 -115c0 -61 -52 -115 -113 -115c-48 0 -90 24 -136 78l29 34c43 -48 72 -67 105 -67c38 0 70 32 70 72c0 29 -22 50 -74 75c-57 27 -81 58 -81 102
c0 58 46 102 107 102c36 0 72 -14 103 -40zM158 677h29l30 -128l97 127h31l-119 -190h-48z" />
    <glyph glyph-name="uacute" unicode="&#xfa;" horiz-adv-x="425" 
d="M93 383h47l-29 -218c-1 -10 -1 -19 -1 -29c0 -65 26 -97 79 -97c62 0 90 39 104 144l26 200h46l-27 -211c-16 -123 -63 -178 -153 -178c-76 0 -122 53 -122 141c0 11 1 21 2 31zM291 654h86l-153 -150h-31z" />
    <glyph glyph-name="ucircumflex" unicode="&#xfb;" horiz-adv-x="425" 
d="M93 383h47l-29 -218c-1 -10 -1 -19 -1 -29c0 -65 26 -97 79 -97c62 0 90 39 104 144l26 200h46l-27 -211c-16 -123 -63 -178 -153 -178c-76 0 -122 53 -122 141c0 11 1 21 2 31zM296 676h53l8 -189h-32l-20 126l-143 -126h-36z" />
    <glyph glyph-name="udieresis" unicode="&#xfc;" horiz-adv-x="425" 
d="M93 383h47l-29 -218c-1 -10 -1 -19 -1 -29c0 -65 26 -97 79 -97c62 0 90 39 104 144l26 200h46l-27 -211c-16 -123 -63 -178 -153 -178c-76 0 -122 53 -122 141c0 11 1 21 2 31zM158 563c22 0 40 -18 40 -40c0 -21 -17 -38 -38 -38c-22 0 -40 17 -40 39c0 21 17 39 38 39
zM337 563c22 0 39 -18 39 -40c0 -21 -17 -38 -37 -38c-23 0 -41 17 -41 39s18 39 39 39z" />
    <glyph glyph-name="ugrave" unicode="&#xf9;" horiz-adv-x="425" 
d="M93 383h47l-29 -218c-1 -10 -1 -19 -1 -29c0 -65 26 -97 79 -97c62 0 90 39 104 144l26 200h46l-27 -211c-16 -123 -63 -178 -153 -178c-76 0 -122 53 -122 141c0 11 1 21 2 31zM138 654h85l95 -148h-30z" />
    <glyph glyph-name="yacute" unicode="&#xfd;" horiz-adv-x="375" 
d="M37 383h47l115 -278l129 278h49l-265 -568h-49l111 236zM266 654h86l-153 -150h-31z" />
    <glyph glyph-name="ydieresis" unicode="&#xff;" horiz-adv-x="375" 
d="M37 383h47l115 -278l129 278h49l-265 -568h-49l111 236zM133 563c22 0 40 -18 40 -40c0 -21 -17 -38 -38 -38c-22 0 -40 17 -40 39c0 21 17 39 38 39zM312 563c22 0 39 -18 39 -40c0 -21 -17 -38 -37 -38c-23 0 -41 17 -41 39s18 39 39 39z" />
    <glyph glyph-name="zcaron" unicode="&#x17e;" horiz-adv-x="427" 
d="M70 383h336l-292 -338h251l-5 -45h-345l293 338h-245zM210 677h29l30 -128l97 127h31l-119 -190h-48z" />
    <glyph glyph-name="uni00A0" unicode="&#xa0;" horiz-adv-x="245" 
 />
    <glyph glyph-name="uni00AD" horiz-adv-x="271" 
d="M52 213h179l-7 -44h-178z" />
    <glyph glyph-name="uni03A9" horiz-adv-x="663" 
d="M608 0h-204v50c60 55 144 150 144 327c0 163 -76 284 -217 284c-136 0 -223 -121 -223 -283c0 -172 79 -268 146 -328v-50h-204v50h144c-59 51 -145 156 -145 333c0 186 114 329 283 329c172 0 276 -132 276 -327c0 -160 -77 -276 -145 -335h145v-50z" />
    <glyph glyph-name="uni03BC" horiz-adv-x="556" 
d="M152 518h60l-72 -335c-4 -17 -6 -33 -6 -47c0 -54 37 -91 90 -91c104 0 187 92 221 244l50 229h61l-111 -518h-61l20 94l-2 2c-44 -58 -69 -77 -123 -96c-21 -8 -44 -12 -67 -12c-42 0 -71 17 -102 57l-53 -243h-59z" />
    <glyph glyph-name="litre" unicode="&#x2113;" horiz-adv-x="458" 
d="M376 54c-25 -29 -65 -66 -121 -66c-30 0 -55 10 -71 27c-23 24 -35 63 -35 114v129c-20 -23 -39 -45 -59 -68c-10 11 -21 20 -31 31l90 105v240c0 110 42 162 107 162c63 0 87 -55 87 -99c0 -95 -46 -181 -108 -268c-9 -11 -22 -30 -30 -39v-199c0 -64 28 -88 60 -88
c34 0 62 25 85 52c9 -11 17 -22 26 -33zM294 624c0 26 -9 56 -37 56c-29 0 -52 -23 -52 -116v-169c6 8 12 17 17 25c43 67 72 139 72 204z" />
    <glyph glyph-name="estimated" unicode="&#x212e;" horiz-adv-x="633" 
d="M592 280h-432v-193c41 -41 93 -62 153 -62c94 0 158 46 206 127l36 -21c-59 -88 -126 -143 -242 -143c-168 0 -273 130 -273 292s103 292 273 292c174 0 273 -129 279 -292zM468 317v154c-42 42 -96 65 -155 65c-61 0 -112 -21 -153 -63v-156h308z" />
    <glyph glyph-name="Euro" unicode="&#x20ac;" horiz-adv-x="494" 
d="M472 585l-15 -55c-27 32 -75 63 -129 63c-115 0 -164 -110 -182 -204h271l-14 -47h-265l-3 -48h254l-13 -47h-240c10 -126 59 -207 156 -207c65 0 119 36 147 56l-23 -78c-14 -11 -73 -35 -127 -35c-134 0 -206 120 -212 264h-64l14 47h50c0 16 1 32 2 48h-53l13 47h47
c29 135 89 257 246 257c59 0 103 -24 140 -61z" />
    <glyph glyph-name="infinity" unicode="&#x221e;" horiz-adv-x="711" 
d="M659 294c0 -84 -57 -150 -141 -150c-77 0 -132 50 -163 104h-2c-35 -56 -91 -104 -157 -104c-89 0 -147 62 -147 146c0 87 57 149 144 149c83 0 134 -60 160 -104h2c29 45 81 104 158 104c83 0 146 -57 146 -145zM605 293c0 55 -30 99 -93 99c-56 0 -96 -40 -133 -100
c36 -65 84 -101 132 -101c64 0 94 46 94 102zM330 292c-32 56 -83 100 -133 100c-66 0 -94 -47 -94 -103c0 -59 40 -98 94 -98c57 0 101 48 133 101z" />
    <glyph glyph-name="partialdiff" unicode="&#x2202;" horiz-adv-x="529" 
d="M484 502c0 -53 -8 -124 -25 -198c-34 -141 -116 -314 -263 -314c-92 0 -154 70 -154 177c0 186 120 333 253 333c65 0 105 -34 124 -72h2c3 22 6 47 6 78c0 121 -50 171 -131 171c-27 0 -59 -8 -85 -24c-6 15 -11 30 -17 44c23 14 70 29 108 29c112 0 182 -74 182 -224z
M412 364c-15 52 -53 89 -116 89c-106 0 -196 -136 -196 -288c0 -81 42 -126 99 -126c96 0 174 122 213 325z" />
    <glyph glyph-name="summation" unicode="&#x2211;" horiz-adv-x="581" 
d="M548 -230h-525v24c105 149 210 296 315 445c-97 144 -194 287 -291 431v30h476v-50h-400c93 -137 185 -273 278 -410l-297 -420h444v-50z" />
    <glyph glyph-name="product" unicode="&#x220f;" horiz-adv-x="658" 
d="M575 -230h-58v879h-375v-879h-59v930h492v-930z" />
    <glyph glyph-name="pi" unicode="&#x3c0;" horiz-adv-x="576" 
d="M553 6c-13 -8 -35 -13 -56 -13c-79 0 -108 58 -108 124v333h-192v-321c0 -52 -5 -98 -13 -129h-62c10 37 13 87 13 130v320c-26 0 -69 -10 -94 -21c-6 16 -12 31 -18 46c24 12 70 25 129 25h400v-50h-102v-327c0 -48 17 -79 61 -79c10 0 19 2 29 6c5 -14 9 -30 13 -44z
" />
    <glyph glyph-name="integral" unicode="&#x222b;" horiz-adv-x="457" 
d="M377 691c-8 4 -25 9 -41 9c-52 0 -80 -37 -80 -100v-670c0 -93 -50 -150 -135 -150c-19 0 -46 5 -58 11c4 15 8 31 13 46c11 -4 23 -8 41 -8c54 0 81 35 81 99v671c0 91 50 149 136 149c22 0 47 -5 57 -11c-5 -15 -9 -31 -14 -46z" />
    <glyph glyph-name="Omega" unicode="&#x2126;" horiz-adv-x="663" 
d="M608 0h-204v50c60 55 144 150 144 327c0 163 -76 284 -217 284c-136 0 -223 -121 -223 -283c0 -172 79 -268 146 -328v-50h-204v50h144c-59 51 -145 156 -145 333c0 186 114 329 283 329c172 0 276 -132 276 -327c0 -160 -77 -276 -145 -335h145v-50z" />
    <glyph glyph-name="radical" unicode="&#x221a;" horiz-adv-x="450" 
d="M465 728c-60 -247 -119 -493 -179 -740h-50c-44 117 -86 236 -130 353c-17 -9 -34 -19 -51 -28c-8 13 -14 26 -21 39c34 19 69 38 103 57c41 -111 81 -222 122 -332c52 217 104 434 155 651h51z" />
    <glyph glyph-name="Delta" unicode="&#x394;" horiz-adv-x="549" 
d="M536 0h-516v33c76 222 151 444 227 667h64c75 -223 150 -445 225 -667v-33zM467 50c-58 176 -116 352 -175 528c-7 23 -9 39 -13 54h-3c-3 -14 -9 -36 -14 -54c-58 -176 -117 -352 -175 -528h380z" />
    <glyph glyph-name="Delta" unicode="&#x2206;" horiz-adv-x="549" 
d="M536 0h-516v33c76 222 151 444 227 667h64c75 -223 150 -445 225 -667v-33zM467 50c-58 176 -116 352 -175 528c-7 23 -9 39 -13 54h-3c-3 -14 -9 -36 -14 -54c-58 -176 -117 -352 -175 -528h380z" />
    <glyph glyph-name="lozenge" unicode="&#x25ca;" horiz-adv-x="507" 
d="M450 350c-61 -117 -122 -233 -183 -350h-33c-60 116 -122 233 -182 349c60 117 122 234 182 351h33c61 -117 122 -233 183 -350zM396 350c-48 93 -97 186 -145 279c-49 -93 -98 -186 -146 -279c48 -93 96 -186 145 -280c49 94 97 187 146 280z" />
    <glyph glyph-name="notequal" unicode="&#x2260;" horiz-adv-x="667" 
d="M555 161h-261l-67 -139h-56l68 139h-127v53h153l77 158h-230v53h256l68 141h55l-68 -141h132v-53h-158l-77 -158h235v-53z" />
    <glyph glyph-name="lessequal" unicode="&#x2264;" horiz-adv-x="667" 
d="M555 0h-443v53h443v-53zM555 131l-443 204v31l443 205v-59l-353 -160v-2l353 -161v-58z" />
    <glyph glyph-name="greaterequal" unicode="&#x2265;" horiz-adv-x="667" 
d="M555 0h-443v53h443v-53zM555 336l-443 -205v59l353 159v3l-353 160v59l443 -205v-30z" />
    <glyph glyph-name="approxequal" unicode="&#x2248;" horiz-adv-x="667" 
d="M569 420c-30 -43 -71 -82 -134 -82c-40 0 -77 14 -109 34c-28 17 -61 34 -94 34c-38 0 -73 -29 -97 -67l-37 38c32 44 70 82 134 82c42 0 80 -16 108 -33c32 -21 63 -35 95 -35c38 0 73 28 98 66zM569 209c-30 -43 -71 -82 -134 -82c-40 0 -77 15 -109 34
c-28 18 -61 34 -94 34c-38 0 -73 -28 -97 -67l-37 39c32 44 70 81 134 81c42 0 80 -15 108 -33c32 -20 63 -35 95 -35c38 0 73 28 98 67z" />
    <glyph glyph-name="_03A9h" unicode="&#x3a9;" horiz-adv-x="663" 
d="M608 0h-204v50c60 55 144 150 144 327c0 163 -76 284 -217 284c-136 0 -223 -121 -223 -283c0 -172 79 -268 146 -328v-50h-204v50h144c-59 51 -145 156 -145 333c0 186 114 329 283 329c172 0 276 -132 276 -327c0 -160 -77 -276 -145 -335h145v-50z" />
    </font>
</defs>
</svg>
