<?xml version="1.0" standalone="no"?>
<!DOCTYPE svg PUBLIC "-//W3C//DTD SVG 1.1//EN" "http://www.w3.org/Graphics/SVG/1.1/DTD/svg11.dtd" >
<svg>
<metadata>
Created by FontForge 20120731 at Wed Jun 27 04:51:41 2018
 By www-data
Digitized data copyright The Monotype Corporation 1991-1997. All rights reserved. Twentieth CenturyTM is a trademark of The Monotype Corporation which may be registered in certain jurisdictions.
</metadata>
<defs>
<font id="TwCenMT-Bold" horiz-adv-x="1087" >
  <font-face 
    font-family="Tw Cen MT"
    font-weight="700"
    font-stretch="normal"
    units-per-em="2048"
    panose-1="2 11 8 2 2 1 4 2 6 3"
    ascent="1638"
    descent="-410"
    x-height="858"
    cap-height="1313"
    bbox="-424 -477 2492 1878"
    underline-thickness="120"
    underline-position="-92"
    unicode-range="U+0020-F002"
  />
<missing-glyph horiz-adv-x="2048" 
d="M256 0v1536h1536v-1536h-1536zM384 128h1280v1280h-1280v-1280z" />
    <glyph glyph-name=".notdef" horiz-adv-x="2048" 
d="M256 0v1536h1536v-1536h-1536zM384 128h1280v1280h-1280v-1280z" />
    <glyph glyph-name=".null" horiz-adv-x="0" 
 />
    <glyph glyph-name="nonmarkingreturn" horiz-adv-x="545" 
 />
    <glyph glyph-name="space" unicode=" " horiz-adv-x="545" 
 />
    <glyph glyph-name="exclam" unicode="!" horiz-adv-x="426" 
d="M66 1315h284v-866h-284v866zM49 143q0 68 46.5 115t113.5 47q66 0 113 -47.5t47 -114.5q0 -65 -47 -112t-113 -47q-67 0 -113.5 46.5t-46.5 112.5z" />
    <glyph glyph-name="quotedbl" unicode="&#x22;" horiz-adv-x="971" 
d="M160 944l-54 275v247h308v-247l-47 -275h-207zM612 944l-53 275v247h305v-247l-45 -275h-207z" />
    <glyph glyph-name="numbersign" unicode="#" horiz-adv-x="1368" 
d="M78 1018h309l84 383h188l-84 -383h355l82 383h190l-82 -383h168v-191h-205l-63 -303h268v-188h-303l-84 -379h-188l82 379h-359l-78 -379h-190l80 379h-170v188h209l63 303h-272v191zM539 827l-62 -301h354l64 301h-356z" />
    <glyph glyph-name="dollar" unicode="$" 
d="M475 1497h146v-170q157 -9 354 -153l-144 -187q-131 92 -210 107v-330q191 -52 283.5 -158t92.5 -244q0 -148 -96.5 -250t-277.5 -132v-302h-146v308q-138 13 -216.5 48t-162.5 107l129 191q145 -98 248 -115v311q-214 87 -287 181t-73 229q0 130 93 253.5t267 141.5v164
zM473 811v293q-45 -8 -74.5 -49.5t-29.5 -83.5q0 -103 104 -160zM625 485l-2 -2v-280q116 21 116 129q0 102 -114 153z" />
    <glyph glyph-name="percent" unicode="%" horiz-adv-x="1962" 
d="M1319 1434h162l-813 -1588h-160zM162 987q0 202 95 323.5t251 121.5q151 0 246.5 -123t95.5 -320q0 -200 -94.5 -323t-245.5 -123q-154 0 -251 123.5t-97 320.5zM659 973q0 193 -45 255t-106 62q-86 0 -121 -72.5t-35 -240.5q0 -291 156 -291q151 0 151 287zM1143 274
q0 209 94.5 338t245.5 129q150 0 247 -126t97 -326q0 -191 -100 -316t-250 -125q-144 0 -239 121t-95 305zM1634 287q0 160 -34 233.5t-111 73.5q-158 0 -158 -303q0 -154 37 -225.5t117 -71.5q149 0 149 293z" />
    <glyph glyph-name="ampersand" unicode="&#x26;" horiz-adv-x="1296" 
d="M694 645l178 -209l142 139l133 -157q-4 -6 -66 -70.5t-75 -66.5l241 -281h-321l-109 125q-153 -89 -221 -117t-141 -28q-83 0 -171 34.5t-139 116t-51 176.5q0 216 279 359q-123 150 -123 297q0 123 97.5 213t234.5 90q144 0 241 -87.5t97 -215.5q0 -106 -81.5 -188.5
t-144.5 -129.5zM571 795q125 97 125 180q0 48 -29 77t-77 29q-45 0 -74 -31.5t-29 -80.5q0 -60 84 -174zM586 397q-6 6 -37.5 45t-50.5 58q-109 -96 -109 -183q0 -42 33 -74t78 -32q65 0 178 78z" />
    <glyph glyph-name="quotesingle" unicode="'" horiz-adv-x="487" 
d="M143 944l-53 275v247h307v-247l-47 -275h-207z" />
    <glyph glyph-name="parenleft" unicode="(" horiz-adv-x="641" 
d="M410 1356l145 -123q-8 -13 -25 -37q-213 -301 -213 -680q0 -194 49.5 -360.5t188.5 -360.5l-145 -125q-152 181 -221.5 405t-69.5 449q0 213 69 429t222 403z" />
    <glyph glyph-name="parenright" unicode=")" horiz-adv-x="641" 
d="M74 1233l147 123q153 -185 221 -405.5t68 -434.5q0 -491 -285 -846l-151 125q239 313 239 719q0 405 -239 719z" />
    <glyph glyph-name="asterisk" unicode="*" horiz-adv-x="874" 
d="M461 1010l24 -15q55 33 140 132q43 51 92 51q36 0 60 -24.5t24 -61.5q0 -43 -35.5 -65t-118.5 -38t-137 -43v-28q26 -18 109.5 -33.5t131.5 -35.5t48 -75q0 -35 -24 -59.5t-58 -24.5q-32 0 -62 23t-80.5 82t-87.5 86l-28 -19q-1 -28 44 -169q13 -42 13 -66
q0 -42 -23.5 -69.5t-58.5 -27.5q-38 0 -62 26t-24 69q0 26 12 59l31 82q17 49 17 76v22l-23 15q-7 -8 -25.5 -21.5t-66 -69.5t-74 -77t-67.5 -21q-31 0 -55.5 27t-24.5 59q0 33 34.5 62t81.5 36l68 11q58 10 104 35l-2 32q-45 23 -137 38.5t-120.5 45.5t-28.5 60q0 32 25 58
t57 26q45 0 92 -52l67 -73q15 -18 68 -60l27 15v16q0 41 -40 143q-18 45 -18 76q0 42 22.5 68t57.5 26q38 0 63 -26t25 -64q0 -24 -6 -41q-51 -153 -51 -166v-32z" />
    <glyph glyph-name="plus" unicode="+" horiz-adv-x="1366" 
d="M125 784h450v449h213v-449h453v-215h-453v-448h-213v448h-450v215z" />
    <glyph glyph-name="comma" unicode="," horiz-adv-x="532" 
d="M186 299h256l-206 -551h-148z" />
    <glyph glyph-name="hyphen" unicode="-" horiz-adv-x="641" 
d="M29 559h577v-258h-577v258z" />
    <glyph glyph-name="period" unicode="." horiz-adv-x="532" 
d="M104 143q0 66 47 113t113 47t113 -47t47 -113q0 -65 -47 -112t-113 -47t-113 47t-47 112z" />
    <glyph glyph-name="slash" unicode="/" horiz-adv-x="748" 
d="M569 1411h150l-510 -1788h-150z" />
    <glyph glyph-name="zero" unicode="0" 
d="M545 1294q227 0 362 -174t135 -465q0 -340 -150 -504.5t-347 -164.5q-225 0 -364.5 175.5t-139.5 461.5q0 304 136.5 487.5t359.5 183.5h8zM774 631q0 194 -62 305t-167 111q-110 0 -173 -111t-63 -309q0 -180 64 -288t168 -108q106 0 169.5 108t63.5 292z" />
    <glyph glyph-name="one" unicode="1" 
d="M266 1274h414v-1274h-279v1042h-184z" />
    <glyph glyph-name="two" unicode="2" 
d="M628 238h364v-238h-891l435 553q95 122 135.5 200t40.5 146q0 74 -48.5 122t-121.5 48q-84 0 -122 -60.5t-46 -189.5h-283q-1 232 136 359t339 127q188 0 307 -109.5t119 -280.5q0 -167 -139 -370l-76 -111q-45 -67 -114 -153z" />
    <glyph glyph-name="three" unicode="3" 
d="M360 911h-258q12 175 128.5 281t279.5 106q179 0 304.5 -101.5t125.5 -244.5q0 -156 -154 -282q98 -62 143.5 -129.5t45.5 -161.5q0 -179 -119 -287t-315 -108q-182 0 -301.5 103.5t-147.5 287.5h264q47 -182 181 -182q67 0 113 47.5t46 117.5q0 86 -55.5 140.5
t-142.5 54.5h-47v215h28q91 0 146 45t55 119q0 67 -43.5 114.5t-106.5 47.5q-147 0 -170 -183z" />
    <glyph glyph-name="four" unicode="4" 
d="M614 1276h258v-737h121v-234h-121v-305h-280v305h-567v236zM588 954l-328 -415h332v415h-4z" />
    <glyph glyph-name="five" unicode="5" 
d="M279 1278h632v-234h-385l-14 -151q218 0 335.5 -127.5t117.5 -300.5q0 -196 -151.5 -339.5t-358.5 -143.5q-98 0 -172.5 27.5t-167.5 90.5l30 291q209 -139 328 -139q85 0 149 61.5t64 143.5q0 91 -64 152t-161 61q-114 0 -246 -56z" />
    <glyph glyph-name="six" unicode="6" 
d="M477 1276h336l-315 -430q65 12 118 12q165 0 284.5 -123t119.5 -293q0 -198 -141 -328t-357 -130q-200 0 -330.5 127.5t-130.5 324.5q0 142 65 291t144 260zM729 444q0 86 -55 144.5t-135 58.5q-87 0 -147 -59.5t-60 -145.5q0 -85 59.5 -143.5t147.5 -58.5q78 0 134 60
t56 144z" />
    <glyph glyph-name="seven" unicode="7" 
d="M53 1276h1010l-813 -1315l-227 143l579 940h-549v232z" />
    <glyph glyph-name="eight" unicode="8" 
d="M786 672q187 -121 187 -318q0 -165 -118 -267.5t-308 -102.5q-194 0 -314 101.5t-120 264.5q0 201 188 320q-80 69 -117 135t-37 151q0 138 103.5 239t290.5 101q182 0 290.5 -91t108.5 -242q0 -175 -154 -291zM680 920q0 62 -38.5 103.5t-96.5 41.5q-57 0 -95 -38.5
t-38 -94.5q0 -58 38 -97.5t95 -39.5q52 0 93.5 38.5t41.5 86.5zM702 393q0 67 -47 114.5t-114 47.5q-64 0 -110 -49.5t-46 -118.5q0 -63 47.5 -112.5t108.5 -49.5q67 0 114 49t47 119z" />
    <glyph glyph-name="nine" unicode="9" 
d="M600 0h-340l318 432q-90 -10 -115 -10q-169 0 -285.5 123.5t-116.5 304.5q0 189 143 317.5t355 128.5q202 0 329.5 -129.5t127.5 -335.5q0 -150 -74.5 -300t-126.5 -224zM745 834q0 85 -58.5 143.5t-145.5 58.5q-77 0 -133 -60t-56 -142q0 -83 56.5 -140t136.5 -57
q82 0 141 58t59 139z" />
    <glyph glyph-name="colon" unicode=":" horiz-adv-x="532" 
d="M102 668q0 65 47 112t113 47t113 -47t47 -112q0 -66 -47 -112t-113 -46t-113 46t-47 112zM106 143q0 66 46.5 113t111.5 47q66 0 113 -47t47 -113q0 -65 -47 -111t-113 -46t-112 46t-46 111z" />
    <glyph glyph-name="semicolon" unicode=";" horiz-adv-x="532" 
d="M127 670q0 65 47 112t113 47q65 0 112 -47t47 -112q0 -66 -47 -113t-112 -47q-66 0 -113 47t-47 113zM158 299h256l-209 -553h-148z" />
    <glyph glyph-name="less" unicode="&#x3c;" horiz-adv-x="1366" 
d="M1239 115l-1112 465v192l1112 465v-231l-819 -330l819 -328v-233z" />
    <glyph glyph-name="equal" unicode="=" horiz-adv-x="1366" 
d="M127 1024h1112v-215h-1112v215zM127 547h1112v-215h-1112v215z" />
    <glyph glyph-name="greater" unicode="&#x3e;" horiz-adv-x="1366" 
d="M127 1237l1112 -463v-194l-1112 -465v233l819 328l-819 330v231z" />
    <glyph glyph-name="question" unicode="?" horiz-adv-x="981" 
d="M627 514v-68h-281v271h51q116 0 185 52.5t69 139.5q0 67 -52 117.5t-120 50.5q-61 0 -106 -46.5t-45 -108.5v-21h-281v12q0 168 135.5 293t319.5 125q174 0 301 -122.5t127 -290.5q0 -126 -76 -244t-227 -160zM330 143q0 65 46.5 111.5t110.5 46.5q66 0 112 -46.5
t46 -111.5q0 -66 -46 -112.5t-112 -46.5q-64 0 -110.5 47t-46.5 112z" />
    <glyph glyph-name="at" unicode="@" horiz-adv-x="1997" 
d="M1774 18h213q-110 -219 -337 -333.5t-542 -114.5h-6q-490 0 -767.5 243t-277.5 668q0 290 140 536t373 360t511 114q381 0 616.5 -214t235.5 -556q0 -294 -195.5 -507.5t-463.5 -213.5q-159 0 -184 115q-118 -115 -271 -115q-172 0 -278.5 118t-106.5 310
q0 236 150 445.5t391 209.5q175 0 264 -135l25 111h262l-150 -717q-14 -67 -14 -90q0 -47 39 -47q52 0 140 69.5t150 193t62 263.5q0 259 -185.5 418.5t-490.5 159.5q-266 0 -458 -112t-285.5 -315.5t-93.5 -412.5q0 -331 226.5 -524t618.5 -193q479 0 689 266zM692 430v-14
q0 -107 49 -170.5t129 -63.5q143 0 228.5 161t85.5 327q0 107 -51 170t-136 63q-126 0 -215.5 -134.5t-89.5 -338.5z" />
    <glyph glyph-name="A" unicode="A" horiz-adv-x="1409" 
d="M588 1313h219l536 -1313h-284l-107 258h-503l-103 -258h-283zM698 883l-153 -387h311z" />
    <glyph glyph-name="B" unicode="B" horiz-adv-x="1085" 
d="M129 1313h383q240 0 328 -100t88 -234q0 -85 -32 -143.5t-103 -118.5q136 -47 192.5 -138.5t56.5 -195.5q0 -181 -124 -282t-349 -101h-440v1313zM412 1092v-287h65q72 0 121 45.5t49 112.5q0 54 -48 91.5t-120 37.5h-67zM412 582v-361h102q234 0 234 170q0 92 -57 141.5
t-163 49.5h-116z" />
    <glyph glyph-name="C" unicode="C" horiz-adv-x="1194" 
d="M1114 1243v-321q-213 129 -373 129t-256 -110t-96 -296q0 -176 101 -281.5t270 -105.5q148 0 354 119v-318q-231 -77 -385 -77q-265 0 -450 194.5t-185 474.5q0 285 188.5 482.5t458.5 197.5q174 0 373 -88z" />
    <glyph glyph-name="D" unicode="D" horiz-adv-x="1300" 
d="M127 1313h448q287 0 462 -181t175 -477q0 -297 -180.5 -476t-480.5 -179h-424v1313zM412 1065v-811h112q174 0 286 95t112 317q0 129 -54 228.5t-156.5 135t-195.5 35.5h-104z" />
    <glyph glyph-name="E" unicode="E" horiz-adv-x="981" 
d="M135 1313h739v-260h-456v-265h456v-256h-456v-272h456v-260h-739v1313z" />
    <glyph glyph-name="F" unicode="F" horiz-adv-x="981" 
d="M135 1313h739v-254h-458v-268h458v-256h-456v-535h-283v1313z" />
    <glyph glyph-name="G" unicode="G" horiz-adv-x="1409" 
d="M1249 1028l-188 -176q-59 102 -146 152.5t-182 50.5q-154 0 -267.5 -117t-113.5 -276q0 -169 113.5 -286.5t273.5 -117.5q87 0 167.5 44t129.5 165h-311v256h606v-170q0 -131 -90 -281.5t-237 -220t-297 -69.5q-272 0 -459 197t-187 487q0 275 192.5 470t463.5 195
q346 0 532 -303z" />
    <glyph glyph-name="H" unicode="H" horiz-adv-x="1300" 
d="M131 1313h283v-506h465v506h282v-1313h-282v522h-465v-522h-283v1313z" />
    <glyph glyph-name="I" unicode="I" horiz-adv-x="532" 
d="M119 1313h282v-1313h-282v1313z" />
    <glyph glyph-name="J" unicode="J" horiz-adv-x="874" 
d="M461 1313h280v-930q0 -181 -100 -291t-262 -110q-117 0 -209.5 69t-142.5 211l206 156v-4q2 -1 20 -44t45.5 -77.5t59.5 -34.5q47 0 75 39t28 104v912z" />
    <glyph glyph-name="K" unicode="K" horiz-adv-x="1300" 
d="M139 1313h283v-555h4l436 555h346l-499 -627l520 -686h-340l-463 614h-4v-614h-283v1313z" />
    <glyph glyph-name="L" unicode="L" horiz-adv-x="874" 
d="M139 1313h281v-1030h387v-283h-668v1313z" />
    <glyph glyph-name="M" unicode="M" horiz-adv-x="1622" 
d="M227 1313h336l246 -787l246 787h325l168 -1313h-270l-115 924l-289 -924h-129l-296 932l-109 -932h-274z" />
    <glyph glyph-name="N" unicode="N" horiz-adv-x="1409" 
d="M1001 1313h277v-1313h-274l-603 850v-850h-282v1313h278l604 -844v844z" />
    <glyph glyph-name="O" unicode="O" horiz-adv-x="1516" 
d="M90 657q0 291 192.5 480.5t456.5 189.5q292 0 483 -190.5t191 -481.5q0 -289 -189 -480t-476 -191t-472.5 190t-185.5 483zM752 1065q-165 3 -266 -114t-101 -302q0 -175 103 -290t260 -115q165 0 266.5 113.5t101.5 299.5q0 183 -99.5 294t-264.5 114z" />
    <glyph glyph-name="P" unicode="P" 
d="M139 1313h449q181 0 292 -105.5t111 -277.5q0 -113 -54.5 -214.5t-164.5 -151.5t-188 -52l-164 -4v-508h-281v1313zM416 1077v-336h110q71 0 121.5 51t50.5 121q0 80 -57 124t-162 44z" />
    <glyph glyph-name="Q" unicode="Q" horiz-adv-x="1516" 
d="M1227 176l162 -186l-191 -121l-147 178q-166 -61 -297 -61q-291 0 -477.5 193.5t-186.5 496.5q0 250 181.5 451.5t480.5 201.5q280 0 471.5 -192t191.5 -473q0 -288 -188 -488zM866 262l-139 164l186 121l127 -150q78 86 78 252q0 191 -100 304.5t-266 113.5
q-161 0 -263 -112.5t-102 -290.5q0 -181 98 -297.5t248 -116.5q56 0 133 12z" />
    <glyph glyph-name="R" unicode="R" horiz-adv-x="1194" 
d="M131 1313h432q197 0 311.5 -104t114.5 -281q0 -101 -52.5 -210t-193.5 -171l367 -547h-324l-340 508h-32v-508h-283v1313zM416 1079v-342h61q221 0 221 181q0 74 -57.5 117.5t-159.5 43.5h-65z" />
    <glyph glyph-name="S" unicode="S" horiz-adv-x="975" 
d="M870 1194l-176 -193q-139 82 -200 82q-47 0 -81 -35.5t-34 -84.5q0 -97 176 -168q129 -55 195 -99.5t110.5 -123.5t44.5 -171q0 -169 -136.5 -294t-322.5 -125q-204 0 -403 192l186 217q125 -129 234 -129q51 0 98 45.5t47 95.5q0 103 -217 181q-124 45 -176 84.5
t-87.5 115t-35.5 154.5q0 175 114 284t298 109q218 0 366 -137z" />
    <glyph glyph-name="T" unicode="T" horiz-adv-x="981" 
d="M43 1313h883v-279h-301v-1034h-283v1034h-299v279z" />
    <glyph glyph-name="U" unicode="U" horiz-adv-x="1300" 
d="M133 1313h279v-803q0 -112 62 -180t163 -68q116 0 180 68.5t64 193.5v789h278v-850q0 -112 -58 -232.5t-178.5 -184.5t-269.5 -64q-270 0 -395 150.5t-125 316.5v864z" />
    <glyph glyph-name="V" unicode="V" horiz-adv-x="1300" 
d="M25 1313h286l332 -873l332 873h287l-496 -1313h-246z" />
    <glyph glyph-name="W" unicode="W" horiz-adv-x="1622" 
d="M33 1313h252l211 -895l221 895h180l217 -899l215 899h252l-317 -1313h-267l-192 805l-193 -805h-266z" />
    <glyph glyph-name="X" unicode="X" horiz-adv-x="1300" 
d="M80 1313h301l264 -402l273 402h292l-415 -625l456 -688h-293l-311 467l-311 -467h-299l461 686z" />
    <glyph glyph-name="Y" unicode="Y" horiz-adv-x="1194" 
d="M33 1313h313l242 -408l246 408h315l-418 -699v-614h-280v614z" />
    <glyph glyph-name="Z" unicode="Z" horiz-adv-x="1194" 
d="M150 1313h952l-592 -1041h571v-272h-1009l596 1044h-518v269z" />
    <glyph glyph-name="bracketleft" unicode="[" horiz-adv-x="641" 
d="M160 1335h430v-170h-246v-1308h242v-168h-426v1646z" />
    <glyph glyph-name="backslash" unicode="\" horiz-adv-x="748" 
d="M59 1407h148l510 -1782h-142z" />
    <glyph glyph-name="bracketright" unicode="]" horiz-adv-x="641" 
d="M43 1335h426v-1646h-426v168h244v1308h-244v170z" />
    <glyph glyph-name="asciicircum" unicode="^" horiz-adv-x="1196" 
d="M115 692l377 799h223l366 -799h-284l-199 490l-197 -490h-286z" />
    <glyph glyph-name="underscore" unicode="_" horiz-adv-x="1024" 
d="M-14 -254v102h1052v-102h-1052z" />
    <glyph glyph-name="grave" unicode="`" horiz-adv-x="682" 
d="M496 991h-179l-274 299h313z" />
    <glyph glyph-name="a" unicode="a" horiz-adv-x="1081" 
d="M692 0v147h-4q-60 -86 -121 -124.5t-151 -38.5q-151 0 -257 130t-106 316q0 184 113 315.5t268 131.5q74 0 133 -33t125 -105v119h256v-858h-256zM504 621q-76 0 -127 -60.5t-51 -152.5q0 -86 48.5 -138.5t127.5 -52.5q76 0 130 60.5t54 146.5q0 80 -54 138.5t-128 58.5z
" />
    <glyph glyph-name="b" unicode="b" 
d="M121 1337h256v-594q114 134 260 134q154 0 266.5 -133t112.5 -320q0 -177 -111 -308.5t-258 -131.5q-74 0 -136.5 37t-135.5 118v-139h-254v1337zM561 621q-76 0 -127 -54.5t-51 -146.5q0 -88 53.5 -145.5t134.5 -57.5q74 0 123 56.5t49 142.5q0 84 -53.5 144.5
t-128.5 60.5z" />
    <glyph glyph-name="c" unicode="c" horiz-adv-x="827" 
d="M745 297v-256q-132 -59 -219 -59q-194 0 -324 128t-130 320q0 193 120.5 320t305.5 127q129 0 250 -60v-242q-112 54 -205 54q-86 0 -138.5 -52.5t-52.5 -138.5q0 -85 52 -137.5t137 -52.5q77 0 204 49z" />
    <glyph glyph-name="d" unicode="d" 
d="M692 1335h258v-1335h-252v147h-4q-112 -161 -278 -161q-148 0 -252.5 129t-104.5 315t108 317.5t259 131.5q86 0 145 -31.5t121 -102.5v590zM503 625q-63 0 -118 -58t-55 -157q0 -79 48.5 -135t117.5 -56q82 0 137 60.5t55 150.5q0 78 -53.5 136.5t-131.5 58.5z" />
    <glyph glyph-name="e" unicode="e" horiz-adv-x="981" 
d="M922 369h-613q5 -83 54.5 -135t115.5 -52q118 0 185 107l235 -78q-131 -229 -407 -229q-203 0 -323 123t-120 331q0 187 126.5 314t311.5 127q186 0 310.5 -133.5t124.5 -333.5v-41zM311 541h346q-36 161 -165 161q-74 0 -122.5 -42t-58.5 -119z" />
    <glyph glyph-name="f" unicode="f" horiz-adv-x="641" 
d="M598 1303v-246q-58 39 -100 39q-54 0 -87.5 -39t-33.5 -101v-96h219v-233h-221v-627h-256v627h-76v233h76v105q0 219 93 296.5t218 77.5q99 0 168 -36z" />
    <glyph glyph-name="g" unicode="g" horiz-adv-x="1083" 
d="M694 49v101q-115 -146 -266 -146q-162 0 -270.5 125t-108.5 313q0 182 112.5 309.5t270.5 127.5q134 0 262 -140v119h254v-870q0 -72 -45.5 -165.5t-155 -138t-253.5 -44.5q-179 0 -286.5 67t-154.5 230h287q84 -117 182 -117q76 0 124 63.5t48 165.5zM322 435
q0 -66 57.5 -128.5t134.5 -62.5q75 0 128.5 59.5t53.5 145.5q0 88 -51 145t-131 57q-81 0 -136.5 -59.5t-55.5 -156.5z" />
    <glyph glyph-name="h" unicode="h" 
d="M141 1335h260v-575q70 60 130 87t139 27q135 0 211.5 -97.5t76.5 -270.5v-506h-258v461q0 83 -42.5 139.5t-104.5 56.5q-79 0 -115.5 -65t-36.5 -203v-389h-260v1335z" />
    <glyph glyph-name="i" unicode="i" horiz-adv-x="532" 
d="M100 1178q0 65 47 112t113 47t113 -47t47 -112q0 -66 -47 -113t-113 -47t-113 47t-47 113zM133 860h256v-860h-256v860z" />
    <glyph glyph-name="j" unicode="j" horiz-adv-x="532" 
d="M106 1180q0 65 47 111t113 46t112 -46t46 -111q0 -66 -46 -113t-112 -47q-65 0 -112.5 47t-47.5 113zM135 858h258v-1237h-258v1237z" />
    <glyph glyph-name="k" unicode="k" horiz-adv-x="981" 
d="M115 1335h254v-811l254 336h307l-285 -379l309 -481h-288l-297 455v-455h-254v1335z" />
    <glyph glyph-name="l" unicode="l" horiz-adv-x="532" 
d="M133 1335h256v-1335h-256v1335z" />
    <glyph glyph-name="m" unicode="m" horiz-adv-x="1622" 
d="M391 860v-137q18 12 53 46t67.5 57.5t78 38t82.5 14.5q59 0 128 -41.5t115 -147.5q80 102 156.5 145.5t142.5 43.5q117 0 198 -96.5t81 -237.5v-545h-256v477q0 71 -39 119.5t-94 48.5q-66 0 -114 -55t-48 -131v-459h-254v465q0 75 -39.5 126.5t-95.5 51.5
q-66 0 -114 -56.5t-48 -135.5v-451h-258v860h258z" />
    <glyph glyph-name="n" unicode="n" 
d="M397 860v-102q131 123 275 123q123 0 203.5 -101t80.5 -258v-522h-260v481q0 74 -40.5 125t-98.5 51q-70 0 -115 -64.5t-45 -166.5v-426h-256v860h256z" />
    <glyph glyph-name="o" unicode="o" 
d="M98 428q0 199 127 325t326 126q185 0 310.5 -128.5t125.5 -318.5q0 -194 -125.5 -322t-314.5 -128q-213 0 -331 135.5t-118 310.5zM735 428q0 87 -57 152t-133 65q-79 0 -136 -61t-57 -146q0 -93 56.5 -158t136.5 -65q76 0 133 63.5t57 149.5z" />
    <glyph glyph-name="p" unicode="p" 
d="M383 858v-125h4q56 75 116.5 109.5t145.5 34.5q154 0 262.5 -135t108.5 -328q0 -177 -105.5 -303.5t-250.5 -126.5q-89 0 -149 37t-124 118h-4v-518h-260v1237h256zM752 416q0 84 -54 144.5t-129 60.5q-74 0 -126 -59.5t-52 -145.5q0 -83 54.5 -142t132.5 -59
q76 0 125 56t49 145z" />
    <glyph glyph-name="q" unicode="q" horiz-adv-x="1081" 
d="M688 -379v533h-4q-61 -90 -121 -130t-149 -40q-154 0 -260.5 126.5t-106.5 309.5q0 192 110.5 323t268.5 131q87 0 146.5 -35.5t111.5 -113.5h4v133h256v-1237h-256zM680 416q0 79 -53.5 142t-120.5 63q-81 0 -134 -60t-53 -151q0 -84 49 -139.5t121 -55.5q77 0 134 60
t57 141z" />
    <glyph glyph-name="r" unicode="r" horiz-adv-x="641" 
d="M365 860v-127h4q38 64 88.5 101.5t93.5 37.5q26 0 47 -4v-280q-32 6 -63 6q-79 0 -122.5 -55.5t-43.5 -155.5v-383h-260v860h256z" />
    <glyph glyph-name="s" unicode="s" horiz-adv-x="874" 
d="M754 739l-174 -106q-75 76 -140 76q-32 0 -55 -18t-23 -44q0 -42 26.5 -61t141.5 -58.5t181.5 -101.5t66.5 -172q0 -111 -100 -190.5t-240 -79.5q-95 0 -189.5 53t-160.5 162l207 94q70 -121 145 -121q34 0 61 22t27 50q0 36 -31 54.5t-46 18.5q-6 7 -72 28
q-258 84 -258 273q0 114 92.5 186.5t241.5 72.5q165 0 299 -138z" />
    <glyph glyph-name="t" unicode="t" horiz-adv-x="532" 
d="M121 1155h256v-295h123v-235h-123v-625h-256v625h-98v235h98v295z" />
    <glyph glyph-name="u" unicode="u" 
d="M119 858h260v-412q0 -89 45.5 -148.5t112.5 -59.5q71 0 119.5 57.5t48.5 144.5v418h260v-500q0 -159 -121.5 -266.5t-302.5 -107.5q-192 0 -307 108t-115 287v479z" />
    <glyph glyph-name="v" unicode="v" 
d="M35 860h270l236 -504l235 504h268l-399 -860h-209z" />
    <glyph glyph-name="w" unicode="w" horiz-adv-x="1622" 
d="M23 860h270l231 -510l205 510h166l203 -506l229 506h270l-391 -860h-207l-186 471l-190 -471h-209z" />
    <glyph glyph-name="x" unicode="x" 
d="M53 860h314l174 -215l172 215h313l-330 -411l361 -449h-316l-200 252l-203 -252h-315l358 449z" />
    <glyph glyph-name="y" unicode="y" 
d="M51 858h273l247 -500l220 500h262l-535 -1237h-266l192 440z" />
    <glyph glyph-name="z" unicode="z" horiz-adv-x="981" 
d="M119 860h811l-455 -624h383v-236h-811l457 627h-385v233z" />
    <glyph glyph-name="braceleft" unicode="{" horiz-adv-x="797" 
d="M63 391v242q96 3 139.5 38t62 104t18.5 216v35q0 167 20 240t67.5 119t118 67t205.5 21h54v-240h-13q-121 0 -156.5 -24.5t-35.5 -118.5q-4 -340 -45 -428.5t-142 -149.5q122 -69 154.5 -193.5t32.5 -384.5q0 -93 37.5 -118t152.5 -25h15v-240h-54q-176 0 -257 42.5
t-117.5 116t-36.5 288.5v35q0 235 -58 298t-162 60z" />
    <glyph glyph-name="bar" unicode="|" horiz-adv-x="1204" 
d="M494 1425h217v-1701h-217v1701z" />
    <glyph glyph-name="braceright" unicode="}" horiz-adv-x="797" 
d="M733 633v-242q-95 -3 -138.5 -38t-62 -104t-18.5 -216v-35q0 -197 -24.5 -261.5t-63 -98t-98.5 -60.5t-226 -27h-53v240h14q116 0 153.5 25t37.5 118q0 275 35 394t151 184q-112 67 -147.5 165.5t-38.5 412.5q0 94 -36 118.5t-157 24.5h-12v240h53q144 0 214 -23
t115.5 -71.5t64 -120.5t18.5 -232v-35q0 -244 60.5 -302.5t158.5 -55.5z" />
    <glyph glyph-name="asciitilde" unicode="~" horiz-adv-x="1343" 
d="M1227 895v-223q-168 -140 -303 -140q-68 0 -127.5 20.5t-185 81t-191.5 60.5q-143 0 -303 -147v223q159 137 317 137q60 0 118.5 -19t150 -63.5t139 -60.5t92.5 -16q129 0 293 147z" />
    <glyph glyph-name="Adieresis" unicode="&#xc4;" horiz-adv-x="1409" 
d="M588 1313h219l536 -1313h-284l-107 258h-503l-103 -258h-283zM698 883l-153 -387h311zM479 1421q-57 0 -96 39t-39 96q0 55 39.5 95t95.5 40t95.5 -40t39.5 -95q0 -57 -39.5 -96t-95.5 -39zM931 1421q-56 0 -95.5 39t-39.5 96q0 55 39.5 95t95.5 40t95.5 -40t39.5 -95
q0 -57 -39 -96t-96 -39z" />
    <glyph glyph-name="Aring" unicode="&#xc5;" horiz-adv-x="1409" 
d="M588 1313h219l536 -1313h-284l-107 258h-503l-103 -258h-283zM698 883l-153 -387h311zM707 1747q81 0 138 -56.5t57 -137.5t-57.5 -139t-137.5 -58q-81 0 -139 58t-58 139t58 137.5t139 56.5zM707 1463q36 0 62 26.5t26 63.5q0 36 -25.5 62t-62.5 26t-63.5 -26t-26.5 -62
q0 -37 26.5 -63.5t63.5 -26.5z" />
    <glyph glyph-name="Ccedilla" unicode="&#xc7;" horiz-adv-x="1194" 
d="M1114 1243v-321q-213 129 -373 129t-256 -110t-96 -296q0 -176 101 -281.5t270 -105.5q148 0 354 119v-318q-231 -77 -385 -77q-265 0 -450 194.5t-185 474.5q0 285 188.5 482.5t458.5 197.5q174 0 373 -88zM295 -403v118q82 -12 188 -12q77 0 121.5 25.5t44.5 68.5
q0 39 -34.5 61.5t-94.5 22.5q-55 0 -131 -18l27 98q87 27 170 27q114 0 184 -52.5t70 -136.5q0 -96 -93.5 -157.5t-257.5 -61.5q-112 0 -194 17z" />
    <glyph glyph-name="Eacute" unicode="&#xc9;" horiz-adv-x="981" 
d="M135 1313h739v-260h-456v-265h456v-256h-456v-272h456v-260h-739v1313zM336 1401l140 299h313l-274 -299h-179z" />
    <glyph glyph-name="Ntilde" unicode="&#xd1;" horiz-adv-x="1409" 
d="M1001 1313h277v-1313h-274l-603 850v-850h-282v1313h278l604 -844v844zM479 1415h-127v28q0 105 48.5 165.5t133.5 60.5q38 0 68.5 -9.5t107.5 -43t121 -33.5q71 0 82 86h129q0 -250 -178 -250q-41 0 -66.5 6t-115 41t-134.5 35q-69 0 -69 -80v-6z" />
    <glyph glyph-name="Odieresis" unicode="&#xd6;" horiz-adv-x="1516" 
d="M90 657q0 291 192.5 480.5t456.5 189.5q292 0 483 -190.5t191 -481.5q0 -289 -189 -480t-476 -191t-472.5 190t-185.5 483zM752 1065q-165 3 -266 -114t-101 -302q0 -175 103 -290t260 -115q165 0 266.5 113.5t101.5 299.5q0 183 -99.5 294t-264.5 114zM532 1421
q-57 0 -96 39t-39 96q0 55 39.5 95t95.5 40t95.5 -40t39.5 -95q0 -57 -39.5 -96t-95.5 -39zM984 1421q-56 0 -95.5 39t-39.5 96q0 55 39.5 95t95.5 40t95.5 -40t39.5 -95q0 -57 -39 -96t-96 -39z" />
    <glyph glyph-name="Udieresis" unicode="&#xdc;" horiz-adv-x="1300" 
d="M133 1313h279v-803q0 -112 62 -180t163 -68q116 0 180 68.5t64 193.5v789h278v-850q0 -112 -58 -232.5t-178.5 -184.5t-269.5 -64q-270 0 -395 150.5t-125 316.5v864zM424 1421q-57 0 -96 39t-39 96q0 55 39.5 95t95.5 40t95.5 -40t39.5 -95q0 -57 -39.5 -96t-95.5 -39z
M876 1421q-56 0 -95.5 39t-39.5 96q0 55 39.5 95t95.5 40t95.5 -40t39.5 -95q0 -57 -39 -96t-96 -39z" />
    <glyph glyph-name="aacute" unicode="&#xe1;" horiz-adv-x="1081" 
d="M692 0v147h-4q-60 -86 -121 -124.5t-151 -38.5q-151 0 -257 130t-106 316q0 184 113 315.5t268 131.5q74 0 133 -33t125 -105v119h256v-858h-256zM504 621q-76 0 -127 -60.5t-51 -152.5q0 -86 48.5 -138.5t127.5 -52.5q76 0 130 60.5t54 146.5q0 80 -54 138.5t-128 58.5z
M387 991l140 299h313l-274 -299h-179z" />
    <glyph glyph-name="agrave" unicode="&#xe0;" horiz-adv-x="1081" 
d="M692 0v147h-4q-60 -86 -121 -124.5t-151 -38.5q-151 0 -257 130t-106 316q0 184 113 315.5t268 131.5q74 0 133 -33t125 -105v119h256v-858h-256zM504 621q-76 0 -127 -60.5t-51 -152.5q0 -86 48.5 -138.5t127.5 -52.5q76 0 130 60.5t54 146.5q0 80 -54 138.5t-128 58.5z
M697 991h-179l-274 299h313z" />
    <glyph glyph-name="acircumflex" unicode="&#xe2;" horiz-adv-x="1081" 
d="M692 0v147h-4q-60 -86 -121 -124.5t-151 -38.5q-151 0 -257 130t-106 316q0 184 113 315.5t268 131.5q74 0 133 -33t125 -105v119h256v-858h-256zM504 621q-76 0 -127 -60.5t-51 -152.5q0 -86 48.5 -138.5t127.5 -52.5q76 0 130 60.5t54 146.5q0 80 -54 138.5t-128 58.5z
M203 995l211 295h260l207 -295h-225l-117 150l-109 -150h-227z" />
    <glyph glyph-name="adieresis" unicode="&#xe4;" horiz-adv-x="1081" 
d="M692 0v147h-4q-60 -86 -121 -124.5t-151 -38.5q-151 0 -257 130t-106 316q0 184 113 315.5t268 131.5q74 0 133 -33t125 -105v119h256v-858h-256zM504 621q-76 0 -127 -60.5t-51 -152.5q0 -86 48.5 -138.5t127.5 -52.5q76 0 130 60.5t54 146.5q0 80 -54 138.5t-128 58.5z
M315 1012q-57 0 -96 39t-39 96q0 55 39.5 95t95.5 40t95.5 -40t39.5 -95q0 -57 -39.5 -96t-95.5 -39zM767 1012q-56 0 -95.5 39t-39.5 96q0 55 39.5 95t95.5 40t95.5 -40t39.5 -95q0 -57 -39 -96t-96 -39z" />
    <glyph glyph-name="atilde" unicode="&#xe3;" horiz-adv-x="1081" 
d="M692 0v147h-4q-60 -86 -121 -124.5t-151 -38.5q-151 0 -257 130t-106 316q0 184 113 315.5t268 131.5q74 0 133 -33t125 -105v119h256v-858h-256zM504 621q-76 0 -127 -60.5t-51 -152.5q0 -86 48.5 -138.5t127.5 -52.5q76 0 130 60.5t54 146.5q0 80 -54 138.5t-128 58.5z
M315 1006h-127v28q0 105 48.5 165.5t133.5 60.5q38 0 68.5 -9.5t107.5 -43t121 -33.5q71 0 82 86h129q0 -250 -178 -250q-41 0 -66.5 6t-115 41t-134.5 35q-69 0 -69 -80v-6z" />
    <glyph glyph-name="aring" unicode="&#xe5;" horiz-adv-x="1081" 
d="M692 0v147h-4q-60 -86 -121 -124.5t-151 -38.5q-151 0 -257 130t-106 316q0 184 113 315.5t268 131.5q74 0 133 -33t125 -105v119h256v-858h-256zM504 621q-76 0 -127 -60.5t-51 -152.5q0 -86 48.5 -138.5t127.5 -52.5q76 0 130 60.5t54 146.5q0 80 -54 138.5t-128 58.5z
M543 1337q81 0 138 -56.5t57 -137.5t-57.5 -139t-137.5 -58q-81 0 -139 58t-58 139t58 137.5t139 56.5zM543 1053q36 0 62 26.5t26 63.5q0 36 -25.5 62t-62.5 26t-63.5 -26t-26.5 -62q0 -37 26.5 -63.5t63.5 -26.5z" />
    <glyph glyph-name="ccedilla" unicode="&#xe7;" horiz-adv-x="827" 
d="M745 297v-256q-132 -59 -219 -59q-194 0 -324 128t-130 320q0 193 120.5 320t305.5 127q129 0 250 -60v-242q-112 54 -205 54q-86 0 -138.5 -52.5t-52.5 -138.5q0 -85 52 -137.5t137 -52.5q77 0 204 49zM113 -403v118q82 -12 188 -12q77 0 121.5 25.5t44.5 68.5
q0 39 -34.5 61.5t-94.5 22.5q-56 0 -131 -18l26 98q88 27 170 27q114 0 184 -52.5t70 -136.5q0 -96 -93.5 -157.5t-256.5 -61.5q-113 0 -194 17z" />
    <glyph glyph-name="eacute" unicode="&#xe9;" horiz-adv-x="981" 
d="M922 369h-613q5 -83 54.5 -135t115.5 -52q118 0 185 107l235 -78q-131 -229 -407 -229q-203 0 -323 123t-120 331q0 187 126.5 314t311.5 127q186 0 310.5 -133.5t124.5 -333.5v-41zM311 541h346q-36 161 -165 161q-74 0 -122.5 -42t-58.5 -119zM336 991l140 299h313
l-274 -299h-179z" />
    <glyph glyph-name="egrave" unicode="&#xe8;" horiz-adv-x="981" 
d="M922 369h-613q5 -83 54.5 -135t115.5 -52q118 0 185 107l235 -78q-131 -229 -407 -229q-203 0 -323 123t-120 331q0 187 126.5 314t311.5 127q186 0 310.5 -133.5t124.5 -333.5v-41zM311 541h346q-36 161 -165 161q-74 0 -122.5 -42t-58.5 -119zM646 991h-179l-274 299
h313z" />
    <glyph glyph-name="ecircumflex" unicode="&#xea;" horiz-adv-x="981" 
d="M922 369h-613q5 -83 54.5 -135t115.5 -52q118 0 185 107l235 -78q-131 -229 -407 -229q-203 0 -323 123t-120 331q0 187 126.5 314t311.5 127q186 0 310.5 -133.5t124.5 -333.5v-41zM311 541h346q-36 161 -165 161q-74 0 -122.5 -42t-58.5 -119zM152 995l211 295h260
l207 -295h-225l-117 150l-109 -150h-227z" />
    <glyph glyph-name="edieresis" unicode="&#xeb;" horiz-adv-x="981" 
d="M922 369h-613q5 -83 54.5 -135t115.5 -52q118 0 185 107l235 -78q-131 -229 -407 -229q-203 0 -323 123t-120 331q0 187 126.5 314t311.5 127q186 0 310.5 -133.5t124.5 -333.5v-41zM311 541h346q-36 161 -165 161q-74 0 -122.5 -42t-58.5 -119zM264 1012q-57 0 -96 39
t-39 96q0 55 39.5 95t95.5 40t95.5 -40t39.5 -95q0 -57 -39.5 -96t-95.5 -39zM716 1012q-56 0 -95.5 39t-39.5 96q0 55 39.5 95t95.5 40t95.5 -40t39.5 -95q0 -57 -39 -96t-96 -39z" />
    <glyph glyph-name="iacute" unicode="&#xed;" horiz-adv-x="532" 
d="M139 860h256v-860h-256v860zM113 991l140 299h313l-274 -299h-179z" />
    <glyph glyph-name="igrave" unicode="&#xec;" horiz-adv-x="532" 
d="M139 860h256v-860h-256v860zM422 991h-179l-274 299h313z" />
    <glyph glyph-name="icircumflex" unicode="&#xee;" horiz-adv-x="532" 
d="M139 860h256v-860h-256v860zM-72 995l211 295h260l207 -295h-225l-117 150l-109 -150h-227z" />
    <glyph glyph-name="idieresis" unicode="&#xef;" horiz-adv-x="532" 
d="M139 860h256v-860h-256v860zM41 1012q-57 0 -96 39t-39 96q0 55 39.5 95t95.5 40t95.5 -40t39.5 -95q0 -57 -39.5 -96t-95.5 -39zM493 1012q-56 0 -95.5 39t-39.5 96q0 55 39.5 95t95.5 40t95.5 -40t39.5 -95q0 -57 -39 -96t-96 -39z" />
    <glyph glyph-name="ntilde" unicode="&#xf1;" 
d="M397 860v-102q131 123 275 123q123 0 203.5 -101t80.5 -258v-522h-260v481q0 74 -40.5 125t-98.5 51q-70 0 -115 -64.5t-45 -166.5v-426h-256v860h256zM317 1006h-127v28q0 105 48.5 165.5t133.5 60.5q38 0 68.5 -9.5t107.5 -43t121 -33.5q71 0 82 86h129
q0 -250 -178 -250q-41 0 -66.5 6t-115 41t-134.5 35q-69 0 -69 -80v-6z" />
    <glyph glyph-name="oacute" unicode="&#xf3;" 
d="M98 428q0 199 127 325t326 126q185 0 310.5 -128.5t125.5 -318.5q0 -194 -125.5 -322t-314.5 -128q-213 0 -331 135.5t-118 310.5zM735 428q0 87 -57 152t-133 65q-79 0 -136 -61t-57 -146q0 -93 56.5 -158t136.5 -65q76 0 133 63.5t57 149.5zM389 991l140 299h313
l-274 -299h-179z" />
    <glyph glyph-name="ograve" unicode="&#xf2;" 
d="M98 428q0 199 127 325t326 126q185 0 310.5 -128.5t125.5 -318.5q0 -194 -125.5 -322t-314.5 -128q-213 0 -331 135.5t-118 310.5zM735 428q0 87 -57 152t-133 65q-79 0 -136 -61t-57 -146q0 -93 56.5 -158t136.5 -65q76 0 133 63.5t57 149.5zM699 991h-179l-274 299h313
z" />
    <glyph glyph-name="ocircumflex" unicode="&#xf4;" 
d="M98 428q0 199 127 325t326 126q185 0 310.5 -128.5t125.5 -318.5q0 -194 -125.5 -322t-314.5 -128q-213 0 -331 135.5t-118 310.5zM735 428q0 87 -57 152t-133 65q-79 0 -136 -61t-57 -146q0 -93 56.5 -158t136.5 -65q76 0 133 63.5t57 149.5zM205 995l211 295h260
l207 -295h-225l-117 150l-109 -150h-227z" />
    <glyph glyph-name="odieresis" unicode="&#xf6;" 
d="M98 428q0 199 127 325t326 126q185 0 310.5 -128.5t125.5 -318.5q0 -194 -125.5 -322t-314.5 -128q-213 0 -331 135.5t-118 310.5zM735 428q0 87 -57 152t-133 65q-79 0 -136 -61t-57 -146q0 -93 56.5 -158t136.5 -65q76 0 133 63.5t57 149.5zM317 1012q-57 0 -96 39
t-39 96q0 55 39.5 95t95.5 40t95.5 -40t39.5 -95q0 -57 -39.5 -96t-95.5 -39zM769 1012q-56 0 -95.5 39t-39.5 96q0 55 39.5 95t95.5 40t95.5 -40t39.5 -95q0 -57 -39 -96t-96 -39z" />
    <glyph glyph-name="otilde" unicode="&#xf5;" 
d="M98 428q0 199 127 325t326 126q185 0 310.5 -128.5t125.5 -318.5q0 -194 -125.5 -322t-314.5 -128q-213 0 -331 135.5t-118 310.5zM735 428q0 87 -57 152t-133 65q-79 0 -136 -61t-57 -146q0 -93 56.5 -158t136.5 -65q76 0 133 63.5t57 149.5zM317 1006h-127v28
q0 105 48.5 165.5t133.5 60.5q38 0 68.5 -9.5t107.5 -43t121 -33.5q71 0 82 86h129q0 -250 -178 -250q-41 0 -66.5 6t-115 41t-134.5 35q-69 0 -69 -80v-6z" />
    <glyph glyph-name="uacute" unicode="&#xfa;" 
d="M119 858h260v-412q0 -89 45.5 -148.5t112.5 -59.5q71 0 119.5 57.5t48.5 144.5v418h260v-500q0 -159 -121.5 -266.5t-302.5 -107.5q-192 0 -307 108t-115 287v479zM389 991l140 299h313l-274 -299h-179z" />
    <glyph glyph-name="ugrave" unicode="&#xf9;" 
d="M119 858h260v-412q0 -89 45.5 -148.5t112.5 -59.5q71 0 119.5 57.5t48.5 144.5v418h260v-500q0 -159 -121.5 -266.5t-302.5 -107.5q-192 0 -307 108t-115 287v479zM699 991h-179l-274 299h313z" />
    <glyph glyph-name="ucircumflex" unicode="&#xfb;" 
d="M119 858h260v-412q0 -89 45.5 -148.5t112.5 -59.5q71 0 119.5 57.5t48.5 144.5v418h260v-500q0 -159 -121.5 -266.5t-302.5 -107.5q-192 0 -307 108t-115 287v479zM205 995l211 295h260l207 -295h-225l-117 150l-109 -150h-227z" />
    <glyph glyph-name="udieresis" unicode="&#xfc;" 
d="M119 858h260v-412q0 -89 45.5 -148.5t112.5 -59.5q71 0 119.5 57.5t48.5 144.5v418h260v-500q0 -159 -121.5 -266.5t-302.5 -107.5q-192 0 -307 108t-115 287v479zM317 1012q-57 0 -96 39t-39 96q0 55 39.5 95t95.5 40t95.5 -40t39.5 -95q0 -57 -39.5 -96t-95.5 -39z
M769 1012q-56 0 -95.5 39t-39.5 96q0 55 39.5 95t95.5 40t95.5 -40t39.5 -95q0 -57 -39 -96t-96 -39z" />
    <glyph glyph-name="dagger" unicode="&#x2020;" horiz-adv-x="897" 
d="M500 844v-23q39 3 98.5 23t116.5 20q64 0 90 -22t26 -78q0 -100 -108 -100q-67 0 -126 22t-95 25l14 -76q35 -158 35 -281q0 -65 -26.5 -259t-26.5 -507h-103q-11 307 -14 356t-22 188t-19 228q0 100 23.5 200t25.5 151q-22 -5 -94 -27t-127 -22t-78.5 23t-23.5 77
q0 58 22.5 81t81.5 23q61 0 123.5 -22t97.5 -25q0 65 -25.5 194t-25.5 193q0 129 109 129q58 0 81 -31.5t23 -109.5q0 -71 -26.5 -181.5t-26.5 -168.5z" />
    <glyph glyph-name="degree" unicode="&#xb0;" horiz-adv-x="819" 
d="M410 852q-132 0 -226 94t-94 225q0 132 94 226t226 94q131 0 225 -94t94 -226q0 -131 -94 -225t-225 -94zM410 1325q-63 0 -108.5 -45.5t-45.5 -108.5q0 -62 45.5 -106.5t108.5 -44.5t108 44.5t45 106.5q0 64 -45 109t-108 45z" />
    <glyph glyph-name="cent" unicode="&#xa2;" horiz-adv-x="874" 
d="M702 1147h132l-93 -301l62 -29v-242q-43 23 -135 48l-115 -369q32 -6 47 -6q67 0 201 51v-254q-121 -63 -240 -63q-31 0 -90 14l-119 -369h-133l131 416q-221 147 -221 385q0 96 35 183t100.5 151.5t137.5 88t212 23.5zM440 319l97 299q-138 -36 -138 -184q0 -48 41 -115
z" />
    <glyph glyph-name="sterling" unicode="&#xa3;" horiz-adv-x="1085" 
d="M954 973h-243v22q0 53 -25 85t-65 32q-89 0 -89 -108q0 -81 37 -209h242v-187h-209q2 -30 2 -57v-27l-2 -8v-8q0 -115 -49 -225q141 -74 209 -74q57 0 80.5 36t25.5 113h181v-84q0 -133 -73.5 -211.5t-197.5 -78.5q-115 0 -317 122q-60 -64 -109.5 -93t-118.5 -29
q-84 0 -137 53.5t-53 138.5q0 86 57 137.5t152 51.5q59 0 141 -31l2 96q0 82 -41 180h-268v187h225q-22 97 -22 170q0 179 106 251t232 72q153 0 240.5 -82t86.5 -235zM346 182q-51 58 -108 58q-33 0 -55.5 -19.5t-22.5 -48.5q0 -27 19.5 -47.5t45.5 -20.5q55 0 121 78z" />
    <glyph glyph-name="section" unicode="&#xa7;" horiz-adv-x="979" 
d="M825 1047h-237q-41 61 -99 61q-34 0 -55.5 -18t-21.5 -46q0 -40 35 -73.5t182.5 -135.5t191 -183.5t43.5 -174.5q0 -98 -40 -169t-128 -140q80 -86 105.5 -133.5t25.5 -110.5q0 -131 -91.5 -216t-233.5 -85q-139 0 -235 78.5t-109 210.5h239q44 -62 101 -62
q32 0 54.5 20.5t22.5 49.5q0 57 -165 164q-45 25 -132.5 97.5t-122 149.5t-34.5 152q0 99 40 167t130 141q-67 68 -100 120t-33 125q0 129 92.5 214t234.5 85q140 0 236 -78.5t104 -209.5zM428 674q-12 0 -52 -44t-40 -98q0 -102 225 -249q88 81 88 143q0 58 -56.5 115
t-164.5 133z" />
    <glyph glyph-name="bullet" unicode="&#x2022;" horiz-adv-x="717" 
d="M356 1020q123 0 210 -87.5t87 -209.5q0 -121 -87.5 -208t-209.5 -87q-120 0 -207.5 87t-87.5 208q0 122 87 209.5t208 87.5z" />
    <glyph glyph-name="paragraph" unicode="&#xb6;" horiz-adv-x="1139" 
d="M639 -403h-244v1046q-190 15 -291.5 123t-101.5 287q0 108 44 198t120.5 140t139 62.5t231.5 12.5h596v-262h-113v-1607h-238v1607h-143v-1607z" />
    <glyph glyph-name="germandbls" unicode="&#xdf;" 
d="M707 684l149 -35q76 -18 133.5 -106.5t57.5 -188.5q0 -159 -103.5 -264.5t-259.5 -105.5q-102 0 -188 34v211q82 -24 127 -24q79 0 128.5 47.5t49.5 124.5q0 84 -58.5 142.5t-142.5 58.5h-47v219h35q78 0 125 43.5t47 115.5q0 74 -46 118t-122 44t-128 -51.5t-52 -126.5
v-940h-256v944q0 147 109.5 269t316.5 122q187 0 303 -95.5t116 -248.5q0 -74 -41.5 -150.5t-93.5 -95.5l-159 -57v-4z" />
    <glyph glyph-name="registered" unicode="&#xae;" horiz-adv-x="1511" 
d="M-12 729q0 316 225 541t541 225t541 -225t225 -541q0 -315 -225 -540.5t-541 -225.5q-315 0 -540.5 225.5t-225.5 540.5zM1370 729q0 255 -180 436t-434 181t-434.5 -181t-180.5 -436q0 -254 180.5 -435t434.5 -181q253 0 433.5 181t180.5 435zM408 319l2 814h385
q131 0 201.5 -60t70.5 -170q0 -89 -58 -150.5t-161 -74.5v-4q51 -18 79.5 -49.5t92.5 -141.5l96 -164h-203l-69 134q-60 114 -106 157t-122 43h-43v-334h-165zM573 782h134q102 0 144 25.5t42 91.5q0 105 -170 105h-150v-222z" />
    <glyph glyph-name="copyright" unicode="&#xa9;" horiz-adv-x="1511" 
d="M-12 729q0 316 225 541t541 225q314 0 540 -223t226 -543q0 -315 -225 -540.5t-541 -225.5q-315 0 -540.5 225.5t-225.5 540.5zM1370 729q0 254 -181.5 435.5t-434.5 181.5q-254 0 -434.5 -181.5t-180.5 -435.5q0 -252 181 -433t434 -181t434.5 181t181.5 433zM940 616
l162 -55q-78 -258 -354 -258q-166 0 -267.5 117.5t-101.5 310.5q0 194 106 309t283 115q245 0 334 -244l-162 -39q-52 140 -178 140q-95 0 -151 -72t-56 -197q0 -146 51 -222.5t148 -76.5q137 0 186 172z" />
    <glyph glyph-name="trademark" unicode="&#x2122;" horiz-adv-x="2048" 
d="M469 647v676h-252v143h664v-143h-246v-676h-166zM979 647v819h260l147 -565h5l147 565h260v-819h-158v653h-4l-174 -653h-149l-172 653h-4v-653h-158z" />
    <glyph glyph-name="acute" unicode="&#xb4;" horiz-adv-x="682" 
d="M186 991l140 299h313l-274 -299h-179z" />
    <glyph glyph-name="dieresis" unicode="&#xa8;" horiz-adv-x="682" 
d="M115 1012q-57 0 -96 39t-39 96q0 55 39.5 95t95.5 40t95.5 -40t39.5 -95q0 -57 -39.5 -96t-95.5 -39zM567 1012q-56 0 -95.5 39t-39.5 96q0 55 39.5 95t95.5 40t95.5 -40t39.5 -95q0 -57 -39 -96t-96 -39z" />
    <glyph glyph-name="notequal" unicode="&#x2260;" horiz-adv-x="1366" 
d="M1239 332h-628l-141 -255l-176 84l94 171h-261v215h381l146 262h-527v215h647l108 194l171 -91l-57 -103h243v-215h-363l-145 -262h508v-215z" />
    <glyph glyph-name="AE" unicode="&#xc6;" horiz-adv-x="1622" 
d="M696 1313h838v-258h-385v-267h383v-256h-383v-274h383v-258h-662v377h-331l-185 -377h-299zM866 1059l-204 -436h208v436h-4z" />
    <glyph glyph-name="Oslash" unicode="&#xd8;" horiz-adv-x="1516" 
d="M1315 1415l115 -98l-177 -207q89 -104 128.5 -224t39.5 -220q0 -294 -183 -488t-460 -194q-57 0 -153 15.5t-246 94.5l-180 -209l-119 97l182 213q-105 145 -135.5 252t-30.5 215q0 282 191.5 473.5t474.5 191.5q80 0 159.5 -20t219.5 -93zM451 418l510 588
q-106 59 -207 59q-153 0 -260 -121t-107 -295q0 -89 64 -231zM1065 889l-504 -586q102 -59 203 -59q157 0 257.5 111.5t100.5 287.5q0 112 -27 182q-1 5 -1 6l-15 37q-8 21 -14 21z" />
    <glyph glyph-name="infinity" unicode="&#x221e;" horiz-adv-x="1460" 
d="M681 843q74 121 151 174.5t172 53.5q132 0 219.5 -93.5t87.5 -255.5t-87.5 -255.5t-219.5 -93.5q-94 0 -171 53t-152 175q-60 -84 -138 -128t-149 -44q-101 0 -171.5 78.5t-70.5 214.5t70.5 214t171.5 78q71 0 149 -44t138 -127zM774 724q84 -129 118 -158
q53 -45 115 -45q76 0 117 59t41 146q0 94 -45 146t-110 52q-51 0 -102.5 -36t-133.5 -164zM595 726q-100 141 -190 141q-46 0 -79.5 -37t-33.5 -103q0 -68 33 -106t80 -38q39 0 70 21q54 36 120 122z" />
    <glyph glyph-name="plusminus" unicode="&#xb1;" horiz-adv-x="1366" 
d="M125 963h450v450h216v-450h450v-213h-450v-451h-216v451h-450v213zM125 156h1116v-215h-1116v215z" />
    <glyph glyph-name="lessequal" unicode="&#x2264;" horiz-adv-x="1366" 
d="M1239 179l-1112 465v192l1112 465v-231l-819 -330l819 -328v-233zM127 157h1112v-215h-1112v215z" />
    <glyph glyph-name="greaterequal" unicode="&#x2265;" horiz-adv-x="1366" 
d="M127 1301l1112 -463v-194l-1112 -465v233l819 328l-819 330v231zM127 156h1112v-215h-1112v215z" />
    <glyph glyph-name="yen" unicode="&#xa5;" horiz-adv-x="1194" 
d="M604 903l246 408h315l-114 -193h71v-131h-151l-148 -248h299v-129h-374v-610h-283v610h-381v129h305l-147 248h-158v131h80l-115 193h313z" />
    <glyph glyph-name="uni00B5" unicode="&#xb5;" horiz-adv-x="1251" 
d="M147 1061h279v-479q0 -234 57 -307.5t142 -73.5q68 0 120.5 48.5t68 117t15.5 211.5v483h283v-1061h-260v129h-4q-77 -154 -211 -154q-74 0 -120.5 37t-86.5 117h-4v-537h-279v1469z" />
    <glyph glyph-name="partialdiff" unicode="&#x2202;" horiz-adv-x="1012" 
d="M379 1123l-137 84q52 142 150.5 213t219.5 71q145 0 234 -100q131 -145 131 -448q0 -261 -83 -506t-230 -353.5t-309 -108.5q-138 0 -224.5 92t-86.5 262q0 158 87 303t266 230t429 80q-1 200 -74 296q-54 71 -145 71q-69 0 -120.5 -39.5t-107.5 -146.5zM814 758
q-29 1 -44 1q-137 0 -255.5 -55.5t-180 -158.5t-61.5 -207q0 -78 42 -125.5t99 -47.5q119 0 217 115q141 165 183 478z" />
    <glyph glyph-name="summation" unicode="&#x2211;" horiz-adv-x="1460" 
d="M139 1491h1237v-164h-988l607 -775l-649 -822h1040v-161h-1264v187l620 788l-603 772v175z" />
    <glyph glyph-name="product" unicode="&#x220f;" horiz-adv-x="1686" 
d="M161 1491h1362v-1922h-191v1748h-978v-1748h-193v1922z" />
    <glyph glyph-name="pi" unicode="&#x3c0;" horiz-adv-x="1472" 
d="M1422 717h-228v-717h-297v717h-322v-717h-297v717q-29 2 -36 2q-69 0 -192 -41v225q79 43 249 43h1123v-229z" />
    <glyph glyph-name="integral" unicode="&#x222b;" horiz-adv-x="561" 
d="M602 1760q0 -39 -29.5 -64t-75.5 -25q-37 0 -60 25t-44 25q-18 0 -27.5 -14.5t-9.5 -43.5q0 -34 19.5 -256t19.5 -551q0 -505 -30 -709.5t-79 -282.5q-26 -41 -67.5 -62t-85.5 -21q-49 0 -86 35t-37 85q0 38 25.5 65t64.5 27q34 0 65.5 -33t44.5 -33q25 0 39.5 44.5
t14.5 153.5q0 37 -6 197t-6 562q0 481 17 638.5t41 215.5q29 70 69 104t84 34q57 0 98 -32.5t41 -83.5z" />
    <glyph glyph-name="ordfeminine" unicode="&#xaa;" horiz-adv-x="705" 
d="M467 756v94h-4q-66 -109 -176 -109q-94 0 -164 83t-70 196q0 130 71.5 217.5t176.5 87.5q95 0 162 -94h4v80h166v-555h-166zM465 1028q0 54 -35 91.5t-84 37.5q-47 0 -82 -38.5t-35 -92.5q0 -62 31 -97.5t84 -35.5q49 0 85 40t36 95z" />
    <glyph glyph-name="ordmasculine" unicode="&#xba;" horiz-adv-x="705" 
d="M66 1028q0 129 82 213t208 84q124 0 205.5 -84.5t81.5 -212.5q0 -118 -82.5 -202.5t-198.5 -84.5q-131 0 -213.5 80t-82.5 207zM479 1032q0 55 -38.5 97t-88.5 42q-48 0 -85.5 -42t-37.5 -97q0 -57 37.5 -99t87.5 -42t87.5 42t37.5 99z" />
    <glyph glyph-name="uni2126" unicode="&#x2126;" horiz-adv-x="1573" 
d="M462 206q-116 49 -185 112q-101 90 -150.5 216t-49.5 277q0 310 191.5 501t508.5 191q233 0 389.5 -79t250 -244.5t93.5 -366.5q0 -202 -93.5 -360.5t-288.5 -244.5l330 23h72v-231h-642v243q97 47 153 105q76 80 114.5 194.5t38.5 241.5q0 247 -114.5 373.5
t-292.5 126.5q-170 0 -284.5 -129.5t-114.5 -365.5q0 -136 43.5 -253t124.5 -198q52 -52 144 -95v-243h-645v230h98z" />
    <glyph glyph-name="ae" unicode="&#xe6;" horiz-adv-x="1614" 
d="M684 0v121q-72 -73 -134.5 -106t-137.5 -33q-145 0 -252 130.5t-107 311.5q0 192 110.5 322.5t270.5 130.5q80 0 136 -34t112 -108h4v123h254v-61q111 80 217 80q150 0 262 -119.5t123 -294.5l6 -94h-614q33 -189 180 -189q56 0 94.5 26t83.5 85l230 -82
q-48 -102 -146.5 -164.5t-220.5 -62.5q-132 0 -215 86v-68h-256zM936 539h346q-6 72 -54.5 117.5t-113.5 45.5q-143 0 -178 -163zM502 621q-76 0 -127 -61t-51 -146q0 -88 49 -142.5t127 -54.5t131 61t53 152q0 78 -54 134.5t-128 56.5z" />
    <glyph glyph-name="oslash" unicode="&#xf8;" 
d="M879 899l94 -86l-86 -94q98 -133 98 -291q0 -196 -127.5 -322t-325.5 -126q-96 0 -247 75l-86 -96l-90 86l84 96q-51 77 -73 138.5t-22 148.5q0 198 126 323.5t325 125.5q65 0 116 -17.5t123 -56.5zM369 338l254 278q-40 27 -76 27q-86 0 -141.5 -61t-55.5 -156
q0 -43 19 -88zM709 522l-254 -284q50 -25 82 -25q82 0 139 62t57 151q0 41 -24 96z" />
    <glyph glyph-name="questiondown" unicode="&#xbf;" horiz-adv-x="977" 
d="M326 942q0 64 46.5 111t110.5 47q66 0 112 -46.5t46 -111.5q0 -66 -46 -112t-112 -46q-64 0 -110.5 46.5t-46.5 111.5zM346 635h281v-268h-45q-119 0 -188.5 -51t-69.5 -136q0 -73 50.5 -123.5t125.5 -50.5q62 0 101 46t44 130h279v-20q0 -140 -122.5 -274t-328.5 -134
q-182 0 -306 122t-124 302q0 155 90.5 253.5t212.5 135.5v68z" />
    <glyph glyph-name="exclamdown" unicode="&#xa1;" horiz-adv-x="426" 
d="M51 940q0 66 46 113t112 47t113 -47t47 -113q0 -65 -47 -111.5t-113 -46.5t-112 46t-46 112zM68 635h282v-864h-282v864z" />
    <glyph glyph-name="logicalnot" unicode="&#xac;" horiz-adv-x="1366" 
d="M125 1034h1116v-702h-215v487h-901v215z" />
    <glyph glyph-name="radical" unicode="&#x221a;" horiz-adv-x="1124" 
d="M1055 1868l-307 -1946l-498 1028l-197 -96l-33 68l299 147l404 -825l260 1634z" />
    <glyph glyph-name="florin" unicode="&#x192;" horiz-adv-x="1139" 
d="M281 850l36 211h201l37 196q20 113 92 173.5t232 60.5q136 0 268 -41l-55 -225q-89 26 -154 26q-66 0 -91 -29.5t-46 -160.5h207l-37 -211h-205l-172 -977q-21 -115 -52 -174.5t-97.5 -94t-182.5 -34.5q-145 0 -278 39l57 221q74 -23 174 -23q63 0 81.5 37.5t35.5 132.5
l149 873h-200z" />
    <glyph glyph-name="approxequal" unicode="&#x2248;" horiz-adv-x="1343" 
d="M1227 1145v-223q-168 -140 -303 -140q-68 0 -127.5 20.5t-185 81t-191.5 60.5q-143 0 -303 -147v223q159 137 317 137q60 0 118.5 -19t150 -63.5t139 -60.5t92.5 -16q129 0 293 147zM1227 645v-223q-168 -140 -303 -140q-68 0 -127.5 20.5t-185 81t-191.5 60.5
q-143 0 -303 -147v223q159 137 317 137q60 0 118.5 -19t150 -63.5t139 -60.5t92.5 -16q129 0 293 147z" />
    <glyph glyph-name="uni2206" unicode="&#x2206;" horiz-adv-x="1253" 
d="M668 1409l577 -1409h-1233zM594 1059l-447 -959h844z" />
    <glyph glyph-name="guillemotleft" unicode="&#xab;" horiz-adv-x="1024" 
d="M258 1063h240l-205 -490l199 -493h-236l-199 491zM741 1061h240l-203 -490l199 -491h-238l-198 493z" />
    <glyph glyph-name="guillemotright" unicode="&#xbb;" horiz-adv-x="1024" 
d="M51 1063h230l200 -492l-198 -491h-238l201 493zM532 1063h234l201 -490l-203 -493h-234l199 493z" />
    <glyph glyph-name="ellipsis" unicode="&#x2026;" horiz-adv-x="2048" 
d="M186 145q0 65 46 111.5t110 46.5q65 0 111.5 -46.5t46.5 -111.5t-46 -111t-112 -46q-64 0 -110 46.5t-46 110.5zM868 145q0 65 46 110.5t110 45.5t110 -45.5t46 -110.5t-46 -111t-110 -46t-110 46.5t-46 110.5zM1548 145q0 65 46 110.5t110 45.5t110 -45.5t46 -110.5
q0 -64 -46 -109.5t-110 -45.5t-110 45.5t-46 109.5z" />
    <glyph glyph-name="uni00A0" unicode="&#xa0;" horiz-adv-x="545" 
 />
    <glyph glyph-name="Agrave" unicode="&#xc0;" horiz-adv-x="1409" 
d="M588 1313h219l536 -1313h-284l-107 258h-503l-103 -258h-283zM698 883l-153 -387h311zM861 1401h-179l-274 299h313z" />
    <glyph glyph-name="Atilde" unicode="&#xc3;" horiz-adv-x="1409" 
d="M588 1313h219l536 -1313h-284l-107 258h-503l-103 -258h-283zM698 883l-153 -387h311zM479 1415h-127v28q0 105 48.5 165.5t133.5 60.5q38 0 68.5 -9.5t107.5 -43t121 -33.5q71 0 82 86h129q0 -250 -178 -250q-41 0 -66.5 6t-115 41t-134.5 35q-69 0 -69 -80v-6z" />
    <glyph glyph-name="Otilde" unicode="&#xd5;" horiz-adv-x="1516" 
d="M90 657q0 291 192.5 480.5t456.5 189.5q292 0 483 -190.5t191 -481.5q0 -289 -189 -480t-476 -191t-472.5 190t-185.5 483zM752 1065q-165 3 -266 -114t-101 -302q0 -175 103 -290t260 -115q165 0 266.5 113.5t101.5 299.5q0 183 -99.5 294t-264.5 114zM533 1415h-127v28
q0 105 48.5 165.5t133.5 60.5q38 0 68.5 -9.5t107.5 -43t121 -33.5q71 0 82 86h129q0 -250 -178 -250q-41 0 -66.5 6t-115 41t-134.5 35q-69 0 -69 -80v-6z" />
    <glyph glyph-name="OE" unicode="&#x152;" horiz-adv-x="1622" 
d="M698 1313h813v-256h-409v-271h409v-256h-409v-274h409v-256h-847q-193 0 -393.5 180t-200.5 482q0 208 95.5 354t210.5 208.5t290 84.5zM823 256v801l-102 -2q-209 -16 -285 -124.5t-76 -279.5q0 -178 106.5 -286.5t281.5 -108.5h75z" />
    <glyph glyph-name="oe" unicode="&#x153;" horiz-adv-x="1622" 
d="M1292 289l234 -76q-84 -145 -191 -188t-239 -43q-94 0 -152.5 26.5t-130.5 87.5q-69 -61 -137 -87.5t-174 -26.5q-190 0 -313 125t-123 319q0 201 123.5 326t322.5 125q164 0 305 -123q78 64 143 93.5t146 29.5q180 0 310 -126t130 -300v-84h-606q38 -187 180 -187
q54 0 92 25.5t80 83.5zM944 539h342q-34 159 -166 159q-144 0 -176 -159zM690 432q0 85 -56 148t-132 63t-131.5 -64t-55.5 -153q0 -83 59 -148t134 -65q76 0 129 63t53 156z" />
    <glyph glyph-name="endash" unicode="&#x2013;" horiz-adv-x="1024" 
d="M-12 643h1044v-250h-1044v250z" />
    <glyph glyph-name="emdash" unicode="&#x2014;" horiz-adv-x="2048" 
d="M-23 639h2085v-246h-2085v246z" />
    <glyph glyph-name="quotedblleft" unicode="&#x201c;" horiz-adv-x="981" 
d="M748 1321l108 -84q-88 -106 -102 -209h135v-291h-291v201q0 220 150 383zM256 1319l113 -78q-92 -109 -107 -213h141v-291h-294v217q0 181 147 365z" />
    <glyph glyph-name="quotedblright" unicode="&#x201d;" horiz-adv-x="981" 
d="M598 1313h293v-275q0 -145 -139 -313l-119 82q99 109 106 213h-141v293zM111 1313h290v-264q0 -157 -141 -324l-117 80q41 38 73 104.5t32 94.5v16h-137v293z" />
    <glyph glyph-name="quoteleft" unicode="&#x2018;" horiz-adv-x="532" 
d="M258 1331l119 -84q-97 -116 -107 -215h140v-293h-293v267q0 147 141 325z" />
    <glyph glyph-name="quoteright" unicode="&#x2019;" horiz-adv-x="532" 
d="M115 1313h293v-250q0 -79 -26 -153.5t-116 -188.5l-119 84q99 107 105 215h-137v293z" />
    <glyph glyph-name="divide" unicode="&#xf7;" horiz-adv-x="1366" 
d="M680 967q-52 0 -90.5 38.5t-38.5 92.5q0 52 37.5 88.5t91.5 36.5q53 0 91 -37.5t38 -89.5q0 -54 -38 -91.5t-91 -37.5zM127 778h1114v-205h-1114v205zM682 135q-53 0 -91 37.5t-38 89.5q0 54 38 92.5t91 38.5t91 -37.5t38 -91.5q0 -53 -38 -91t-91 -38z" />
    <glyph glyph-name="lozenge" unicode="&#x25ca;" horiz-adv-x="1012" 
d="M962 763l-397 -763h-122l-397 763l397 763h122zM839 763l-335 652l-335 -652l335 -652z" />
    <glyph glyph-name="ydieresis" unicode="&#xff;" 
d="M51 858h273l247 -500l220 500h262l-535 -1237h-266l192 440zM317 1012q-57 0 -96 39t-39 96q0 55 39.5 95t95.5 40t95.5 -40t39.5 -95q0 -57 -39.5 -96t-95.5 -39zM769 1012q-56 0 -95.5 39t-39.5 96q0 55 39.5 95t95.5 40t95.5 -40t39.5 -95q0 -57 -39 -96t-96 -39z" />
    <glyph glyph-name="Ydieresis" unicode="&#x178;" horiz-adv-x="1194" 
d="M33 1313h313l242 -408l246 408h315l-418 -699v-614h-280v614zM371 1421q-57 0 -96 39t-39 96q0 55 39.5 95t95.5 40t95.5 -40t39.5 -95q0 -57 -39.5 -96t-95.5 -39zM823 1421q-56 0 -95.5 39t-39.5 96q0 55 39.5 95t95.5 40t95.5 -40t39.5 -95q0 -57 -39 -96t-96 -39z
" />
    <glyph glyph-name="fraction" unicode="&#x2215;" horiz-adv-x="362" 
d="M612 1333h172l-1034 -1368h-174z" />
    <glyph glyph-name="Euro" unicode="&#x20ac;" horiz-adv-x="1130" 
d="M1085 59q-204 -73 -348 -73q-194 0 -336.5 116t-214.5 334h-174l56 146h98q-2 8 -2 53t2 53h-152l52 146h122q58 218 206 338t354 120q156 0 337 -84v-286q-194 122 -337 122q-199 0 -281 -210h588l-51 -146h-572l-2 -59l2 -47h533l-56 -146h-440q81 -205 295 -205
q137 0 321 113v-285z" />
    <glyph glyph-name="guilsinglleft" unicode="&#x2039;" horiz-adv-x="555" 
d="M254 1059h235l-204 -488l202 -491h-237l-199 493z" />
    <glyph glyph-name="guilsinglright" unicode="&#x203a;" horiz-adv-x="555" 
d="M43 1061h233l199 -492l-201 -487h-233l199 489z" />
    <glyph glyph-name="uniF001" unicode="&#xf001;" 
d="M942 956h-256q-10 62 -47.5 99t-85.5 37q-56 0 -99.5 -36.5t-43.5 -82.5v-115h131v-231h-129v-627h-262v627h-111v231h111v166q0 126 113 219.5t267 93.5q166 0 286.5 -96.5t125.5 -284.5zM690 858h256v-858h-256v858z" />
    <glyph glyph-name="uniF001" unicode="&#xfb01;" 
d="M942 956h-256q-10 62 -47.5 99t-85.5 37q-56 0 -99.5 -36.5t-43.5 -82.5v-115h131v-231h-129v-627h-262v627h-111v231h111v166q0 126 113 219.5t267 93.5q166 0 286.5 -96.5t125.5 -284.5zM690 858h256v-858h-256v858z" />
    <glyph glyph-name="uniF002" unicode="&#xf002;" 
d="M948 0h-254v866q0 121 -35.5 174.5t-117.5 53.5q-52 0 -91.5 -40.5t-39.5 -92.5v-103h133v-231h-129v-627h-258v627h-115v231h111v160q0 124 107.5 222.5t275.5 98.5q109 0 194 -40.5t137.5 -107t67 -135t14.5 -210.5v-846z" />
    <glyph glyph-name="uniF002" unicode="&#xfb02;" 
d="M948 0h-254v866q0 121 -35.5 174.5t-117.5 53.5q-52 0 -91.5 -40.5t-39.5 -92.5v-103h133v-231h-129v-627h-258v627h-115v231h111v160q0 124 107.5 222.5t275.5 98.5q109 0 194 -40.5t137.5 -107t67 -135t14.5 -210.5v-846z" />
    <glyph glyph-name="daggerdbl" unicode="&#x2021;" horiz-adv-x="897" 
d="M350 797q0 5 14 33t19 73q-31 -5 -96 -28t-125 -23q-109 0 -109 100q0 59 26.5 84t88.5 25q65 0 124 -24.5t95 -24.5q-6 45 -28.5 127.5t-22.5 134.5q0 96 110 96q46 0 74.5 -26t28.5 -66v-37q-4 -30 -28.5 -103.5t-28.5 -125.5q28 0 98 23.5t133 23.5q100 0 100 -105
q0 -58 -26 -79t-97 -21q-49 0 -121 25t-87 26q7 -48 32 -108t25 -105q0 -48 -26.5 -112t-26.5 -78q0 -32 24.5 -97t24.5 -120q0 -64 -25 -122.5t-24 -74.5q29 0 95.5 22.5t116.5 22.5q64 0 89.5 -21t25.5 -79q0 -57 -26.5 -81t-89.5 -24q-70 0 -119 25q-50 17 -96 24l2 -36
l28 -97q23 -54 23 -94q0 -78 -20.5 -104.5t-84.5 -26.5q-108 0 -108 102q0 50 24.5 126t32.5 133q-27 0 -96 -25t-121 -25h-12q-109 0 -109 99q0 57 25 81.5t82 24.5l18 -2h14q35 0 101.5 -21t93.5 -24q-6 22 -16 49q-37 92 -37 166q0 56 27.5 110t27.5 76q0 24 -12.5 47.5
t-28.5 70t-16 83.5v15q8 76 20 92z" />
    <glyph glyph-name="uni00B7" unicode="&#xb7;" horiz-adv-x="532" 
d="M332 1573v2l2 -2h-2zM104 639q0 65 46.5 111.5t111.5 46.5q66 0 113 -46.5t47 -111.5q0 -66 -47 -113t-113 -47q-64 0 -111 47t-47 113z" />
    <glyph glyph-name="uni00B7" unicode="&#x2219;" horiz-adv-x="532" 
d="M332 1573v2l2 -2h-2zM104 639q0 65 46.5 111.5t111.5 46.5q66 0 113 -46.5t47 -111.5q0 -66 -47 -113t-113 -47q-64 0 -111 47t-47 113z" />
    <glyph glyph-name="quotesinglbase" unicode="&#x201a;" horiz-adv-x="532" 
d="M186 299h256l-206 -551h-148z" />
    <glyph glyph-name="quotedblbase" unicode="&#x201e;" horiz-adv-x="981" 
d="M600 293h293v-270q0 -158 -139 -314l-119 78q96 97 106 213h-141v293zM111 293h295v-254q0 -175 -146 -334l-115 82q104 103 109 213h-143v293z" />
    <glyph glyph-name="perthousand" unicode="&#x2030;" horiz-adv-x="2560" 
d="M115 997q0 194 97 314.5t251 120.5q149 0 245.5 -122.5t96.5 -314.5q0 -204 -95 -328t-249 -124q-152 0 -249 126.5t-97 327.5zM612 981q0 160 -35 233.5t-114 73.5q-85 0 -121.5 -69.5t-36.5 -227.5q0 -305 156 -305q151 0 151 295zM1221 1432h161l-811 -1588h-159z
M1804 299q0 194 97 314t251 120q149 0 244.5 -121.5t95.5 -314.5q0 -204 -95 -328.5t-249 -124.5q-151 0 -247.5 127t-96.5 328zM2300 283q0 159 -35 233t-113 74q-85 0 -122 -70.5t-37 -226.5q0 -305 155 -305q152 0 152 295zM985 299q0 194 97 314t251 120
q150 0 246 -122.5t96 -315.5q0 -203 -95 -327t-249 -124q-152 0 -249 126t-97 329zM1483 283q0 159 -35.5 233t-114.5 74q-85 0 -122 -70.5t-37 -226.5q0 -305 157 -305q152 0 152 295z" />
    <glyph glyph-name="Acircumflex" unicode="&#xc2;" horiz-adv-x="1409" 
d="M588 1313h219l536 -1313h-284l-107 258h-503l-103 -258h-283zM698 883l-153 -387h311zM367 1405l211 295h260l207 -295h-225l-117 150l-109 -150h-227z" />
    <glyph glyph-name="Ecircumflex" unicode="&#xca;" horiz-adv-x="981" 
d="M135 1313h739v-260h-456v-265h456v-256h-456v-272h456v-260h-739v1313zM152 1405l211 295h260l207 -295h-225l-117 150l-109 -150h-227z" />
    <glyph glyph-name="Aacute" unicode="&#xc1;" horiz-adv-x="1409" 
d="M588 1313h219l536 -1313h-284l-107 258h-503l-103 -258h-283zM698 883l-153 -387h311zM551 1401l140 299h313l-274 -299h-179z" />
    <glyph glyph-name="Edieresis" unicode="&#xcb;" horiz-adv-x="981" 
d="M135 1313h739v-260h-456v-265h456v-256h-456v-272h456v-260h-739v1313zM264 1421q-57 0 -96 39t-39 96q0 55 39.5 95t95.5 40t95.5 -40t39.5 -95q0 -57 -39.5 -96t-95.5 -39zM716 1421q-56 0 -95.5 39t-39.5 96q0 55 39.5 95t95.5 40t95.5 -40t39.5 -95q0 -57 -39 -96
t-96 -39z" />
    <glyph glyph-name="Egrave" unicode="&#xc8;" horiz-adv-x="981" 
d="M135 1313h739v-260h-456v-265h456v-256h-456v-272h456v-260h-739v1313zM646 1401h-179l-274 299h313z" />
    <glyph glyph-name="Iacute" unicode="&#xcd;" horiz-adv-x="532" 
d="M119 1313h282v-1313h-282v1313zM113 1401l140 299h313l-274 -299h-179z" />
    <glyph glyph-name="Icircumflex" unicode="&#xce;" horiz-adv-x="532" 
d="M119 1313h282v-1313h-282v1313zM-72 1405l211 295h260l207 -295h-225l-117 150l-109 -150h-227z" />
    <glyph glyph-name="Idieresis" unicode="&#xcf;" horiz-adv-x="532" 
d="M119 1313h282v-1313h-282v1313zM41 1421q-57 0 -96 39t-39 96q0 55 39.5 95t95.5 40t95.5 -40t39.5 -95q0 -57 -39.5 -96t-95.5 -39zM493 1421q-56 0 -95.5 39t-39.5 96q0 55 39.5 95t95.5 40t95.5 -40t39.5 -95q0 -57 -39 -96t-96 -39z" />
    <glyph glyph-name="Igrave" unicode="&#xcc;" horiz-adv-x="532" 
d="M119 1313h282v-1313h-282v1313zM422 1401h-179l-274 299h313z" />
    <glyph glyph-name="Oacute" unicode="&#xd3;" horiz-adv-x="1516" 
d="M90 657q0 291 192.5 480.5t456.5 189.5q292 0 483 -190.5t191 -481.5q0 -289 -189 -480t-476 -191t-472.5 190t-185.5 483zM752 1065q-165 3 -266 -114t-101 -302q0 -175 103 -290t260 -115q165 0 266.5 113.5t101.5 299.5q0 183 -99.5 294t-264.5 114zM604 1401l140 299
h313l-274 -299h-179z" />
    <glyph glyph-name="Ocircumflex" unicode="&#xd4;" horiz-adv-x="1516" 
d="M90 657q0 291 192.5 480.5t456.5 189.5q292 0 483 -190.5t191 -481.5q0 -289 -189 -480t-476 -191t-472.5 190t-185.5 483zM752 1065q-165 3 -266 -114t-101 -302q0 -175 103 -290t260 -115q165 0 266.5 113.5t101.5 299.5q0 183 -99.5 294t-264.5 114zM420 1405l211 295
h260l207 -295h-225l-117 150l-109 -150h-227z" />
    <glyph glyph-name="glyph210" horiz-adv-x="717" 
 />
    <glyph glyph-name="Ograve" unicode="&#xd2;" horiz-adv-x="1516" 
d="M90 657q0 291 192.5 480.5t456.5 189.5q292 0 483 -190.5t191 -481.5q0 -289 -189 -480t-476 -191t-472.5 190t-185.5 483zM752 1065q-165 3 -266 -114t-101 -302q0 -175 103 -290t260 -115q165 0 266.5 113.5t101.5 299.5q0 183 -99.5 294t-264.5 114zM914 1401h-179
l-274 299h313z" />
    <glyph glyph-name="Uacute" unicode="&#xda;" horiz-adv-x="1300" 
d="M133 1313h279v-803q0 -112 62 -180t163 -68q116 0 180 68.5t64 193.5v789h278v-850q0 -112 -58 -232.5t-178.5 -184.5t-269.5 -64q-270 0 -395 150.5t-125 316.5v864zM496 1401l140 299h313l-274 -299h-179z" />
    <glyph glyph-name="Ucircumflex" unicode="&#xdb;" horiz-adv-x="1300" 
d="M133 1313h279v-803q0 -112 62 -180t163 -68q116 0 180 68.5t64 193.5v789h278v-850q0 -112 -58 -232.5t-178.5 -184.5t-269.5 -64q-270 0 -395 150.5t-125 316.5v864zM311 1405l211 295h260l207 -295h-225l-117 150l-109 -150h-227z" />
    <glyph glyph-name="Ugrave" unicode="&#xd9;" horiz-adv-x="1300" 
d="M133 1313h279v-803q0 -112 62 -180t163 -68q116 0 180 68.5t64 193.5v789h278v-850q0 -112 -58 -232.5t-178.5 -184.5t-269.5 -64q-270 0 -395 150.5t-125 316.5v864zM805 1401h-179l-274 299h313z" />
    <glyph glyph-name="dotlessi" unicode="&#x131;" horiz-adv-x="532" 
d="M139 860h256v-860h-256v860z" />
    <glyph glyph-name="circumflex" unicode="&#x2c6;" horiz-adv-x="682" 
d="M2 995l211 295h260l207 -295h-225l-117 150l-109 -150h-227z" />
    <glyph glyph-name="tilde" unicode="&#x2dc;" horiz-adv-x="682" 
d="M115 1006h-127v28q0 105 48.5 165.5t133.5 60.5q38 0 68.5 -9.5t107.5 -43t121 -33.5q71 0 82 86h129q0 -250 -178 -250q-41 0 -66.5 6t-115 41t-134.5 35q-69 0 -69 -80v-6z" />
    <glyph glyph-name="macron" unicode="&#x2c9;" horiz-adv-x="682" 
d="M18 1036v187h646v-187h-646z" />
    <glyph glyph-name="breve" unicode="&#x2d8;" horiz-adv-x="682" 
d="M512 1290h137q-13 -138 -96.5 -213.5t-214.5 -75.5t-214.5 75.5t-96.5 213.5h137q12 -143 174 -143t174 143z" />
    <glyph glyph-name="dotaccent" unicode="&#x2d9;" horiz-adv-x="682" 
d="M344 1022q-56 0 -95.5 40t-39.5 97q0 56 39.5 95.5t95.5 39.5t95.5 -39.5t39.5 -95.5q0 -57 -39.5 -97t-95.5 -40z" />
    <glyph glyph-name="ring" unicode="&#x2da;" horiz-adv-x="682" 
d="M342 1337q81 0 138 -56.5t57 -137.5t-57.5 -139t-137.5 -58q-81 0 -139 58t-58 139t58 137.5t139 56.5zM342 1053q36 0 62 26.5t26 63.5q0 36 -25.5 62t-62.5 26t-63.5 -26t-26.5 -62q0 -37 26.5 -63.5t63.5 -26.5z" />
    <glyph glyph-name="cedilla" unicode="&#xb8;" horiz-adv-x="682" 
d="M39 -403v118q82 -12 188 -12q77 0 121.5 25.5t44.5 68.5q0 39 -34.5 61.5t-94.5 22.5q-55 0 -131 -18l27 98q87 27 170 27q114 0 184 -52.5t70 -136.5q0 -96 -93.5 -157.5t-257.5 -61.5q-112 0 -194 17z" />
    <glyph glyph-name="hungarumlaut" unicode="&#x2dd;" horiz-adv-x="682" 
d="M96 997l140 297h292l-256 -297h-176zM473 997l139 297h287l-248 -297h-178z" />
    <glyph glyph-name="ogonek" unicode="&#x2db;" horiz-adv-x="682" 
d="M197 27h149q-20 -63 -20 -144q0 -159 141 -159q61 0 137 24v-137q-104 -41 -194 -41q-115 0 -182.5 63t-67.5 170q0 113 33 211z" />
    <glyph glyph-name="caron" unicode="&#x2c7;" horiz-adv-x="682" 
d="M2 1290h227l109 -149l117 149h225l-207 -295h-260z" />
    <glyph glyph-name="Lslash" unicode="&#x141;" horiz-adv-x="874" 
d="M156 1313h280v-445l156 129v-200l-156 -129v-387h387v-281h-665v430l-105 -84v201l103 86v680z" />
    <glyph glyph-name="lslash" unicode="&#x142;" horiz-adv-x="532" 
d="M150 1337h256v-481l114 96v-170l-114 -96v-686h-256v473l-115 -96v170l115 96v694z" />
    <glyph glyph-name="Scaron" unicode="&#x160;" horiz-adv-x="975" 
d="M870 1194l-176 -193q-139 82 -200 82q-47 0 -81 -35.5t-34 -84.5q0 -97 176 -168q129 -55 195 -99.5t110.5 -123.5t44.5 -171q0 -169 -136.5 -294t-322.5 -125q-204 0 -403 192l186 217q125 -129 234 -129q51 0 98 45.5t47 95.5q0 103 -217 181q-124 45 -176 84.5
t-87.5 115t-35.5 154.5q0 175 114 284t298 109q218 0 366 -137zM150 1700h227l109 -149l117 149h225l-207 -295h-260z" />
    <glyph glyph-name="scaron" unicode="&#x161;" horiz-adv-x="874" 
d="M754 739l-174 -106q-75 76 -140 76q-32 0 -55 -18t-23 -44q0 -42 26.5 -61t141.5 -58.5t181.5 -101.5t66.5 -172q0 -111 -100 -190.5t-240 -79.5q-95 0 -189.5 53t-160.5 162l207 94q70 -121 145 -121q34 0 61 22t27 50q0 36 -31 54.5t-46 18.5q-6 7 -72 28
q-258 84 -258 273q0 114 92.5 186.5t241.5 72.5q165 0 299 -138zM98 1290h227l109 -149l117 149h225l-207 -295h-260z" />
    <glyph glyph-name="Zcaron" unicode="&#x17d;" horiz-adv-x="1194" 
d="M150 1313h952l-592 -1041h571v-272h-1009l596 1044h-518v269zM258 1700h227l109 -149l117 149h225l-207 -295h-260z" />
    <glyph glyph-name="zcaron" unicode="&#x17e;" horiz-adv-x="981" 
d="M119 860h811l-455 -624h383v-236h-811l457 627h-385v233zM152 1290h227l109 -149l117 149h225l-207 -295h-260z" />
    <glyph glyph-name="brokenbar" unicode="&#xa6;" horiz-adv-x="1204" 
d="M494 1425h217v-731h-217v731zM494 453h217v-729h-217v729z" />
    <glyph glyph-name="Eth" unicode="&#xd0;" horiz-adv-x="1300" 
d="M143 1313h428q204 0 353.5 -81t227 -242t77.5 -324q0 -312 -181 -489t-499 -177h-406v571h-100v154h100v588zM426 1063v-338h227v-154h-227v-319h78q225 0 328.5 100t103.5 318q0 203 -109.5 298t-343.5 95h-57z" />
    <glyph glyph-name="eth" unicode="&#xf0;" horiz-adv-x="1130" 
d="M305 1206l129 142q98 -43 174 -88l168 83l58 -116l-105 -53q322 -250 322 -701q0 -223 -122.5 -356t-326.5 -133q-184 0 -310 127t-126 313q0 196 121 325.5t303 129.5q66 0 133 -29q-51 119 -184 227l-263 -135l-59 117l195 98q-65 33 -107 49zM795 434q0 83 -57 148
t-130 65q-76 0 -134 -62t-58 -145q0 -92 58 -157.5t138 -65.5q73 0 128 65t55 152z" />
    <glyph glyph-name="Yacute" unicode="&#xdd;" horiz-adv-x="1194" 
d="M33 1313h313l242 -408l246 408h315l-418 -699v-614h-280v614zM442 1401l140 299h313l-274 -299h-179z" />
    <glyph glyph-name="yacute" unicode="&#xfd;" 
d="M51 858h273l247 -500l220 500h262l-535 -1237h-266l192 440zM389 991l140 299h313l-274 -299h-179z" />
    <glyph glyph-name="Thorn" unicode="&#xde;" 
d="M434 1315v-254h166q184 0 295 -105t111 -278q0 -198 -128 -311t-352 -113h-92v-254h-284v1315h284zM434 827v-344h60q221 0 221 176q0 82 -55 125t-158 43h-68z" />
    <glyph glyph-name="thorn" unicode="&#xfe;" 
d="M399 1337v-602h4q101 144 259 144q157 0 265.5 -132t108.5 -325q0 -184 -107 -311t-259 -127q-154 0 -267 163h-4v-524h-256v1714h256zM406 420q0 -82 53.5 -141.5t128.5 -59.5q81 0 128.5 53.5t47.5 145.5q0 87 -52.5 146t-129.5 59q-73 0 -124.5 -60t-51.5 -143z" />
    <glyph glyph-name="multiply" unicode="&#xd7;" horiz-adv-x="1366" 
d="M158 1049l151 151l375 -375l375 375l151 -151l-372 -375l370 -371l-151 -151l-371 370l-373 -370l-151 151l370 371z" />
    <glyph glyph-name="onesuperior" unicode="&#xb9;" horiz-adv-x="748" 
d="M201 1323h280v-803h-196v635h-115z" />
    <glyph glyph-name="twosuperior" unicode="&#xb2;" horiz-adv-x="748" 
d="M455 686h215v-170h-598l250 315q76 97 108.5 150.5t32.5 91.5q0 90 -90 90q-106 0 -111 -125h-205q6 145 90 221t234 76q132 0 209.5 -64.5t77.5 -174.5q0 -178 -213 -410z" />
    <glyph glyph-name="threesuperior" unicode="&#xb3;" horiz-adv-x="748" 
d="M256 1094h-180q7 116 80.5 178.5t199.5 62.5t204.5 -60.5t78.5 -156.5q0 -103 -84 -170q115 -57 115 -196q0 -117 -79 -184.5t-216 -67.5q-120 0 -203.5 53.5t-101.5 185.5h192q32 -90 109 -90q40 0 66 28t26 71q0 49 -34.5 77.5t-94.5 28.5h-19v154q72 2 104 21.5
t32 72.5q0 40 -24.5 63t-66.5 23q-80 0 -104 -94z" />
    <glyph glyph-name="onehalf" unicode="&#xbd;" horiz-adv-x="1855" 
d="M158 1323h280v-803h-196v635h-115zM1298 1333h172l-1034 -1368h-174zM1512 154h215v-170h-598l250 315q76 97 108.5 150.5t32.5 91.5q0 90 -90 90q-106 0 -111 -125h-205q6 145 90 221t234 76q132 0 209.5 -64.5t77.5 -174.5q0 -178 -213 -410z" />
    <glyph glyph-name="onequarter" unicode="&#xbc;" horiz-adv-x="1855" 
d="M183 1323h280v-803h-196v635h-115zM1308 1333h172l-1034 -1368h-174zM1468 788h164v-485h72v-156h-72v-176h-192v176h-340v156zM1437 547l-190 -242h195v242h-5z" />
    <glyph glyph-name="threequarters" unicode="&#xbe;" horiz-adv-x="1855" 
d="M288 1094h-180q7 116 80.5 178.5t199.5 62.5t204.5 -60.5t78.5 -156.5q0 -103 -84 -170q115 -57 115 -196q0 -117 -79 -184.5t-216 -67.5q-120 0 -203.5 53.5t-101.5 185.5h192q32 -90 109 -90q40 0 66 28t26 71q0 49 -34.5 77.5t-94.5 28.5h-19v154q72 2 104 21.5
t32 72.5q0 40 -24.5 63t-66.5 23q-80 0 -104 -94zM1405 1333h172l-1034 -1368h-174zM1518 787h164v-485h72v-156h-72v-176h-192v176h-340v156zM1487 546l-190 -242h195v242h-5z" />
    <glyph glyph-name="uni00AD" unicode="&#xad;" horiz-adv-x="641" 
d="M29 559h577v-258h-577v258z" />
    <glyph glyph-name="uni00AF" unicode="&#xaf;" horiz-adv-x="1024" 
d="M-14 1464v103h1052v-103h-1052z" />
    <glyph glyph-name="glyph248" horiz-adv-x="748" 
d="M434 1335h164v-485h72v-156h-72v-176h-192v176h-340v156zM403 1094l-190 -242h195v242h-5z" />
    <glyph glyph-name="Abreve" unicode="&#x102;" horiz-adv-x="1409" 
d="M588 1313h219l536 -1313h-284l-107 258h-503l-103 -258h-283zM698 883l-153 -387h311zM872 1696h137q-13 -138 -96.5 -213.5t-214.5 -75.5t-214.5 75.5t-96.5 213.5h137q12 -143 174 -143t174 143z" />
    <glyph glyph-name="abreve" unicode="&#x103;" horiz-adv-x="1081" 
d="M692 0v147h-4q-60 -86 -121 -124.5t-151 -38.5q-151 0 -257 130t-106 316q0 184 113 315.5t268 131.5q74 0 133 -33t125 -105v119h256v-858h-256zM504 621q-76 0 -127 -60.5t-51 -152.5q0 -86 48.5 -138.5t127.5 -52.5q76 0 130 60.5t54 146.5q0 80 -54 138.5t-128 58.5z
M692 1288h137q-13 -138 -96.5 -213.5t-214.5 -75.5t-214.5 75.5t-96.5 213.5h137q12 -143 174 -143t174 143z" />
    <glyph glyph-name="Aogonek" unicode="&#x104;" horiz-adv-x="1409" 
d="M1475 -389q-108 -41 -195 -41q-114 0 -182 63t-68 170q0 101 29 197l-107 258h-503l-103 -258h-283l525 1313h219l536 -1313h-135q-12 -52 -12 -117q0 -159 141 -159q61 0 138 24v-137zM856 496l-158 387l-153 -387h311z" />
    <glyph glyph-name="aogonek" unicode="&#x105;" horiz-adv-x="1081" 
d="M1108 -389q-107 -41 -195 -41q-115 0 -182 63.5t-67 169.5q0 35 3 68.5t10 65.5l15 63v147h-4q-62 -87 -122 -125t-150 -38q-150 0 -256.5 130.5t-106.5 315.5q0 192 116 319.5t265 127.5q76 0 132 -32.5t126 -105.5v119h256v-858h-106q-13 -52 -13 -117q0 -159 142 -159
q60 0 137 24v-137zM502 217q82 0 133 62t51 145q0 80 -53 138.5t-129 58.5q-75 0 -126.5 -59.5t-51.5 -153.5q0 -86 49.5 -138.5t126.5 -52.5z" />
    <glyph glyph-name="Cacute" unicode="&#x106;" horiz-adv-x="1194" 
d="M1114 1243v-321q-213 129 -373 129t-256 -110t-96 -296q0 -176 101 -281.5t270 -105.5q148 0 354 119v-318q-231 -77 -385 -77q-265 0 -450 194.5t-185 474.5q0 285 188.5 482.5t458.5 197.5q174 0 373 -88zM561 1401l140 299h313l-274 -299h-179z" />
    <glyph glyph-name="cacute" unicode="&#x107;" horiz-adv-x="827" 
d="M745 297v-256q-132 -59 -219 -59q-194 0 -324 128t-130 320q0 193 120.5 320t305.5 127q129 0 250 -60v-242q-112 54 -205 54q-86 0 -138.5 -52.5t-52.5 -138.5q0 -85 52 -137.5t137 -52.5q77 0 204 49zM324 991l140 299h313l-274 -299h-179z" />
    <glyph glyph-name="Ccaron" unicode="&#x10c;" horiz-adv-x="1194" 
d="M1114 1243v-321q-213 129 -373 129t-256 -110t-96 -296q0 -176 101 -281.5t270 -105.5q148 0 354 119v-318q-231 -77 -385 -77q-265 0 -450 194.5t-185 474.5q0 285 188.5 482.5t458.5 197.5q174 0 373 -88zM391 1700h227l109 -149l117 149h225l-207 -295h-260z" />
    <glyph glyph-name="ccaron" unicode="&#x10d;" horiz-adv-x="827" 
d="M745 297v-256q-132 -59 -219 -59q-194 0 -324 128t-130 320q0 193 120.5 320t305.5 127q129 0 250 -60v-242q-112 54 -205 54q-86 0 -138.5 -52.5t-52.5 -138.5q0 -85 52 -137.5t137 -52.5q77 0 204 49zM154 1290h227l109 -149l117 149h225l-207 -295h-260z" />
    <glyph glyph-name="Dcaron" unicode="&#x10e;" horiz-adv-x="1300" 
d="M127 1313h448q287 0 462 -181t175 -477q0 -297 -180.5 -476t-480.5 -179h-424v1313zM412 1065v-811h112q174 0 286 95t112 317q0 129 -54 228.5t-156.5 135t-195.5 35.5h-104zM270 1700h227l109 -149l117 149h225l-207 -295h-260z" />
    <glyph glyph-name="dcaron" unicode="&#x10f;" horiz-adv-x="1395" 
d="M692 1335h258v-1335h-252v147h-4q-112 -161 -278 -161q-148 0 -252.5 129t-104.5 315t108 317.5t259 131.5q86 0 145 -31.5t121 -102.5v590zM503 625q-63 0 -118 -58t-55 -157q0 -79 48.5 -135t117.5 -56q82 0 137 60.5t55 150.5q0 78 -53.5 136.5t-131.5 58.5z
M1095 1318h225v-193q0 -133 -112 -255l-87 64q81 78 84 161h-110v223z" />
    <glyph glyph-name="Dcroat" unicode="&#x110;" horiz-adv-x="1300" 
d="M143 1313h428q206 0 354.5 -81.5t226 -243.5t77.5 -322q0 -315 -180.5 -490.5t-499.5 -175.5h-406v571h-100v154h100v588zM426 1063v-338h227v-154h-227v-319h78q226 0 329 101t103 317q0 201 -107 297t-346 96h-57z" />
    <glyph glyph-name="dcroat" unicode="&#x111;" 
d="M950 1335v-164h131v-153h-131v-1018h-252v147h-4q-112 -161 -278 -161q-148 0 -252.5 128.5t-104.5 315.5t108.5 318t258.5 131q86 0 144.5 -30.5t121.5 -103.5v273h-223v153h223v164h258zM496 219q82 0 137 60.5t55 150.5q0 70 -49 132.5t-135 62.5q-66 0 -120 -58.5
t-54 -156.5q0 -82 49.5 -136.5t116.5 -54.5z" />
    <glyph glyph-name="Eogonek" unicode="&#x118;" horiz-adv-x="981" 
d="M811 -389q-107 -41 -195 -41q-115 0 -182 63.5t-67 169.5q0 101 28 197h-260v1313h739v-260h-456v-265h456v-256h-456v-272h456v-260h-329q-13 -52 -13 -117q0 -159 142 -159q60 0 137 24v-137z" />
    <glyph glyph-name="eogonek" unicode="&#x119;" horiz-adv-x="981" 
d="M829 -389q-106 -41 -192 -41q-117 0 -184.5 63t-67.5 170q0 89 27 185q-160 20 -261.5 137t-101.5 311q0 133 64 235t160.5 154t213.5 52q184 0 309.5 -132.5t125.5 -334.5v-41h-613q7 -88 55.5 -137.5t114.5 -49.5q118 0 185 107l235 -78q-112 -198 -338 -225
q-8 -41 -8 -103q0 -159 139 -159q63 0 137 24v-137zM657 541q-36 161 -165 161q-74 0 -122.5 -42t-58.5 -119h346z" />
    <glyph glyph-name="Ecaron" unicode="&#x11a;" horiz-adv-x="981" 
d="M135 1313h739v-260h-456v-265h456v-256h-456v-272h456v-260h-739v1313zM193 1702h227l109 -149l117 149h225l-207 -295h-260z" />
    <glyph glyph-name="ecaron" unicode="&#x11b;" horiz-adv-x="981" 
d="M922 369h-613q5 -83 54.5 -135t115.5 -52q118 0 185 107l235 -78q-131 -229 -407 -229q-203 0 -323 123t-120 331q0 187 126.5 314t311.5 127q186 0 310.5 -133.5t124.5 -333.5v-41zM311 541h346q-36 161 -165 161q-74 0 -122.5 -42t-58.5 -119zM173 1290h227l109 -149
l117 149h225l-207 -295h-260z" />
    <glyph glyph-name="Lacute" unicode="&#x139;" horiz-adv-x="874" 
d="M139 1313h281v-1030h387v-283h-668v1313zM293 1401l140 299h313l-274 -299h-179z" />
    <glyph glyph-name="lacute" unicode="&#x13a;" horiz-adv-x="532" 
d="M133 1335h256v-1335h-256v1335zM113 1430l140 299h313l-274 -299h-179z" />
    <glyph glyph-name="Lcaron" unicode="&#x13d;" horiz-adv-x="874" 
d="M138 1313h281v-1030h387v-283h-668v1313zM131 1702h227l109 -149l117 149h225l-207 -295h-260z" />
    <glyph glyph-name="lcaron" unicode="&#x13e;" horiz-adv-x="831" 
d="M133 1335h256v-1335h-256v1335zM522 1318h225v-193q0 -133 -112 -255l-87 64q81 78 84 161h-110v223z" />
    <glyph glyph-name="Nacute" unicode="&#x143;" horiz-adv-x="1409" 
d="M1001 1313h277v-1313h-274l-603 850v-850h-282v1313h278l604 -844v844zM557 1401l140 299h313l-274 -299h-179z" />
    <glyph glyph-name="nacute" unicode="&#x144;" 
d="M397 860v-102q131 123 275 123q123 0 203.5 -101t80.5 -258v-522h-260v481q0 74 -40.5 125t-98.5 51q-70 0 -115 -64.5t-45 -166.5v-426h-256v860h256zM418 991l140 299h313l-274 -299h-179z" />
    <glyph glyph-name="Ncaron" unicode="&#x147;" horiz-adv-x="1409" 
d="M1001 1313h277v-1313h-274l-603 850v-850h-282v1313h278l604 -844v844zM373 1702h227l109 -149l117 149h225l-207 -295h-260z" />
    <glyph glyph-name="ncaron" unicode="&#x148;" 
d="M397 860v-102q131 123 275 123q123 0 203.5 -101t80.5 -258v-522h-260v481q0 74 -40.5 125t-98.5 51q-70 0 -115 -64.5t-45 -166.5v-426h-256v860h256zM213 1290h227l109 -149l117 149h225l-207 -295h-260z" />
    <glyph glyph-name="Ohungarumlaut" unicode="&#x150;" horiz-adv-x="1516" 
d="M90 657q0 291 192.5 480.5t456.5 189.5q292 0 483 -190.5t191 -481.5q0 -289 -189 -480t-476 -191t-472.5 190t-185.5 483zM752 1065q-165 3 -266 -114t-101 -302q0 -175 103 -290t260 -115q165 0 266.5 113.5t101.5 299.5q0 183 -99.5 294t-264.5 114zM428 1401l140 297
h292l-256 -297h-176zM805 1401l139 297h287l-248 -297h-178z" />
    <glyph glyph-name="ohungarumlaut" unicode="&#x151;" 
d="M98 428q0 199 127 325t326 126q185 0 310.5 -128.5t125.5 -318.5q0 -194 -125.5 -322t-314.5 -128q-213 0 -331 135.5t-118 310.5zM735 428q0 87 -57 152t-133 65q-79 0 -136 -61t-57 -146q0 -93 56.5 -158t136.5 -65q76 0 133 63.5t57 149.5zM246 997l140 297h292
l-256 -297h-176zM623 997l139 297h287l-248 -297h-178z" />
    <glyph glyph-name="Racute" unicode="&#x154;" horiz-adv-x="1194" 
d="M131 1313h432q197 0 311.5 -104t114.5 -281q0 -101 -52.5 -210t-193.5 -171l367 -547h-324l-340 508h-32v-508h-283v1313zM416 1079v-342h61q221 0 221 181q0 74 -57.5 117.5t-159.5 43.5h-65zM377 1401l140 299h313l-274 -299h-179z" />
    <glyph glyph-name="racute" unicode="&#x155;" horiz-adv-x="641" 
d="M365 860v-127h4q38 64 88.5 101.5t93.5 37.5q26 0 47 -4v-280q-32 6 -63 6q-79 0 -122.5 -55.5t-43.5 -155.5v-383h-260v860h256zM216 991l140 299h313l-274 -299h-179z" />
    <glyph glyph-name="Rcaron" unicode="&#x158;" horiz-adv-x="1194" 
d="M131 1313h432q197 0 311.5 -104t114.5 -281q0 -101 -52.5 -210t-193.5 -171l367 -547h-324l-340 508h-32v-508h-283v1313zM416 1079v-342h61q221 0 221 181q0 74 -57.5 117.5t-159.5 43.5h-65zM207 1700h227l109 -149l117 149h225l-207 -295h-260z" />
    <glyph glyph-name="rcaron" unicode="&#x159;" horiz-adv-x="641" 
d="M365 860v-127h4q38 64 88.5 101.5t93.5 37.5q26 0 47 -4v-280q-32 6 -63 6q-79 0 -122.5 -55.5t-43.5 -155.5v-383h-260v860h256zM42 1290h227l109 -149l117 149h225l-207 -295h-260z" />
    <glyph glyph-name="Sacute" unicode="&#x15a;" horiz-adv-x="975" 
d="M870 1194l-176 -193q-139 82 -200 82q-47 0 -81 -35.5t-34 -84.5q0 -97 176 -168q129 -55 195 -99.5t110.5 -123.5t44.5 -171q0 -169 -136.5 -294t-322.5 -125q-204 0 -403 192l186 217q125 -129 234 -129q51 0 98 45.5t47 95.5q0 103 -217 181q-124 45 -176 84.5
t-87.5 115t-35.5 154.5q0 175 114 284t298 109q218 0 366 -137zM375 1401l140 299h313l-274 -299h-179z" />
    <glyph glyph-name="sacute" unicode="&#x15b;" horiz-adv-x="874" 
d="M754 739l-174 -106q-75 76 -140 76q-32 0 -55 -18t-23 -44q0 -42 26.5 -61t141.5 -58.5t181.5 -101.5t66.5 -172q0 -111 -100 -190.5t-240 -79.5q-95 0 -189.5 53t-160.5 162l207 94q70 -121 145 -121q34 0 61 22t27 50q0 36 -31 54.5t-46 18.5q-6 7 -72 28
q-258 84 -258 273q0 114 92.5 186.5t241.5 72.5q165 0 299 -138zM287 991l140 299h313l-274 -299h-179z" />
    <glyph glyph-name="Scedilla" unicode="&#x15e;" horiz-adv-x="975" 
d="M870 1194l-176 -193q-139 82 -200 82q-47 0 -81 -35.5t-34 -84.5q0 -97 176 -168q129 -55 195 -99.5t110.5 -123.5t44.5 -171q0 -169 -136.5 -294t-322.5 -125q-204 0 -403 192l186 217q125 -129 234 -129q51 0 98 45.5t47 95.5q0 103 -217 181q-124 45 -176 84.5
t-87.5 115t-35.5 154.5q0 175 114 284t298 109q218 0 366 -137zM386 -29h225v-193q0 -133 -112 -255l-87 64q81 78 84 161h-110v223z" />
    <glyph glyph-name="scedilla" unicode="&#x15f;" horiz-adv-x="874" 
d="M754 739l-174 -106q-75 76 -140 76q-32 0 -55 -18t-23 -44q0 -42 26.5 -61t141.5 -58.5t181.5 -101.5t66.5 -172q0 -111 -100 -190.5t-240 -79.5q-95 0 -189.5 53t-160.5 162l207 94q70 -121 145 -121q34 0 61 22t27 50q0 36 -31 54.5t-46 18.5q-6 7 -72 28
q-258 84 -258 273q0 114 92.5 186.5t241.5 72.5q165 0 299 -138zM341 -29h225v-193q0 -133 -112 -255l-87 64q81 78 84 161h-110v223z" />
    <glyph glyph-name="Tcommaaccent" unicode="&#x162;" horiz-adv-x="981" 
d="M43 1313h883v-279h-301v-1034h-283v1034h-299v279zM376 -29h225v-193q0 -133 -112 -255l-87 64q81 78 84 161h-110v223z" />
    <glyph glyph-name="tcommaaccent" unicode="&#x163;" horiz-adv-x="532" 
d="M121 1155h256v-295h123v-235h-123v-625h-256v625h-98v235h98v295zM134 -29h225v-193q0 -133 -112 -255l-87 64q81 78 84 161h-110v223z" />
    <glyph glyph-name="Tcaron" unicode="&#x164;" horiz-adv-x="981" 
d="M43 1313h883v-279h-301v-1034h-283v1034h-299v279zM143 1700h227l109 -149l117 149h225l-207 -295h-260z" />
    <glyph glyph-name="tcaron" unicode="&#x165;" horiz-adv-x="819" 
d="M121 1155h256v-295h123v-235h-123v-625h-256v625h-98v235h98v295zM540 1318h225v-193q0 -133 -112 -255l-87 64q81 78 84 161h-110v223z" />
    <glyph glyph-name="Uring" unicode="&#x16e;" horiz-adv-x="1300" 
d="M133 1313h279v-803q0 -112 62 -180t163 -68q116 0 180 68.5t64 193.5v789h278v-850q0 -112 -58 -232.5t-178.5 -184.5t-269.5 -64q-270 0 -395 150.5t-125 316.5v864zM646 1747q81 0 138 -56.5t57 -137.5t-57.5 -139t-137.5 -58q-81 0 -139 58t-58 139t58 137.5t139 56.5
zM646 1463q36 0 62 26.5t26 63.5q0 36 -25.5 62t-62.5 26t-63.5 -26t-26.5 -62q0 -37 26.5 -63.5t63.5 -26.5z" />
    <glyph glyph-name="uring" unicode="&#x16f;" 
d="M119 858h260v-412q0 -89 45.5 -148.5t112.5 -59.5q71 0 119.5 57.5t48.5 144.5v418h260v-500q0 -159 -121.5 -266.5t-302.5 -107.5q-192 0 -307 108t-115 287v479zM539 1337q81 0 138 -56.5t57 -137.5t-57.5 -139t-137.5 -58q-81 0 -139 58t-58 139t58 137.5t139 56.5z
M539 1053q36 0 62 26.5t26 63.5q0 36 -25.5 62t-62.5 26t-63.5 -26t-26.5 -62q0 -37 26.5 -63.5t63.5 -26.5z" />
    <glyph glyph-name="Uhungarumlaut" unicode="&#x170;" horiz-adv-x="1300" 
d="M133 1313h279v-803q0 -112 62 -180t163 -68q116 0 180 68.5t64 193.5v789h278v-850q0 -112 -58 -232.5t-178.5 -184.5t-269.5 -64q-270 0 -395 150.5t-125 316.5v864zM305 1401l140 297h292l-256 -297h-176zM682 1401l139 297h287l-248 -297h-178z" />
    <glyph glyph-name="uhungarumlaut" unicode="&#x171;" 
d="M119 858h260v-412q0 -89 45.5 -148.5t112.5 -59.5q71 0 119.5 57.5t48.5 144.5v418h260v-500q0 -159 -121.5 -266.5t-302.5 -107.5q-192 0 -307 108t-115 287v479zM211 997l140 297h292l-256 -297h-176zM588 997l139 297h287l-248 -297h-178z" />
    <glyph glyph-name="Zacute" unicode="&#x179;" horiz-adv-x="1194" 
d="M150 1313h952l-592 -1041h571v-272h-1009l596 1044h-518v269zM445 1401l140 299h313l-274 -299h-179z" />
    <glyph glyph-name="zacute" unicode="&#x17a;" horiz-adv-x="981" 
d="M119 860h811l-455 -624h383v-236h-811l457 627h-385v233zM367 991l140 299h313l-274 -299h-179z" />
    <glyph glyph-name="Zdotaccent" unicode="&#x17b;" horiz-adv-x="1194" 
d="M150 1313h952l-592 -1041h571v-272h-1009l596 1044h-518v269zM624 1415q-56 0 -95.5 40t-39.5 97q0 56 39.5 95.5t95.5 39.5t95.5 -39.5t39.5 -95.5q0 -57 -39.5 -97t-95.5 -40z" />
    <glyph glyph-name="zdotaccent" unicode="&#x17c;" horiz-adv-x="981" 
d="M119 860h811l-455 -624h383v-236h-811l457 627h-385v233zM493 1022q-56 0 -95.5 40t-39.5 97q0 56 39.5 95.5t95.5 39.5t95.5 -39.5t39.5 -95.5q0 -57 -39.5 -97t-95.5 -40z" />
    <glyph glyph-name="commaaccent" horiz-adv-x="449" 
d="M111 -29h225v-193q0 -133 -112 -255l-87 64q81 78 84 161h-110v223z" />
    <glyph glyph-name="currency" unicode="&#xa4;" horiz-adv-x="1366" 
d="M158 1059l139 143l135 -135q64 42 112.5 59t145.5 17q79 0 127.5 -17.5t114.5 -58.5l135 135l141 -143l-135 -135q46 -77 60 -125t14 -127q0 -95 -18 -142t-56 -104l135 -131l-141 -141l-135 131q-65 -41 -114 -58.5t-138 -17.5q-92 0 -140 17.5t-108 58.5l-131 -131
l-143 141l133 131q-40 68 -57 118t-17 136q0 89 17 136t57 108zM684 942q-110 0 -189 -78t-79 -188t78 -189t188 -79t188 79t78 189t-77.5 188t-186.5 78z" />
    </font>
</defs>
</svg>
